<?xml version="1.0" encoding="UTF-8" standalone="no"?>
<svg
   xmlns:dc="http://purl.org/dc/elements/1.1/"
   xmlns:cc="http://creativecommons.org/ns#"
   xmlns:rdf="http://www.w3.org/1999/02/22-rdf-syntax-ns#"
   xmlns:svg="http://www.w3.org/2000/svg"
   xmlns="http://www.w3.org/2000/svg"
   xmlns:sodipodi="http://sodipodi.sourceforge.net/DTD/sodipodi-0.dtd"
   xmlns:inkscape="http://www.inkscape.org/namespaces/inkscape"
   width="154.19807mm"
   height="44.945286mm"
   viewBox="0 0 154.19807 44.945286"
   version="1.1"
   id="svg3639"
   inkscape:version="1.0.1 (3bc2e813f5, 2020-09-07)"
   sodipodi:docname="drawing.svg">
  <defs
     id="defs3633" />
  <sodipodi:namedview
     id="base"
     pagecolor="#ffffff"
     bordercolor="#666666"
     borderopacity="1.0"
     inkscape:pageopacity="0.0"
     inkscape:pageshadow="2"
     inkscape:zoom="0.35"
     inkscape:cx="-491.45912"
     inkscape:cy="864.93586"
     inkscape:document-units="mm"
     inkscape:current-layer="layer1"
     inkscape:document-rotation="0"
     showgrid="false"
     fit-margin-top="0"
     fit-margin-left="0"
     fit-margin-right="0"
     fit-margin-bottom="0"
     inkscape:window-width="1431"
     inkscape:window-height="1174"
     inkscape:window-x="2720"
     inkscape:window-y="169"
     inkscape:window-maximized="0" />
  <metadata
     id="metadata3636">
    <rdf:RDF>
      <cc:Work
         rdf:about="">
        <dc:format>image/svg+xml</dc:format>
        <dc:type
           rdf:resource="http://purl.org/dc/dcmitype/StillImage" />
        <dc:title></dc:title>
      </cc:Work>
    </rdf:RDF>
  </metadata>
  <g
     inkscape:label="Layer 1"
     inkscape:groupmode="layer"
     id="layer1"
     transform="translate(-235.86523,80.680947)">
    <g
       id="g1522"
       transform="matrix(0.76362224,0,0,0.76965276,-1664.727,1888.6987)"
       style="display:inline;stroke-width:0.345124"
       inkscape:export-xdpi="300"
       inkscape:export-ydpi="300">
      <path
         id="path22714"
         fill-rule="evenodd"
         fill="#db212c"
         d="m 2667.2198,-2542.457 v -0.2304 l 0.01,-0.2188 0.016,-0.2106 0.022,-0.2 0.028,-0.1895 0.035,-0.1802 0.038,-0.1684 0.045,-0.1557 v 0 l 0.124,-0.2503 0.2059,-0.3978 0.1989,-0.3603 0.1907,-0.3252 0.1836,-0.2901 0.1755,-0.2574 0.165,-0.2234 0.1568,-0.1931 0.1461,-0.1661 0.1393,-0.1392 0.1287,-0.1193 0.124,-0.1 0.1205,-0.085 0.1216,-0.076 0.1276,-0.069 0.1345,-0.062 0.1509,-0.06 0.1708,-0.056 0.1919,-0.052 0.2176,-0.047 0.2444,-0.042 0.2761,-0.036 0.3065,-0.028 0.3358,-0.02 0.3662,-0.012 h 0.3989 l 0.4317,0.01 0.4609,0.015 0.4914,0.024 0.5253,0.033 0.065,0.01 0.022,0.1685 0.018,0.2433 0.01,0.289 -0.01,0.3299 -0.022,0.3638 -0.037,0.399 -0.207,1.7559 1.274,1.8671 1.2821,0.7534 1.1173,0.2492 0.9768,-0.015 0.9207,-0.2 0.9313,-0.4165 0.9405,-0.7324 1.0389,-1.5044 0.027,-1.5209 0.023,-0.3662 0.037,-0.3357 0.051,-0.3041 0.061,-0.2715 0.07,-0.2409 0.08,-0.2153 0.086,-0.1942 0.093,-0.172 0.099,-0.1568 0.1099,-0.1474 0.124,-0.1404 0.1404,-0.1368 0.1615,-0.1369 0.1884,-0.1357 1.9618,-1.2167 -0.064,-2.4638 -0.072,-0.6258 -0.1275,-0.6049 -0.1743,-0.5755 -0.22,-0.5393 -0.2538,-0.5007 -0.2831,-0.4598 -0.3112,-0.4246 -0.3299,-0.3837 -0.3439,-0.3452 -0.3569,-0.3089 -0.372,-0.2784 -0.3848,-0.2457 -0.3978,-0.2152 -0.4188,-0.1836 -2.6662,-0.9138 -1.5805,2.3878 -0.1076,0.1462 -0.084,0.1 v 0.01 h -0.028 l -0.1193,-0.02 -0.2574,-0.1053 -0.5253,-0.2071 -0.5335,-0.2047 -0.5451,-0.1989 -0.5522,-0.1918 -0.5592,-0.1825 -0.5686,-0.1744 -0.579,-0.1626 -0.5873,-0.1486 -0.5955,-0.1357 -0.6048,-0.1193 -0.6142,-0.103 -0.6224,-0.083 -0.6294,-0.063 -0.6399,-0.04 -0.6493,-0.016 -0.6562,0.01 -0.6622,0.037 -0.6668,0.067 -0.6739,0.097 -0.6774,0.1311 -0.6773,0.1637 -0.6785,0.1966 -0.6809,0.234 -0.6797,0.2702 -0.6762,0.3041 -0.6738,0.344 -0.6692,0.379 -0.6656,0.42 -0.6587,0.4539 -0.6528,0.4937 -0.6738,0.5533 -0.6879,0.6377 -0.6552,0.7147 -0.5954,0.7604 -0.5334,0.7944 -0.4762,0.8283 -0.4188,0.854 -0.3662,0.8762 -0.3147,0.8938 -0.2644,0.9113 -0.2164,0.9254 -0.1708,0.9335 -0.124,0.9429 -0.081,0.9476 -0.036,0.9535 0.01,0.9547 0.048,0.9499 0.088,0.9487 0.131,0.9441 0.1731,0.9371 0.2153,0.9254 0.2574,0.9136 0.3018,0.8997 0.3463,0.8831 0.3918,0.8606 0.4364,0.8385 0.4878,0.8125 0.5358,0.7837 0.5885,0.7468 0.6399,0.7074 0.6961,0.6626 0.7499,0.6123 0.9078,0.6225 0.778,0.3673 0.5545,0.2541 0.5557,0.2473 0.5557,0.2381 0.5556,0.2307 0.5581,0.2207 0.5592,0.2113 0.558,0.1991 0.5615,0.1897 0.5663,0.1764 0.5674,0.1635 0.5685,0.1487 0.5721,0.1352 0.5755,0.1179 0.578,0.1009 0.5768,0.082 0.6188,0.069 0.6153,0.051 0.6154,0.034 0.6166,0.014 h 0.613 l 0.6141,-0.022 0.6142,-0.039 0.6118,-0.057 0.6119,-0.075 0.6107,-0.092 0.6107,-0.1088 0.6094,-0.1257 0.6096,-0.142 0.6094,-0.1581 0.6107,-0.1742 0.6096,-0.1892 0.6106,-0.2038 0.6107,-0.2193 0.613,-0.2335 0.6165,-0.2477 0.6166,-0.2628 0.6211,-0.2761 0.6224,-0.2892 0.6283,-0.3034 0.6305,-0.3172 0.6353,-0.3303 0.6411,-0.3423 0.6469,-0.3569 0.6527,-0.3683 0.6598,-0.3817 0.6669,-0.3947 1.5665,-0.947 0.6832,-1.5481 0.2925,-1.1942 -0.3838,-2.2235 -1.9934,-1.419 -1.4168,-0.061 -0.5826,0.1017 -0.193,0.048 -0.3486,0.072 -0.351,0.1368 -0.1099,0.042 -0.1089,0.043 -0.1099,0.042 -0.11,0.042 -0.1462,0.056 -0.5838,0.1497 -0.7628,0.1896 -0.7697,0.1825 -0.7745,0.1742 -0.7791,0.1638 -0.7768,0.151 -0.7756,0.1357 -0.7698,0.1181 -0.7627,0.1006 -0.7488,0.079 -0.737,0.055 -0.7195,0.032 -0.6972,0.01 -0.6739,-0.022 -0.6481,-0.048 -0.6177,-0.076 -0.5873,-0.104 -0.5498,-0.1299 -0.5148,-0.1579 -0.4796,-0.1825 -0.4422,-0.2071 -0.4083,-0.234 -0.3779,-0.2597 -0.3521,-0.2901 -0.3287,-0.3241 -0.3112,-0.365 -0.2936,-0.4153 -0.2773,-0.4738 -0.2597,-0.5417 -0.2375,-0.6176 -0.2129,-0.6996 -0.1895,-0.8236 -0.045,-0.2363 -0.043,-0.2679 -0.037,-0.2633 -0.028,-0.2561 -0.022,-0.2527 -0.013,-0.2446 -0.01,-0.2363 z m -31.8664,19.755 0.8317,0.5863 0.9207,0.3665 2.0333,0.319 1.4483,-1.1731 0.2971,-0.2312 0.2936,-0.2203 0.2937,-0.2088 0.2925,-0.2002 0.2936,-0.1897 0.2913,-0.1791 0.2901,-0.169 0.2878,-0.1577 0.2902,-0.1494 0.2865,-0.1376 0.2867,-0.127 0.2854,-0.118 0.2878,-0.1086 0.2855,-0.097 0.2842,-0.087 0.2831,-0.077 0.2843,-0.067 0.2878,-0.058 0.2878,-0.049 0.2878,-0.037 0.2913,-0.028 0.2936,-0.018 0.296,-0.01 h 0.2971 l 0.3042,0.013 0.3101,0.024 0.3123,0.035 0.3158,0.047 0.3241,0.059 0.3311,0.072 1.3653,0.3409 1.6308,-0.6128 1.0072,-0.7536 0.7335,-1.0899 0.324,-1.1246 0.035,-0.9272 -0.086,-0.7055 -0.1264,-0.5399 -0.5229,-1.7451 -1.5478,-0.8116 -0.1602,-0.099 -0.1217,-0.089 -0.093,-0.079 -0.066,-0.067 -0.051,-0.058 -0.041,-0.058 -0.04,-0.066 -0.038,-0.076 -0.04,-0.092 -0.04,-0.1125 -0.041,-0.1403 -0.041,-0.1685 -0.038,-0.1942 -0.037,-0.2199 -0.055,-0.3989 -0.1076,-0.516 -0.066,-0.3591 -0.057,-0.3662 -0.051,-0.3731 -0.044,-0.3767 -0.036,-0.3814 -0.029,-0.3873 -0.022,-0.3919 -0.016,-0.3977 -0.01,-0.4013 v -0.4048 -0.4129 l 0.01,-0.4165 0.01,-0.42 0.016,-0.4223 0.02,-0.4294 0.023,-0.4328 0.027,-0.4352 0.031,-0.4376 0.034,-0.4433 0.033,-0.4469 0.037,-0.4492 0.037,-0.4516 0.038,-0.4563 0.038,-0.4585 0.04,-0.4599 0.037,-0.4632 0.037,-0.4668 0.035,-0.4691 0.034,-0.4703 0.03,-0.4726 0.04,-0.6586 -0.022,-0.3779 v -0.014 -0.01 l 0.01,-0.013 0.01,-0.026 0.023,-0.043 0.037,-0.062 0.055,-0.082 0.076,-0.099 0.098,-0.1147 0.1229,-0.1299 0.1451,-0.1427 0.1672,-0.1521 0.1896,-0.1614 2.3491,-1.9046 -1.2752,-2.6357 -0.1064,-0.2328 -0.2141,-0.4188 -0.3732,-0.5756 -0.5873,-0.6352 -0.785,-0.5522 -0.8868,-0.365 -1.4517,-0.282 -1.1301,0.3674 -0.2995,0.093 -0.2972,0.082 -0.2994,0.077 -0.2972,0.069 -0.296,0.064 -0.2959,0.056 -0.2995,0.05 -0.2995,0.045 -0.296,0.037 -0.2972,0.032 -0.2971,0.026 -0.3007,0.019 -0.3007,0.015 -0.2971,0.01 h -0.3018 -0.3042 l -0.3018,-0.01 -0.303,-0.013 -0.3065,-0.018 -0.3065,-0.023 -0.3042,-0.028 -0.3077,-0.033 -0.31,-0.038 -0.3124,-0.043 -0.3111,-0.047 -0.3136,-0.052 -0.3135,-0.056 -0.3159,-0.061 -0.3146,-0.065 -0.3182,-0.069 -1.219,-0.2831 -1.2869,0.4282 -0.6153,0.2796 -0.6809,0.4399 -0.6832,0.6586 -0.5745,0.888 -0.3474,1.0189 -0.1053,1.0109 0.22,2.583 1.9735,0.9932 0.2726,0.1404 0.2515,0.1345 0.234,0.131 0.2141,0.1287 0.1942,0.124 0.1778,0.124 0.1568,0.1182 0.138,0.117 0.1252,0.1158 0.1123,0.117 0.1006,0.1182 0.091,0.1204 0.038,0.5288 0.06,0.7007 0.067,0.7149 0.069,0.7311 0.075,0.744 0.075,0.7558 0.072,0.7639 0.068,0.7722 0.063,0.7732 0.055,0.778 0.045,0.7732 0.034,0.7675 0.02,0.7604 0.01,0.7476 -0.013,0.7311 -0.03,0.7125 -0.052,0.6879 -0.071,0.6622 -0.09,0.6293 -0.1135,0.5934 -0.1334,0.5561 -0.152,0.5133 -0.1696,0.467 -0.1872,0.4205 -0.2001,0.3755 -0.214,0.3317 -0.2247,0.2903 -0.2422,0.2568 -0.262,0.2289 -0.2901,0.2057 -2.4427,1.3791 0.3486,2.854 0.1684,0.7324 0.2867,0.7701 0.4516,0.7787 0.6481,0.7339 z m -9.9571,-33.1243 -0.2082,0.1229 -0.2036,0.11 -0.1976,0.098 -0.1908,0.084 -0.1766,0.066 -0.1684,0.053 -0.1568,0.038 -0.1451,0.026 -0.1322,0.013 h -0.1251 l -0.061,-0.01 -0.1696,-0.033 -0.3065,-0.074 -0.317,-0.089 -0.3288,-0.1006 -0.3416,-0.1147 -0.3557,-0.1275 -0.372,-0.1381 -0.3907,-0.1462 -0.4095,-0.1544 -0.4258,-0.1591 -0.448,-0.158 -0.4715,-0.1591 -0.4948,-0.1532 -0.5171,-0.1439 -0.5417,-0.1298 -0.7675,-0.1533 -0.7955,-0.02 -0.5275,-0.012 -0.53,-0.01 h -0.5299 -0.5335 l -0.5335,0.01 -0.5334,0.019 -0.5358,0.029 -0.5394,0.038 -0.5381,0.05 -0.5382,0.061 -0.5416,0.079 -0.5428,0.093 -0.5417,0.1077 -0.5428,0.1274 -0.5428,0.1474 -0.544,0.1685 -0.5393,0.1895 -0.5382,0.2129 -0.5346,0.2399 -0.53,0.2655 -0.5229,0.2901 -0.5159,0.3182 -0.5065,0.3463 -0.496,0.3756 -0.4844,0.4012 -0.4738,0.4305 -0.4574,0.4586 -0.4445,0.4844 -0.4294,0.5112 -0.4142,0.5393 -0.4983,0.7078 -0.2902,0.5662 -0.1871,0.3908 -0.1813,0.3977 -0.1697,0.4013 -0.1615,0.4071 -0.1497,0.4094 -0.1427,0.4154 -0.131,0.4199 -0.1241,0.4247 -0.1123,0.4305 -0.104,0.434 -0.093,0.4375 -0.083,0.4399 -0.072,0.4446 -0.065,0.4528 -0.052,0.4503 -0.043,0.4539 -0.034,0.461 -0.022,0.4632 -0.013,0.4656 v 0.468 l 0.01,0.4726 0.016,0.4762 0.027,0.4761 0.036,0.482 0.047,0.4855 0.056,0.4878 0.066,0.4879 0.076,0.4948 0.085,0.496 0.095,0.4984 0.1497,0.7183 0.358,0.9804 0.094,0.2316 -0.4293,-0.7545 -0.4575,-0.8353 -0.4165,-0.7979 -0.3813,-0.7627 -0.3475,-0.7289 -0.3135,-0.6973 -0.2831,-0.6656 -0.255,-0.6411 -0.2297,-0.613 -0.2057,-0.5908 -0.1836,-0.5673 -0.1646,-0.5534 -0.148,-0.5346 -0.1316,-0.523 -0.1184,-0.5112 -0.107,-0.5054 -0.097,-0.5019 -0.09,-0.4984 -0.083,-0.4995 -0.079,-0.5042 -0.076,-0.5112 -0.074,-0.5171 -0.076,-0.5288 -0.079,-0.5405 -0.083,-0.5534 -0.089,-0.5638 -0.099,-0.5826 -0.1796,-0.9862 -0.5722,-1.2705 -0.6,-0.9569 -0.7691,-0.8447 -0.9181,-0.6528 -0.9446,-0.3966 -0.8161,-0.1778 -0.5992,-0.058 -0.6301,-0.035 -0.7604,0.062 -0.5348,0.041 -0.5315,0.038 -0.5304,0.035 -0.5296,0.032 -0.5265,0.029 -0.5241,0.024 -0.5233,0.022 -0.5214,0.016 -0.5178,0.012 -0.5164,0.01 h -0.5149 -0.5119 l -0.5096,-0.01 -0.509,-0.016 -0.5087,-0.022 -0.5049,-0.029 -0.5018,-0.036 -0.5013,-0.043 -0.4999,-0.05 -0.4981,-0.057 -0.4949,-0.066 -0.4935,-0.074 -0.4936,-0.083 -0.4922,-0.092 -0.4895,-0.099 -0.4894,-0.1099 -0.4876,-0.1194 -0.4871,-0.1286 -0.4849,-0.1392 -0.4843,-0.1498 -2.1895,-0.7253 -1.7296,1.3922 -0.4401,0.4105 -0.456,0.523 -0.447,0.6786 -0.3692,0.8691 -0.1947,1.0237 0.05,1.074 0.5059,1.8261 1.296,0.9324 0.3697,0.2527 0.3757,0.2468 0.3774,0.234 0.3825,0.2282 0.3857,0.2199 0.3898,0.2129 0.3931,0.2059 0.3965,0.2 0.3985,0.1919 0.2359,0.11 -0.5434,0.1953 -0.7312,0.4482 -0.6045,0.5439 -0.49,0.6013 -0.3917,0.6388 -0.3121,0.6679 -0.2481,0.6996 -0.1704,0.6388 -0.092,0.3673 -0.079,0.2656 -0.094,0.2691 -0.1074,0.2784 -0.1211,0.2842 -0.1343,0.289 -0.1462,0.2948 -0.1609,0.3031 -0.1732,0.3112 -0.1818,0.3135 -0.1929,0.3217 -0.2025,0.3299 -0.2106,0.338 -0.2153,0.3428 -0.2217,0.3498 -0.2275,0.3626 -0.2299,0.3722 -0.2289,0.3801 -0.2295,0.3919 -0.2275,0.4048 -0.2243,0.4212 -0.2175,0.4329 -0.2088,0.4492 -0.1956,0.462 -0.124,-0.2924 -0.4013,-0.9266 -0.4034,-0.9137 -0.4054,-0.9019 -0.4061,-0.8856 -0.4077,-0.8727 -0.4071,-0.8563 -0.4073,-0.8412 -0.4049,-0.8225 -0.403,-0.806 -0.4009,-0.7873 -0.3984,-0.7663 -0.3934,-0.7476 -0.3894,-0.7252 -0.3847,-0.7055 -0.1349,-0.241 -0.032,-0.1556 -0.052,-0.2925 -0.045,-0.3029 -0.04,-0.3147 -0.036,-0.3275 -0.031,-0.3382 -0.026,-0.3497 -0.022,-0.3604 -0.022,-0.3766 -0.02,-0.3862 -0.02,-0.3942 -0.02,-0.4059 -0.022,-0.4212 -0.023,-0.4282 -0.016,-0.241 0.025,-0.6141 -0.049,-0.9781 -0.2531,-1.1898 -0.7427,-1.3932 -1.4075,-1.0974 -1.5788,-0.3615 -1.3102,0.1147 -0.9944,0.2796 -0.1924,0.063 -0.055,0.014 -0.062,0.013 -0.07,0.011 -0.081,0.01 -0.087,0.01 h -0.098 -0.1119 -0.1211 l -0.127,-0.01 -0.1385,-0.014 -0.1504,-0.016 -0.1589,-0.023 -0.1688,-0.025 -0.1763,-0.029 -0.2038,-0.037 -0.6536,-0.1122 -0.6379,-0.099 -0.6046,-0.083 -0.578,-0.07 -0.5535,-0.058 -0.5305,-0.048 -0.5114,-0.041 -0.4944,-0.035 -0.4813,-0.03 -0.471,-0.029 -0.4644,-0.027 -0.4652,-0.032 -0.4707,-0.034 -0.4826,-0.038 -0.4989,-0.047 -1.0991,-0.1159 -1.4029,0.3394 -1.0895,0.7826 -0.691,0.8048 -0.5068,0.8716 -0.366,1.0447 -0.138,1.3711 0.452,1.7442 1.1035,1.1875 0.6238,0.3849 0.2327,0.145 0.2304,0.1452 0.2297,0.1473 0.2294,0.1486 0.2277,0.1497 0.2257,0.1498 0.2257,0.1509 0.2244,0.1521 0.2216,0.1532 0.2221,0.1544 0.2221,0.1568 0.2207,0.1568 0.218,0.1567 0.1261,0.093 0.054,0.072 0.057,0.085 0.049,0.081 0.042,0.08 0.036,0.074 0.031,0.077 0.028,0.081 0.023,0.083 0.01,0.026 -0.057,0.088 -0.2157,0.3287 -0.2134,0.324 -0.2097,0.3159 -0.2084,0.3077 -0.2085,0.303 -0.2055,0.2925 -0.2048,0.2842 -0.2043,0.2738 -0.2043,0.2656 -0.2019,0.255 -0.2016,0.2421 -0.2006,0.2305 -0.201,0.2211 -0.1042,0.1065 -0.1371,0.138 -0.1988,0.2035 -0.2728,0.3042 -0.3222,0.4364 -0.3236,0.5826 -0.2522,0.7066 -0.018,0.1006 -0.044,-0.01 -1.1101,0.03 -1.2401,0.4422 -0.9438,0.8014 -0.053,-0.094 -0.4168,-0.7335 -0.4264,-0.7511 -0.4337,-0.7674 -0.4409,-0.7792 -0.447,-0.7873 -0.4505,-0.792 -0.4548,-0.7932 -0.4573,-0.792 -0.4584,-0.7861 -0.4588,-0.778 -0.4589,-0.7662 -0.4569,-0.7499 -0.4552,-0.7336 -0.452,-0.7124 -0.4497,-0.6902 -0.4464,-0.6645 -0.4437,-0.6352 -0.4423,-0.6072 -0.4428,-0.5756 -0.4457,-0.5452 -0.4532,-0.5136 -0.4735,-0.4866 -0.5114,-0.4633 -0.5738,-0.4375 -0.6906,-0.4072 -0.8742,-0.338 -0.7572,-0.1065 -0.5512,-0.028 c -3.8327,0.3345 -7.6526,0.2468 -11.4891,-0.1054 l -0.7928,0.021 -1.0629,0.2809 -0.9081,0.5159 -0.6648,0.5288 -0.5489,0.5428 -0.4802,0.5744 -0.4428,0.6527 -0.4462,0.9079 -0.8203,4.1929 3.9563,0.5837 0.3852,0.075 0.3335,0.083 0.2757,0.088 0.2169,0.088 0.1568,0.08 0.1005,0.063 0.053,0.043 0.021,0.022 0.01,0.01 0.01,0.017 0.019,0.047 0.027,0.1041 0.025,0.1814 0.011,0.2702 -0.01,0.1206 -0.069,0.2538 -0.1631,0.5615 -0.1618,0.5265 -0.1604,0.4913 -0.1582,0.4586 -0.1553,0.4246 -0.1544,0.3966 -0.1532,0.3721 -0.1493,0.345 -0.1472,0.3195 -0.1458,0.3006 -0.1467,0.2855 -0.1448,0.269 -0.1431,0.2527 -0.1458,0.2445 -0.9483,1.5338 0.5101,1.9021 -0.066,0.029 -1.1456,1.2307 -0.4218,1.3137 -0.1887,0.5792 -0.1897,0.5773 -0.1901,0.5746 -0.1909,0.5725 -0.1935,0.5703 -0.1918,0.5676 -0.1947,0.567 -0.1938,0.5645 -0.1952,0.5603 -0.1959,0.5593 -0.1975,0.5589 -0.197,0.5556 -0.1978,0.5535 -0.1988,0.5519 -0.2002,0.5507 -0.2011,0.5503 -0.2005,0.5469 -0.2015,0.5457 -0.2021,0.5433 -0.2033,0.5438 -0.2034,0.5403 -0.2043,0.5406 -0.2056,0.5387 -0.2056,0.5393 -0.2062,0.536 -0.2065,0.5346 -0.2074,0.5347 -0.207,0.5334 -0.2089,0.5318 -0.2084,0.532 -0.1014,0.2568 -0.2083,0.3418 -0.3616,0.595 -0.3565,0.5812 -0.3554,0.5653 -0.356,0.5466 -0.3602,0.526 -0.3651,0.504 -0.3743,0.48 -0.3838,0.4545 -0.3944,0.4264 -0.41,0.4004 -0.4286,0.3738 -0.451,0.3491 -0.4767,0.3221 -0.5095,0.2985 -1.6332,0.8116 -0.9172,1.8005 -0.2376,1.3317 0.1064,1.2552 0.4004,1.1653 0.7197,1.0818 1.1406,0.9208 1.5908,0.488 1.8649,-0.2741 0.9469,-0.7161 0.2477,-0.1778 0.2523,-0.1723 0.2554,-0.165 0.2615,-0.1576 0.2682,-0.1545 0.2751,-0.1468 0.2796,-0.1402 0.2871,-0.1338 0.295,-0.1294 0.3031,-0.123 0.3112,-0.1155 0.3176,-0.1092 0.3281,-0.1029 0.3381,-0.096 0.3447,-0.089 0.3551,-0.081 0.3682,-0.075 0.3794,-0.066 0.387,-0.058 0.3999,-0.051 0.4122,-0.042 0.4222,-0.033 0.4351,-0.024 0.4474,-0.015 h 0.4592 0.4743 l 0.4854,0.015 0.4994,0.025 0.5137,0.035 0.5255,0.047 1.2078,0.1297 1.7928,-0.5305 1.2826,-1.3733 0.5461,-1.3791 0.14,-1.248 -0.1321,-1.2111 -0.4583,-1.2691 -0.9885,-1.2904 -1.4505,-0.776 -0.1887,-0.028 v -0.03 l -0.019,-0.4122 -0.01,-0.4209 0.01,-0.4309 0.023,-0.4414 0.036,-0.4497 0.051,-0.4593 0.065,-0.4721 0.081,-0.4812 0.095,-0.4898 0.1094,-0.5005 0.1246,-0.5118 0.1399,-0.5205 0.1545,-0.5291 0.1705,-0.5393 0.1855,-0.5493 0.2006,-0.5583 0.2161,-0.5686 0.2308,-0.5749 0.2467,-0.5854 0.262,-0.5959 0.2755,-0.6018 0.2911,-0.6106 0.3067,-0.6205 0.3203,-0.6275 0.3344,-0.6355 0.3496,-0.6435 0.3643,-0.6522 0.3774,-0.6598 0.4634,-0.7893 0.5494,-1.11 -0.094,-1.7676 -0.2444,-0.5479 0.1535,-0.07 0.9789,-0.8423 0.403,-0.633 0.1184,-0.1625 0.1993,-0.2936 0.1905,-0.2961 0.1805,-0.3007 0.1732,-0.3053 v -0.01 l 0.3355,0.297 0.5305,0.5558 0.5566,0.668 0.5707,0.7697 0.5782,0.8671 0.5784,0.9515 0.5768,1.0314 0.5693,1.0987 0.5594,1.1583 0.5471,1.2092 0.5337,1.2535 0.5182,1.2878 0.5009,1.3161 0.4825,1.3353 0.4638,1.3466 0.4429,1.3504 0.4218,1.3477 0.3989,1.3363 0.3751,1.3178 0.3515,1.2911 0.3263,1.2576 0.2998,1.216 0.2741,1.1671 0.2455,1.1086 0.2174,1.0443 0.1879,0.9706 0.1573,0.886 0.1256,0.7929 0.094,0.6832 0.069,0.6333 0.09,0.7842 0.3433,1.0567 0.572,0.9793 0.836,0.8632 1.1519,0.6562 1.4459,0.2555 1.515,-0.3327 0.9715,-0.6713 0.6229,-0.5717 0.4515,-0.4154 0.4523,-0.415 0.4511,-0.4152 0.4519,-0.416 0.4521,-0.4149 0.4524,-0.4155 0.451,-0.4159 0.4523,-0.4148 0.4516,-0.4154 0.4524,-0.4155 0.4515,-0.4149 0.4524,-0.4154 0.452,-0.4163 0.4523,-0.4163 0.3583,-0.3299 0.4118,-0.3241 0.5831,-0.5958 0.4858,-0.6539 0.3706,-0.6695 0.2623,-0.6406 0.1741,-0.5797 0.1102,-0.4889 0.2426,-1.3098 -0.4758,-1.31 -0.164,-0.4374 -0.1681,-0.4372 -0.1733,-0.437 -0.1773,-0.4349 -0.1819,-0.4365 -0.1868,-0.4383 -0.1906,-0.4359 -0.1937,-0.4346 -0.1988,-0.4365 -0.203,-0.4363 -0.2074,-0.437 -0.2107,-0.4363 -0.2148,-0.4365 -0.2184,-0.4355 -0.2016,-0.3975 -0.2009,-0.4136 -0.1523,-0.3524 -0.1243,-0.3289 -0.1,-0.3071 -0.077,-0.2848 -0.057,-0.2714 -0.042,-0.2623 -0.028,-0.2505 -0.013,-0.2421 v -0.245 l 0.01,-0.2508 0.022,-0.2541 0.033,-0.2611 0.045,-0.2759 0.057,-0.2915 0.067,-0.303 0.08,-0.3136 0.091,-0.3354 0.1024,-0.355 0.1092,-0.3694 0.1175,-0.3859 0.1234,-0.4069 0.1279,-0.4258 0.1285,-0.4442 0.1297,-0.4634 0.1275,-0.4866 0.122,-0.505 0.1148,-0.5256 0.105,-0.5484 0.094,-0.5689 0.078,-0.5895 0.018,-0.1822 0.7637,0.025 0.8893,-0.1868 0.3212,-0.1431 0.1567,0.2513 0.2514,0.4109 0.2499,0.4168 0.2487,0.4231 0.2468,0.4291 0.244,0.4328 0.2417,0.4401 0.2404,0.4441 0.2381,0.4506 0.2363,0.4565 0.234,0.4616 0.2316,0.4679 0.2299,0.4726 0.2261,0.4785 0.2263,0.4853 0.2229,0.4907 0.2218,0.4981 0.2189,0.5032 0.2164,0.5077 0.2131,0.514 0.213,0.522 0.2092,0.5269 0.207,0.5324 0.2048,0.5406 0.2033,0.5456 0.2002,0.5525 0.1978,0.5584 0.1956,0.5648 0.1934,0.5713 0.1896,0.5776 0.1883,0.584 0.1362,0.4342 0.066,0.3207 0.088,0.4589 0.077,0.4363 0.064,0.4132 0.05,0.3849 0.034,0.3521 0.019,0.3182 v 0.2774 l -0.01,0.2326 -0.019,0.1796 -0.021,0.1279 -0.015,0.056 -0.046,0.043 -0.2217,0.2083 -0.2184,0.203 -0.2143,0.1969 -0.213,0.1924 -0.2107,0.1861 -0.2015,0.1762 -0.2024,0.171 -0.2007,0.1663 -0.1923,0.1545 -0.187,0.1449 -0.1827,0.1366 -0.1773,0.127 -0.1695,0.1161 -0.1587,0.1033 -1.4152,0.8596 -0.4699,2.1076 -0.069,1.0053 0.1764,1.1956 0.6023,1.2648 1.0319,0.9995 1.1548,0.5318 1.0446,0.1787 1.7649,-0.03 1.0438,-0.7993 0.1525,-0.1102 0.1604,-0.1082 0.1651,-0.1051 0.175,-0.1042 0.1864,-0.1046 0.1938,-0.1011 0.1997,-0.099 0.2083,-0.096 0.2208,-0.095 0.2294,-0.094 0.2376,-0.09 0.2486,-0.086 0.2592,-0.085 0.2663,-0.081 0.1376,-0.039 0.1134,-0.019 0.2719,-0.043 0.2724,-0.04 0.2658,-0.037 0.2627,-0.035 0.2652,-0.032 0.2641,-0.03 0.2563,-0.027 0.2578,-0.023 0.2582,-0.023 0.2578,-0.02 0.2554,-0.018 0.2541,-0.016 0.255,-0.015 0.2531,-0.012 0.2496,-0.01 0.2504,-0.01 0.2536,-0.01 0.2527,-0.01 h 0.2523 0.2504 l 0.25,-4e-4 0.2531,4e-4 h 0.2505 0.2513 0.2536 l 0.2541,0.01 0.2527,0.01 0.2541,0.01 0.2559,0.01 0.3313,0.011 0.2239,0.034 0.3962,0.064 0.3907,0.066 0.3853,0.07 0.3834,0.075 0.3797,0.08 0.3756,0.085 0.3721,0.089 0.3692,0.097 0.3669,0.1033 0.3657,0.1097 0.36,0.1166 0.3597,0.1247 0.3573,0.1325 0.3551,0.1408 0.7308,0.3103 1.1419,0.2011 1.1292,-0.038 1.1795,-0.3336 1.1658,-0.7407 0.9505,-1.228 0.4383,-1.5648 -0.1417,-1.523 -0.6361,-1.5049 -1.0543,-1.0382 -0.6484,-0.5745 -0.6375,-0.5172 -0.6188,-0.4707 -0.5931,-0.4319 -0.5595,-0.4003 -0.5204,-0.3742 -0.477,-0.3543 -0.4278,-0.3372 -0.3775,-0.3226 -0.3253,-0.3103 -0.2765,-0.3012 -0.2322,-0.2956 -0.1946,-0.3003 -0.1673,-0.3184 -0.1184,-0.2925 -0.1919,-0.7604 -0.2705,-1.0141 -0.2833,-1.014 -0.2961,-1.0141 -0.3076,-1.0131 -0.3195,-1.0104 -0.068,-0.2093 0.095,0.022 0.6671,0.01 0.3227,4e-4 h 0.3162 0.3117 l 0.3131,-0.01 0.3121,-0.01 0.3124,-0.01 0.3126,-0.01 0.314,-0.01 0.3203,-0.01 0.3281,-0.01 0.3318,-0.01 0.3386,-0.01 h 0.351 0.3638 0.4359 l 0.653,-0.021 0.7111,-0.084 0.7129,-0.1591 0.7014,-0.2495 0.6737,-0.345 0.6114,-0.4318 0.5232,-0.484 0.4236,-0.4995 0.3377,-0.4825 0.2712,-0.4552 0.2219,-0.419 0.1875,-0.3812 0.169,-0.3531 0.1609,-0.3337 0.1599,-0.3162 0.1558,-0.292 0.1393,-0.2331 0.088,-0.1262 0.054,-0.066 0.05,-0.052 0.092,-0.079 0.1745,-0.1304 0.2752,-0.1887 1.5449,-1.0145 0.3524,-1.663 0.066,-0.3581 0.024,-0.1578 0.021,0.3953 0.02,0.4219 0.017,0.4162 0.014,0.4113 0.011,0.4071 0.01,0.4004 0.01,0.3971 0.01,0.3935 v 0.3907 0.8376 l 0.2614,1.0055 0.2792,0.7228 0.4013,0.7161 0.5392,0.6599 0.6466,0.5415 0.6736,0.3748 0.605,0.2193 1.2207,0.2857 1.0423,-0.3199 0.1956,-0.058 0.1924,-0.056 0.1897,-0.052 0.1864,-0.049 0.1846,-0.045 0.1824,-0.041 0.1841,-0.038 0.1815,-0.035 0.1873,-0.031 0.191,-0.027 0.192,-0.024 0.1959,-0.02 0.2044,-0.016 0.2079,-0.011 0.2157,-0.01 h 0.2245 l 0.2356,0.01 0.2436,0.01 0.2532,0.017 0.2664,0.023 0.2802,0.031 0.2924,0.038 0.3011,0.046 0.3176,0.056 0.3351,0.065 0.3481,0.075 0.3625,0.084 0.3774,0.097 0.3972,0.1069 0.4121,0.1198 0.7183,0.2189 0.7862,0.098 0.8329,-0.021 1.019,-0.2523 1.0879,-0.653 0.847,-1.0437 0.4294,-1.1431 0.1135,-1.0103 -0.08,-1.3056 0.3814,0.4365 0.5861,0.6073 0.6201,0.5771 0.6504,0.5466 0.6809,0.5141 0.7124,0.4812 0.7406,0.4483 0.4235,0.229 0.1614,0.1307 0.5065,0.3582 0.5241,0.3221 0.5382,0.2815 0.5521,0.2436 0.5639,0.2047 0.5698,0.1659 0.572,0.1262 0.5756,0.092 0.5768,0.056 0.5732,0.023 0.572,-0.01 0.5663,-0.035 0.5615,-0.062 0.5592,-0.086 0.9265,-0.1829 0.6715,-0.3363 0.2364,-0.1069 0.2586,-0.1046 0.2807,-0.1033 0.2983,-0.099 0.3171,-0.095 0.3333,-0.091 0.344,-0.084 0.3533,-0.078 0.3662,-0.073 0.3685,-0.066 0.3732,-0.059 0.3755,-0.053 0.3743,-0.047 0.3756,-0.039 0.3276,-0.031 0.3006,-0.013 0.2176,0.01 0.1814,0.019 0.1497,0.028 0.1334,0.037 0.1287,0.047 0.131,0.06 0.138,0.077 0.1545,0.102 0.1778,0.1333 0.1953,0.166 0.2165,0.1996 0.2363,0.2373 0.2574,0.2736 0.2761,0.3104 0.7053,0.818 1.0073,0.5525 0.7605,0.2587 0.751,0.1215 h 0.6914 l 0.6095,-0.077 0.5182,-0.122 0.4294,-0.1361 3.4044,-1.2732 -1.2635,-3.6252 -0.117,-0.3752 -0.098,-0.3529 -0.079,-0.3377 -0.065,-0.3198 -0.047,-0.2994 -0.033,-0.28 -0.019,-0.2642 -0.01,-0.2445 0.01,-0.2271 0.015,-0.2102 0.024,-0.1971 0.033,-0.185 0.04,-0.1713 0.048,-0.1632 0.056,-0.1572 0.064,-0.1503 0.071,-0.1472 0.079,-0.1434 0.092,-0.1445 0.1029,-0.1448 0.1158,-0.1458 0.1287,-0.1471 0.1439,-0.1495 0.1602,-0.1499 0.1779,-0.1526 0.1942,-0.1536 0.2129,-0.1544 0.2305,-0.1527 0.2515,-0.1535 0.269,-0.1536 1.7782,-0.9335 0.4259,-2.3234 -0.01,-1.0401 -0.255,-1.0833 -0.5194,-0.9955 -0.6879,-0.7721 -0.7265,-0.5358 -0.6938,-0.351 -1.2049,-0.4328 -1.0623,0.1216 -0.3088,0.034 -0.3076,0.033 -0.3089,0.032 -0.3088,0.03 -0.3065,0.028 -0.3054,0.027 -0.3053,0.025 -0.3089,0.024 -0.1871,0.013 1.3722,-0.9675 0.3486,-1.784 0.085,-0.4048 0.088,-0.393 0.094,-0.3803 0.099,-0.3685 0.1053,-0.3568 0.1134,-0.3427 0.1206,-0.3323 0.1321,-0.3229 0.1404,-0.3147 0.151,-0.3042 0.1638,-0.2983 0.1789,-0.2925 0.1942,-0.2889 0.2141,-0.2867 1.3184,-1.6108 -0.4188,-2.0754 -0.1415,-0.5686 -0.2071,-0.6305 -0.3042,-0.6903 -0.4398,-0.7206 -0.6048,-0.7078 -0.771,-0.6153 -2.3456,-1.2167 -1.832,1.2693 -0.2246,0.1556 -0.2212,0.1498 -0.2176,0.1427 -0.2152,0.1345 z m -1.6776,14.5167 -0.241,-0.011 -0.2994,-0.017 -0.2995,-0.019 -0.3006,-0.022 -0.2984,-0.025 -0.2983,-0.028 -1.2015,-0.1263 -1.2552,0.5826 -0.6142,0.4094 -0.5416,0.502 -0.4411,0.558 -0.337,0.5791 -0.2386,0.565 -0.1638,0.5358 -0.7756,3.6828 -0.1544,-0.03 -0.2199,-0.048 -0.2118,-0.054 -0.2047,-0.056 -0.1978,-0.061 -0.1883,-0.066 -0.1837,-0.07 -0.1742,-0.072 -0.165,-0.075 -0.1626,-0.082 -0.1544,-0.084 -0.144,-0.085 -0.1368,-0.089 -0.1334,-0.095 -0.1263,-0.097 -0.1182,-0.098 -0.1147,-0.1041 -0.092,-0.09 -0.1731,-0.1929 -0.1532,-0.1978 -0.1533,-0.2257 -0.1509,-0.2586 -0.1451,-0.2855 -0.138,-0.3135 -0.1299,-0.3393 -0.117,-0.3637 -0.1064,-0.385 -0.09,-0.4001 -0.076,-0.4164 -0.061,-0.4317 -0.043,-0.4422 -0.027,-0.4481 -0.01,-0.455 0.01,-0.5113 0.01,-0.2551 0.014,-0.207 0.023,-0.2141 0.03,-0.2223 0.04,-0.2269 0.05,-0.2305 0.057,-0.2363 0.068,-0.2398 0.076,-0.241 0.083,-0.2422 0.091,-0.2409 0.1006,-0.241 0.1088,-0.241 0.1158,-0.2387 0.1229,-0.2352 0.1286,-0.2316 0.1369,-0.227 0.1416,-0.2222 0.1462,-0.2153 0.1509,-0.2094 0.1568,-0.2024 0.1602,-0.1942 0.1627,-0.186 0.1649,-0.1754 0.165,-0.1662 0.1684,-0.1567 0.1708,-0.1474 0.1673,-0.1346 0.1661,-0.124 0.05,-0.034 0.1954,-0.018 0.3088,-0.02 0.3299,-0.01 h 0.3499 l 0.3637,0.01 0.3744,0.014 0.3779,0.023 0.3849,0.035 0.386,0.045 0.3814,0.056 0.3756,0.064 0.3673,0.076 0.3557,0.085 0.3754,0.1053 0.4844,0.1415 0.4679,0.1369 0.3978,0.1205 0.3124,0.1053 0.1333,0.053 v 0.172 l -0.032,0.4329 -0.3732,2.6029 1.7665,1.467 0.4422,0.3054 z m -45.6494,-3.3294 0.069,0.02 0.4291,0.1229 0.4263,0.1193 0.4255,0.117 0.4272,0.117 0.2081,0.055 0.02,0.031 0.083,0.1357 0.097,0.1697 0.1027,0.1965 0.1088,0.2211 0.112,0.2446 0.1179,0.269 0.1189,0.2902 0.1206,0.3052 0.121,0.3253 0.123,0.3439 0.1243,0.3603 0.1247,0.3744 0.1243,0.3884 0.1251,0.4013 0.1254,0.4129 0.015,0.052 -0.3395,-0.3907 -0.6695,-0.5416 -0.6489,-0.351 -0.6417,-0.2176 -0.5962,-0.1065 -0.3602,-0.018 0.035,-0.1801 0.06,-0.9091 -0.086,-0.9487 -0.2678,-0.9558 -0.2358,-0.4527"
         style="fill:#000000;fill-opacity:1;stroke-width:0.323002" />
      <path
         id="path22718"
         stroke-linejoin="miter"
         style="display:inline;stroke-dasharray:none"
         d="m 2667.2198,-2542.457 v -0.2311 l 0.01,-0.2194 0.016,-0.2087 0.023,-0.2016 0.028,-0.1885 0.035,-0.1803 0.039,-0.1683 0.044,-0.1565 v 0 l 0.1235,-0.2502 0.2066,-0.3973 0.1985,-0.3604 0.1916,-0.3248 0.1835,-0.2905 0.1742,-0.2573 0.1662,-0.2242 0.1558,-0.1932 0.1466,-0.1648 0.1385,-0.1399 0.1304,-0.1186 0.1234,-0.1 0.1201,-0.085 0.1223,-0.077 0.1269,-0.067 0.1351,-0.063 0.1511,-0.059 0.1708,-0.056 0.1916,-0.052 0.217,-0.048 0.2447,-0.041 0.2769,-0.036 0.3059,-0.028 0.3358,-0.02 0.3658,-0.01 h 0.3994 l 0.4315,0.01 0.4606,0.015 0.4916,0.023 0.525,0.033 0.065,0.01 0.023,0.1684 0.017,0.2443 0.01,0.288 -0.01,0.3297 -0.021,0.364 -0.037,0.3984 -0.2078,1.756 1.2742,1.8675 1.2821,0.7529 1.1172,0.2501 0.9774,-0.015 0.9198,-0.2004 0.9313,-0.4162 0.9417,-0.7315 1.0387,-1.5059 0.026,-1.52 0.023,-0.3664 0.038,-0.3356 0.05,-0.3047 0.061,-0.2715 0.07,-0.2407 0.079,-0.2146 0.088,-0.1944 0.093,-0.1719 0.099,-0.1566 0.1108,-0.1482 0.1234,-0.1399 0.1397,-0.1375 0.1616,-0.1364 0.1892,-0.1364 1.9619,-1.2164 -0.065,-2.4639 -0.073,-0.6261 -0.1258,-0.6035 -0.1754,-0.5751 -0.2193,-0.5394 -0.255,-0.5016 -0.2827,-0.4589 -0.3105,-0.4244 -0.3312,-0.3854 -0.3428,-0.3438 -0.3577,-0.3095 -0.3717,-0.2787 -0.3842,-0.2454 -0.3982,-0.2158 -0.419,-0.1838 -2.6658,-0.913 -1.5799,2.3881 -0.1085,0.1458 -0.084,0.1 -0.01,0.01 h -0.028 l -0.1189,-0.021 -0.2574,-0.1042 -0.5262,-0.2087 -0.5332,-0.2039 -0.5447,-0.1993 -0.5527,-0.1908 -0.5586,-0.1826 -0.569,-0.1744 -0.5781,-0.1636 -0.5886,-0.1482 -0.5955,-0.1364 -0.6048,-0.1185 -0.6139,-0.1032 -0.622,-0.083 -0.6302,-0.063 -0.6393,-0.04 -0.6497,-0.017 -0.6567,0.01 -0.6612,0.038 -0.6671,0.067 -0.6728,0.097 -0.6774,0.1317 -0.6787,0.1624 -0.6785,0.198 -0.6809,0.2324 -0.6797,0.2704 -0.6752,0.3058 -0.6751,0.3427 -0.6694,0.3795 -0.6646,0.4196 -0.659,0.4542 -0.652,0.4932 -0.6741,0.5537 -0.6878,0.6368 -0.6555,0.7161 -0.5955,0.7601 -0.5332,0.7944 -0.4765,0.8276 -0.4189,0.8536 -0.3659,0.8775 -0.3139,0.894 -0.2655,0.9106 -0.2157,0.9249 -0.1708,0.9343 -0.1247,0.9426 -0.081,0.9473 -0.037,0.9533 v 0.9546 l 0.049,0.9496 0.088,0.9498 0.1316,0.9438 0.1731,0.9367 0.2146,0.926 0.2574,0.9142 0.3024,0.8992 0.3461,0.883 0.3925,0.8604 0.4362,0.8386 0.487,0.8125 0.5366,0.7838 0.5886,0.7466 0.6405,0.7075 0.6947,0.6626 0.7514,0.6123 0.907,0.6224 0.7779,0.3675 0.5539,0.254 0.5562,0.2473 0.5552,0.2381 0.5562,0.2307 0.5574,0.2208 0.5597,0.211 0.5586,0.1994 0.562,0.1896 0.5655,0.1764 0.5667,0.1636 0.5689,0.1484 0.5713,0.1354 0.577,0.1178 0.5782,0.101 0.5758,0.082 0.6186,0.069 0.6163,0.05 0.6151,0.034 0.6162,0.014 h 0.614 l 0.6128,-0.022 0.6139,-0.039 0.6129,-0.058 0.6116,-0.075 0.6106,-0.092 0.6105,-0.1088 0.6092,-0.1257 0.6094,-0.142 0.6105,-0.1582 0.6105,-0.174 0.6093,-0.1893 0.6105,-0.2038 0.6105,-0.2194 0.6128,-0.2334 0.6174,-0.2477 0.6163,-0.2627 0.6209,-0.2761 0.622,-0.2893 0.6278,-0.3034 0.6313,-0.3172 0.6359,-0.3303 0.6405,-0.3423 0.6474,-0.3569 0.652,-0.3685 0.6602,-0.3815 0.6659,-0.3948 1.5683,-0.9469 0.6821,-1.5482 0.292,-1.1941 -0.3832,-2.2236 -1.9931,-1.4189 -1.4171,-0.061 -0.5828,0.102 -0.1928,0.048 -0.3485,0.072 -0.3508,0.1376 -0.1097,0.041 -0.1096,0.043 -0.1097,0.043 -0.1095,0.043 -0.1466,0.056 -0.584,0.1494 -0.7628,0.1897 -0.7697,0.1826 -0.7744,0.1742 -0.7778,0.1649 -0.7779,0.15 -0.7755,0.1362 -0.7698,0.1179 -0.7628,0.1 -0.749,0.079 -0.7362,0.055 -0.7202,0.032 -0.6971,0.01 -0.6739,-0.021 -0.6486,-0.048 -0.6174,-0.077 -0.5875,-0.1038 -0.5504,-0.1302 -0.5136,-0.1577 -0.4789,-0.1824 -0.4431,-0.2076 -0.4086,-0.2335 -0.3774,-0.2597 -0.352,-0.2905 -0.33,-0.3236 -0.3093,-0.3652 -0.2943,-0.4162 -0.277,-0.4731 -0.2596,-0.5419 -0.2377,-0.6166 -0.2124,-0.7007 -0.1904,-0.8228 -0.044,-0.2372 -0.044,-0.2679 -0.036,-0.2621 -0.029,-0.2573 -0.021,-0.2526 -0.014,-0.2442 -0.01,-0.236 z m -31.8674,19.755 0.8321,0.5862 0.921,0.3665 2.0323,0.319 1.4495,-1.173 0.2966,-0.2313 0.2942,-0.2202 0.2931,-0.2089 0.2932,-0.2001 0.2931,-0.1897 0.2909,-0.1791 0.2896,-0.1691 0.2885,-0.1577 0.2897,-0.1494 0.2873,-0.1375 0.2862,-0.1271 0.2862,-0.1179 0.2875,-0.1087 0.2849,-0.097 0.284,-0.087 0.2838,-0.078 0.284,-0.067 0.2884,-0.058 0.2875,-0.049 0.2873,-0.038 0.292,-0.028 0.2931,-0.018 0.2966,-0.01 h 0.2966 l 0.3035,0.013 0.3115,0.024 0.3117,0.035 0.3162,0.047 0.3243,0.059 0.3312,0.072 1.3652,0.3408 1.6295,-0.6128 1.0075,-0.7536 0.7341,-1.0898 0.3242,-1.1247 0.035,-0.9272 -0.087,-0.7056 -0.1269,-0.5397 -0.5216,-1.7452 -1.5488,-0.8116 -0.1604,-0.099 -0.1212,-0.089 -0.094,-0.079 -0.067,-0.067 -0.05,-0.059 -0.041,-0.057 -0.04,-0.066 -0.038,-0.076 -0.039,-0.092 -0.04,-0.1129 -0.04,-0.1393 -0.041,-0.169 -0.038,-0.1943 -0.036,-0.2203 -0.055,-0.399 -0.1085,-0.5155 -0.066,-0.3593 -0.058,-0.3664 -0.051,-0.3723 -0.044,-0.377 -0.035,-0.3806 -0.03,-0.3878 -0.022,-0.3924 -0.016,-0.3984 -0.01,-0.4007 v -0.4056 -0.4114 l 0.01,-0.4162 0.011,-0.421 0.016,-0.422 0.02,-0.4292 0.024,-0.4328 0.026,-0.4352 0.03,-0.4374 0.034,-0.4447 0.034,-0.4458 0.037,-0.4494 0.038,-0.4517 0.038,-0.4566 0.038,-0.4576 0.04,-0.4601 0.038,-0.4636 0.036,-0.4659 0.036,-0.4696 0.034,-0.4707 0.031,-0.4731 0.038,-0.6581 -0.02,-0.3782 v -0.013 -0.01 -0.01 -0.012 l 0.01,-0.026 0.021,-0.043 0.036,-0.062 0.055,-0.083 0.076,-0.098 0.099,-0.1163 0.1224,-0.1291 0.1442,-0.1424 0.1674,-0.1529 0.1903,-0.1612 2.3486,-1.9042 -1.2753,-2.6359 -0.1072,-0.2335 -0.2136,-0.4186 -0.3728,-0.575 -0.5873,-0.6356 -0.7848,-0.5513 -0.8875,-0.3652 -1.4518,-0.2822 -1.1298,0.3675 -0.2989,0.092 -0.2977,0.083 -0.2989,0.077 -0.2978,0.068 -0.2965,0.063 -0.2955,0.057 -0.2989,0.05 -0.3001,0.044 -0.2966,0.038 -0.2965,0.032 -0.2966,0.026 -0.3001,0.019 -0.3013,0.015 -0.2977,0.01 h -0.3011 -0.3048 l -0.3023,-0.01 -0.3023,-0.012 -0.3059,-0.019 -0.307,-0.023 -0.3046,-0.028 -0.307,-0.033 -0.3104,-0.038 -0.3128,-0.043 -0.3116,-0.048 -0.3127,-0.052 -0.3139,-0.057 -0.3152,-0.061 -0.315,-0.066 -0.3185,-0.068 -1.2187,-0.2822 -1.2868,0.4281 -0.6162,0.2797 -0.6798,0.44 -0.6831,0.658 -0.5747,0.8881 -0.3474,1.0185 -0.1051,1.0114 0.2193,2.5824 1.9746,0.9936 0.2723,0.1399 0.2505,0.1352 0.2342,0.1305 0.2147,0.1292 0.1939,0.1245 0.1777,0.1233 0.1569,0.1186 0.1385,0.1174 0.1247,0.115 0.1119,0.1174 0.1005,0.1173 0.091,0.1209 0.038,0.5289 0.059,0.7007 0.067,0.7149 0.07,0.7305 0.074,0.7446 0.075,0.7565 0.071,0.7635 0.069,0.7707 0.063,0.7743 0.055,0.7778 0.045,0.7731 0.034,0.7683 0.02,0.76 v 0.747 l -0.013,0.7316 -0.03,0.7126 -0.052,0.6877 -0.07,0.6622 -0.091,0.6293 -0.1131,0.5935 -0.1327,0.5562 -0.1535,0.5132 -0.1697,0.467 -0.1858,0.4205 -0.2007,0.3756 -0.2136,0.3317 -0.225,0.2902 -0.2424,0.2568 -0.2619,0.229 -0.2897,0.2057 -2.4432,1.379 0.3486,2.8539 0.1685,0.7326 0.2874,0.7701 0.45,0.7785 0.6486,0.7341 z m -9.9561,-33.1243 -0.2089,0.1234 -0.203,0.1102 -0.1974,0.097 -0.1916,0.084 -0.1766,0.067 -0.1685,0.053 -0.1558,0.039 -0.1453,0.025 -0.1328,0.013 h -0.1246 l -0.06,-0.01 -0.1708,-0.033 -0.3059,-0.074 -0.3173,-0.088 -0.3289,-0.1019 -0.3416,-0.1151 -0.3567,-0.1269 -0.3704,-0.1375 -0.3912,-0.147 -0.4098,-0.1541 -0.4258,-0.1577 -0.4477,-0.1589 -0.4721,-0.159 -0.4951,-0.1529 -0.517,-0.1435 -0.5412,-0.1303 -0.7663,-0.1531 -0.7963,-0.021 -0.5286,-0.01 -0.5297,-0.01 h -0.5297 l -0.5332,0.01 -0.5343,0.01 -0.5332,0.019 -0.5354,0.028 -0.539,0.038 -0.5378,0.05 -0.5389,0.062 -0.5413,0.077 -0.5435,0.093 -0.5413,0.1091 -0.5435,0.1268 -0.5424,0.1471 -0.5436,0.1683 -0.5401,0.1897 -0.5378,0.2135 -0.5343,0.2395 -0.5298,0.2644 -0.5227,0.2916 -0.5159,0.3179 -0.5066,0.3462 -0.4962,0.3746 -0.4847,0.402 -0.4732,0.4304 -0.4581,0.4576 -0.4444,0.485 -0.4293,0.5122 -0.4143,0.5384 -0.4986,0.7078 -0.2896,0.5668 -0.1869,0.3913 -0.1812,0.3959 -0.1697,0.4032 -0.1615,0.4067 -0.1501,0.4091 -0.1431,0.4162 -0.1304,0.4185 -0.1235,0.4256 -0.1131,0.4305 -0.1038,0.4327 -0.093,0.4388 -0.083,0.4398 -0.073,0.4447 -0.064,0.4517 -0.052,0.4506 -0.043,0.4541 -0.034,0.4612 -0.023,0.4636 -0.013,0.4648 v 0.4695 l 0.01,0.4708 0.018,0.4766 0.026,0.4766 0.035,0.4814 0.048,0.4861 0.056,0.4874 0.065,0.4885 0.075,0.4944 0.085,0.4968 0.096,0.498 0.1488,0.7186 0.3578,0.9802 0.095,0.2311 -0.4304,-0.7549 -0.457,-0.8358 -0.4166,-0.7968 -0.382,-0.7624 -0.3463,-0.7293 -0.3139,-0.6971 -0.2827,-0.6664 -0.2562,-0.6402 -0.2285,-0.6131 -0.2066,-0.5904 -0.1835,-0.568 -0.1639,-0.5526 -0.1488,-0.5359 -0.1316,-0.5216 -0.1177,-0.5111 -0.1073,-0.5063 -0.097,-0.5015 -0.089,-0.4992 -0.084,-0.4992 -0.079,-0.5051 -0.076,-0.5098 -0.074,-0.5182 -0.076,-0.5276 -0.079,-0.5419 -0.083,-0.5525 -0.089,-0.5644 -0.099,-0.5822 -0.1795,-0.9864 -0.5722,-1.2699 -0.6,-0.958 -0.769,-0.8431 -0.9181,-0.6533 -0.9446,-0.396 -0.8161,-0.1791 -0.5992,-0.058 -0.6301,-0.035 -0.7605,0.062 -0.5346,0.04 -0.5316,0.039 -0.5305,0.035 -0.5296,0.032 -0.5265,0.03 -0.5242,0.025 -0.5232,0.02 -0.5214,0.017 -0.5177,0.012 -0.5165,0.01 h -0.515 l -0.5118,-0.01 -0.5095,-0.01 -0.5091,-0.017 -0.5085,-0.022 -0.5051,-0.028 -0.5018,-0.036 -0.5013,-0.044 -0.4999,-0.05 -0.4981,-0.057 -0.4949,-0.066 -0.4936,-0.075 -0.4935,-0.081 -0.4922,-0.092 -0.4894,-0.1008 -0.4894,-0.109 -0.4876,-0.1198 -0.4872,-0.1293 -0.4848,-0.1387 -0.4844,-0.1493 -2.1894,-0.7257 -1.7297,1.3931 -0.44,0.4091 -0.4561,0.5229 -0.447,0.6795 -0.3692,0.869 -0.1947,1.0233 0.05,1.0742 0.506,1.826 1.296,0.9331 0.3697,0.2526 0.3756,0.2466 0.3775,0.2336 0.3824,0.2288 0.3857,0.2205 0.3899,0.2123 0.3931,0.2063 0.3966,0.1992 0.3985,0.1921 0.2358,0.1102 -0.5433,0.1957 -0.7312,0.447 -0.6047,0.5442 -0.4899,0.6012 -0.3915,0.6391 -0.3123,0.6675 -0.2481,0.6995 -0.1704,0.6392 -0.092,0.3675 -0.079,0.2644 -0.094,0.2704 -0.1073,0.2786 -0.1212,0.2846 -0.1344,0.2881 -0.1462,0.294 -0.1608,0.3035 -0.1733,0.3108 -0.1818,0.3141 -0.1929,0.3226 -0.2023,0.3296 -0.2107,0.3378 -0.2153,0.3428 -0.2216,0.3497 -0.2276,0.3629 -0.2299,0.3723 -0.2289,0.3794 -0.2294,0.3924 -0.2276,0.4044 -0.2243,0.4209 -0.2175,0.4334 -0.2089,0.4496 -0.1956,0.4611 -0.1238,-0.2921 -0.4013,-0.9263 -0.4035,-0.9142 -0.4053,-0.9011 -0.4063,-0.8857 -0.4076,-0.8727 -0.4072,-0.856 -0.4071,-0.8419 -0.4049,-0.8217 -0.4031,-0.8063 -0.4008,-0.7873 -0.3984,-0.7671 -0.3935,-0.747 -0.3894,-0.7257 -0.3848,-0.7054 -0.1347,-0.2407 -0.032,-0.1553 -0.051,-0.293 -0.045,-0.3022 -0.04,-0.3154 -0.036,-0.3273 -0.031,-0.3391 -0.026,-0.3486 -0.022,-0.3604 -0.021,-0.3771 -0.02,-0.3853 -0.02,-0.3949 -0.02,-0.4067 -0.021,-0.4197 -0.023,-0.4293 -0.016,-0.2406 0.025,-0.6142 -0.049,-0.9782 -0.2531,-1.1893 -0.7426,-1.3932 -1.4075,-1.0979 -1.5789,-0.3616 -1.3102,0.1149 -0.9945,0.2799 -0.1923,0.063 -0.055,0.014 -0.062,0.013 -0.07,0.012 -0.08,0.01 -0.087,0.01 -0.098,0.01 h -0.1119 l -0.1211,-0.01 -0.127,-0.01 -0.1385,-0.013 -0.1504,-0.017 -0.159,-0.023 -0.1687,-0.026 -0.1763,-0.028 -0.2037,-0.037 -0.6536,-0.1127 -0.638,-0.099 -0.6046,-0.083 -0.5781,-0.071 -0.5534,-0.058 -0.5304,-0.048 -0.5114,-0.041 -0.4945,-0.035 -0.4813,-0.031 -0.471,-0.028 -0.4643,-0.028 -0.4653,-0.031 -0.4706,-0.035 -0.4826,-0.039 -0.499,-0.046 -1.0991,-0.1162 -1.4029,0.339 -1.0894,0.7839 -0.6911,0.805 -0.5067,0.8715 -0.3661,1.0446 -0.138,1.3706 0.4519,1.7442 1.1036,1.1869 0.6238,0.3854 0.2327,0.1458 0.2303,0.1446 0.2299,0.147 0.2293,0.1495 0.2276,0.1481 0.2258,0.1506 0.2258,0.1506 0.2244,0.1518 0.2215,0.1529 0.2222,0.1554 0.222,0.1565 0.2208,0.1564 0.218,0.1577 0.1262,0.093 0.054,0.072 0.057,0.084 0.049,0.081 0.042,0.08 0.036,0.075 0.031,0.076 0.028,0.081 0.023,0.083 0.01,0.025 -0.057,0.089 -0.2157,0.3285 -0.2134,0.3237 -0.2098,0.3154 -0.2084,0.3083 -0.2083,0.3024 -0.2057,0.2928 -0.2047,0.2834 -0.2043,0.275 -0.2043,0.2644 -0.2019,0.255 -0.2015,0.243 -0.2007,0.2301 -0.2011,0.2205 -0.1041,0.1067 -0.1371,0.1375 -0.1988,0.204 -0.2728,0.3047 -0.3223,0.4363 -0.3235,0.5822 -0.2521,0.7066 -0.018,0.1008 -0.044,-0.01 -1.11,0.031 -1.2402,0.4423 -0.9437,0.8015 -0.053,-0.094 -0.4169,-0.7327 -0.4263,-0.7517 -0.4337,-0.7672 -0.441,-0.779 -0.447,-0.7885 -0.4505,-0.7909 -0.4547,-0.7944 -0.4574,-0.7908 -0.4584,-0.7861 -0.4588,-0.779 -0.4588,-0.7659 -0.457,-0.7506 -0.4552,-0.7327 -0.452,-0.7126 -0.4496,-0.6902 -0.4465,-0.6639 -0.4437,-0.6356 -0.4423,-0.6071 -0.4429,-0.5762 -0.4455,-0.5442 -0.4533,-0.5146 -0.4735,-0.4861 -0.5113,-0.4624 -0.574,-0.4376 -0.6905,-0.409 -0.8742,-0.338 -0.7573,-0.1055 -0.5511,-0.028 c -3.8327,0.3355 -7.6526,0.2478 -11.4891,-0.1056 l -0.7928,0.021 -1.0629,0.2811 -0.9081,0.5157 -0.6649,0.5288 -0.5488,0.5431 -0.4803,0.575 -0.4428,0.6522 -0.446,0.9082 -0.8204,4.1926 3.9562,0.5833 0.3852,0.076 0.3336,0.083 0.2756,0.086 0.2171,0.088 0.1567,0.08 0.1005,0.064 0.053,0.043 0.022,0.022 0.01,0.01 0.01,0.017 0.019,0.046 0.027,0.1044 0.025,0.1813 0.011,0.2704 -0.01,0.1197 -0.069,0.2549 -0.1631,0.5608 -0.1617,0.5265 -0.1605,0.4921 -0.1581,0.4576 -0.1554,0.4246 -0.1545,0.3959 -0.153,0.3736 -0.1495,0.345 -0.1471,0.319 -0.1457,0.3011 -0.1468,0.2846 -0.1448,0.2691 -0.1431,0.2525 -0.1458,0.2455 -0.9482,1.5343 0.51,1.9007 -0.066,0.03 -1.1456,1.2307 -0.4218,1.3137 -0.1887,0.5791 -0.1897,0.5776 -0.1901,0.5744 -0.191,0.5726 -0.1932,0.5704 -0.192,0.5674 -0.1947,0.5672 -0.1937,0.5643 -0.1952,0.5602 -0.1961,0.5595 -0.1973,0.5589 -0.197,0.5556 -0.1979,0.5535 -0.1987,0.552 -0.2003,0.5507 -0.201,0.5502 -0.2006,0.5469 -0.2015,0.5456 -0.2021,0.5435 -0.2033,0.5438 -0.2033,0.5402 -0.2043,0.5405 -0.2056,0.5388 -0.2057,0.5392 -0.2061,0.5361 -0.2065,0.5346 -0.2075,0.5348 -0.207,0.5331 -0.2089,0.5321 -0.2083,0.5319 -0.1015,0.2568 -0.2084,0.3419 -0.3614,0.5949 -0.3565,0.5812 -0.3556,0.5654 -0.3559,0.5465 -0.36,0.526 -0.3652,0.5041 -0.3743,0.4798 -0.3839,0.4546 -0.3944,0.4264 -0.4099,0.4004 -0.4286,0.3738 -0.4511,0.3492 -0.4766,0.3221 -0.5096,0.2985 -1.6332,0.8115 -0.9171,1.8005 -0.2377,1.3316 0.1065,1.2554 0.4003,1.1653 0.7197,1.0817 1.1406,0.9207 1.5908,0.4881 1.8649,-0.2742 0.947,-0.7161 0.2476,-0.1777 0.2523,-0.1723 0.2553,-0.1649 0.2614,-0.1577 0.2684,-0.1545 0.2751,-0.1467 0.2797,-0.1403 0.287,-0.1338 0.2952,-0.1295 0.3029,-0.1228 0.3112,-0.1157 0.3177,-0.1092 0.3281,-0.1028 0.3381,-0.096 0.3446,-0.089 0.3551,-0.081 0.3683,-0.075 0.3793,-0.067 0.3871,-0.059 0.3998,-0.051 0.4122,-0.042 0.4223,-0.033 0.435,-0.024 0.4474,-0.015 0.4593,-0.01 h 0.4743 l 0.4853,0.015 0.4995,0.025 0.5136,0.035 0.5256,0.047 1.2077,0.1297 1.7927,-0.5304 1.2828,-1.3733 0.5461,-1.3792 0.1399,-1.2479 -0.1321,-1.2111 -0.4584,-1.269 -0.9884,-1.2905 -1.4504,-0.776 -0.1888,-0.028 v -0.03 l -0.019,-0.4121 -0.01,-0.4209 0.01,-0.4309 0.023,-0.4415 0.035,-0.4497 0.052,-0.4592 0.065,-0.4721 0.081,-0.4811 0.095,-0.49 0.1093,-0.5004 0.1248,-0.5117 0.1397,-0.5205 0.1545,-0.5292 0.1705,-0.5392 0.1854,-0.5494 0.2008,-0.5584 0.2161,-0.5684 0.2307,-0.575 0.2469,-0.5853 0.2618,-0.596 0.2755,-0.6019 0.2911,-0.6105 0.3067,-0.6206 0.3204,-0.6273 0.3344,-0.6358 0.3496,-0.6433 0.3642,-0.6521 0.3774,-0.6599 0.4634,-0.7893 0.5494,-1.11 -0.094,-1.7676 -0.2445,-0.5479 0.1535,-0.07 0.9789,-0.8422 0.4031,-0.6334 0.1183,-0.1622 0.1993,-0.2928 0.1905,-0.2976 0.1805,-0.3001 0.1732,-0.3058 v -0.01 l 0.3355,0.2976 0.5304,0.5549 0.5567,0.6677 0.5708,0.7704 0.578,0.8668 0.5786,0.9516 0.5768,1.0313 0.5694,1.0987 0.5592,1.1583 0.547,1.2092 0.5337,1.2536 0.5184,1.2878 0.5008,1.316 0.4825,1.3354 0.4638,1.3467 0.4429,1.3503 0.4218,1.3477 0.3989,1.3362 0.3752,1.3179 0.3514,1.2909 0.3264,1.2577 0.2997,1.2161 0.2742,1.1671 0.2454,1.1085 0.2175,1.0443 0.1879,0.9706 0.1571,0.886 0.1257,0.7929 0.094,0.6832 0.069,0.6335 0.09,0.7842 0.3431,1.0565 0.5721,0.9792 0.8359,0.8633 1.152,0.6562 1.4459,0.2555 1.5149,-0.3327 0.9715,-0.6713 0.6228,-0.5717 0.4516,-0.4154 0.4524,-0.415 0.451,-0.4153 0.452,-0.4158 0.452,-0.415 0.4524,-0.4154 0.451,-0.4158 0.4524,-0.415 0.4515,-0.4153 0.4524,-0.4155 0.4515,-0.4149 0.4524,-0.4155 0.4521,-0.4163 0.4524,-0.4163 0.3582,-0.3299 0.4118,-0.324 0.5831,-0.5959 0.4857,-0.6539 0.3706,-0.6695 0.2623,-0.6406 0.1742,-0.5795 0.11,-0.489 0.2427,-1.3097 -0.4756,-1.3102 -0.1642,-0.4373 -0.1681,-0.4374 -0.1732,-0.4368 -0.1773,-0.435 -0.1819,-0.4365 -0.1869,-0.4382 -0.1905,-0.436 -0.1939,-0.4345 -0.1987,-0.4365 -0.203,-0.4365 -0.2073,-0.4367 -0.2108,-0.4365 -0.2147,-0.4365 -0.2185,-0.4354 -0.2015,-0.3976 -0.2011,-0.4136 -0.1521,-0.3522 -0.1243,-0.3291 -0.1,-0.3071 -0.076,-0.2847 -0.058,-0.2715 -0.042,-0.2622 -0.028,-0.2505 -0.013,-0.2422 v -0.245 l 0.01,-0.2509 0.021,-0.2541 0.033,-0.2608 0.045,-0.276 0.057,-0.2916 0.067,-0.3029 0.08,-0.3135 0.091,-0.3355 0.1024,-0.3551 0.1093,-0.3693 0.1173,-0.3861 0.1235,-0.4067 0.1278,-0.4259 0.1285,-0.4442 0.1298,-0.4633 0.1274,-0.4868 0.1221,-0.5049 0.1148,-0.5255 0.105,-0.5485 0.094,-0.5688 0.078,-0.5895 0.018,-0.1824 0.7637,0.025 0.8892,-0.1869 0.3213,-0.143 0.1567,0.2513 0.2514,0.4109 0.25,0.4167 0.2485,0.4233 0.2468,0.429 0.244,0.4328 0.2418,0.44 0.2404,0.4442 0.2381,0.4505 0.2362,0.4566 0.234,0.4615 0.2317,0.468 0.2299,0.4725 0.2262,0.4785 0.2262,0.4853 0.2229,0.4908 0.2217,0.4981 0.2189,0.5031 0.2165,0.5077 0.2131,0.5141 0.2129,0.522 0.2094,0.5268 0.2069,0.5324 0.2047,0.5406 0.2034,0.5456 0.2001,0.5525 0.1979,0.5584 0.1956,0.565 0.1933,0.5711 0.1897,0.5777 0.1883,0.584 0.1361,0.434 0.067,0.321 0.088,0.4586 0.077,0.4365 0.064,0.4132 0.05,0.3847 0.034,0.3524 0.018,0.318 v 0.2774 l -0.01,0.2327 -0.018,0.1795 -0.021,0.128 -0.015,0.056 -0.046,0.043 -0.2216,0.2083 -0.2184,0.2029 -0.2143,0.1971 -0.213,0.1924 -0.2107,0.1859 -0.2015,0.1765 -0.2025,0.1708 -0.2006,0.1664 -0.1924,0.1545 -0.1868,0.1447 -0.1828,0.1368 -0.1775,0.127 -0.1695,0.116 -0.1585,0.1034 -1.4153,0.8596 -0.4698,2.1075 -0.069,1.0054 0.1765,1.1955 0.6023,1.2649 1.0318,0.9994 1.1547,0.5319 1.0447,0.1786 1.7649,-0.03 1.0437,-0.7993 0.1528,-0.1101 0.1604,-0.1084 0.1649,-0.1051 0.1751,-0.1042 0.1863,-0.1046 0.1938,-0.101 0.1998,-0.099 0.2083,-0.096 0.2208,-0.095 0.2294,-0.094 0.2376,-0.09 0.2486,-0.086 0.259,-0.085 0.2665,-0.081 0.1376,-0.039 0.1133,-0.019 0.2719,-0.043 0.2724,-0.04 0.2659,-0.037 0.2627,-0.036 0.2652,-0.032 0.2641,-0.03 0.2563,-0.027 0.2578,-0.023 0.2582,-0.023 0.2577,-0.02 0.2555,-0.018 0.254,-0.016 0.255,-0.015 0.2532,-0.012 0.2495,-0.01 0.2505,-0.01 0.2535,-0.01 0.2528,-0.01 h 0.2522 0.2505 l 0.2499,-4e-4 0.2533,4e-4 h 0.2503 0.2513 0.2537 l 0.2541,0.01 0.2527,0.01 0.254,0.01 0.256,0.01 0.3313,0.011 0.2239,0.034 0.3963,0.064 0.3907,0.066 0.3852,0.07 0.3833,0.075 0.3799,0.08 0.3755,0.085 0.3721,0.089 0.3691,0.097 0.367,0.1033 0.3657,0.1097 0.36,0.1165 0.3597,0.1247 0.3573,0.1325 0.3552,0.1407 0.7305,0.3103 1.1421,0.2011 1.1293,-0.038 1.1794,-0.3337 1.1657,-0.7408 0.9506,-1.2279 0.4382,-1.5646 -0.1416,-1.5232 -0.6361,-1.5048 -1.0543,-1.0382 -0.6485,-0.5745 -0.6375,-0.5173 -0.6187,-0.4707 -0.5932,-0.4318 -0.5594,-0.4004 -0.5205,-0.3743 -0.477,-0.354 -0.4277,-0.3373 -0.3775,-0.3227 -0.3253,-0.3103 -0.2765,-0.3011 -0.2322,-0.2956 -0.1948,-0.3002 -0.1671,-0.3186 -0.1183,-0.2925 -0.1921,-0.7604 -0.2705,-1.014 -0.2833,-1.0141 -0.2961,-1.014 -0.3076,-1.0131 -0.3194,-1.0104 -0.068,-0.2093 0.095,0.022 0.6672,0.01 0.3226,5e-4 h 0.3162 0.3118 l 0.3129,-0.01 0.3121,-0.01 0.3126,-0.01 0.3126,-0.01 0.3139,-0.01 0.3204,-0.01 0.3281,-0.01 0.3318,-0.01 0.3386,-0.01 h 0.351 0.3637 0.436 l 0.653,-0.021 0.7111,-0.084 0.7128,-0.159 0.7015,-0.2495 0.6736,-0.345 0.6115,-0.4319 0.5232,-0.4838 0.4236,-0.4996 0.3377,-0.4826 0.271,-0.4552 0.2221,-0.419 0.1874,-0.3811 0.169,-0.3533 0.1609,-0.3335 0.1599,-0.3163 0.1559,-0.292 0.1393,-0.233 0.088,-0.1262 0.054,-0.065 0.05,-0.052 0.092,-0.079 0.1746,-0.1302 0.2751,-0.1887 1.5451,-1.0145 0.3523,-1.663 0.066,-0.3582 0.024,-0.1577 0.021,0.3953 0.019,0.4217 0.017,0.4164 0.014,0.4112 0.011,0.4072 0.01,0.4004 0.01,0.3971 0.01,0.3934 v 0.3908 0.8376 l 0.2613,1.0053 0.2793,0.7231 0.4011,0.716 0.5393,0.6598 0.6466,0.5416 0.6737,0.3748 0.6049,0.2193 1.2206,0.2856 1.0425,-0.3199 0.1956,-0.058 0.1923,-0.055 0.1898,-0.052 0.1863,-0.049 0.1847,-0.045 0.1823,-0.041 0.1842,-0.038 0.1814,-0.035 0.1873,-0.031 0.191,-0.027 0.1919,-0.024 0.1961,-0.019 0.2043,-0.016 0.2079,-0.011 0.2158,-0.01 h 0.2243 l 0.2357,0.01 0.2437,0.01 0.2532,0.017 0.2664,0.023 0.2802,0.031 0.2923,0.037 0.3011,0.046 0.3178,0.056 0.3349,0.066 0.3481,0.075 0.3624,0.084 0.3773,0.097 0.397,0.1069 0.4131,0.1198 0.7179,0.2189 0.7858,0.098 0.8333,-0.022 1.0191,-0.2522 1.0882,-0.6532 0.8471,-1.0436 0.4281,-1.143 0.1143,-1.0103 -0.08,-1.3056 0.3809,0.4363 0.5863,0.6075 0.6208,0.5771 0.651,0.5466 0.6808,0.5141 0.7121,0.4811 0.7397,0.4484 0.4236,0.2289 0.1615,0.1307 0.5066,0.3583 0.524,0.3222 0.5389,0.2814 0.5516,0.2436 0.5644,0.2048 0.5689,0.1658 0.5725,0.1262 0.5747,0.092 0.577,0.056 0.5735,0.023 0.5713,-0.01 0.5667,-0.036 0.562,-0.062 0.5597,-0.086 0.9256,-0.1828 0.6717,-0.3364 0.2365,-0.107 0.2586,-0.1045 0.2804,-0.1032 0.2989,-0.099 0.3161,-0.095 0.3336,-0.091 0.3451,-0.084 0.3531,-0.078 0.3658,-0.073 0.3682,-0.066 0.3728,-0.059 0.3762,-0.053 0.375,-0.047 0.3751,-0.039 0.3278,-0.031 0.3,-0.013 0.2181,0.01 0.1801,0.019 0.1511,0.028 0.1339,0.037 0.1269,0.047 0.1316,0.06 0.1385,0.077 0.1546,0.1021 0.1767,0.1333 0.1961,0.166 0.2158,0.1997 0.2366,0.2371 0.2573,0.2738 0.277,0.3103 0.7051,0.8179 1.0064,0.5526 0.7605,0.2586 0.7513,0.1216 h 0.6924 l 0.6094,-0.077 0.5181,-0.1222 0.4293,-0.136 3.4033,-1.2732 -1.2625,-3.6253 -0.1177,-0.3751 -0.098,-0.3528 -0.08,-0.3377 -0.064,-0.3198 -0.048,-0.2994 -0.032,-0.2802 -0.019,-0.2641 -0.01,-0.2445 v -0.2272 l 0.015,-0.2101 0.024,-0.1971 0.034,-0.1849 0.04,-0.1715 0.048,-0.1631 0.056,-0.1572 0.063,-0.1504 0.073,-0.1471 0.08,-0.1435 0.092,-0.1444 0.1026,-0.1448 0.1143,-0.1458 0.1304,-0.1471 0.1443,-0.1494 0.1592,-0.1499 0.1777,-0.1528 0.195,-0.1535 0.2124,-0.1544 0.2308,-0.1526 0.2504,-0.1536 0.2701,-0.1536 1.7784,-0.9331 0.4247,-2.3243 v -1.0387 l -0.2551,-1.0848 -0.5182,-0.9949 -0.6889,-0.7718 -0.7259,-0.536 -0.6936,-0.351 -1.2049,-0.4328 -1.0629,0.121 -0.3081,0.035 -0.3081,0.032 -0.3093,0.032 -0.3082,0.031 -0.3069,0.027 -0.3058,0.028 -0.3047,0.025 -0.3092,0.023 -0.187,0.014 1.3721,-0.9675 0.3485,-1.7845 0.085,-0.4043 0.089,-0.3924 0.094,-0.3818 0.099,-0.3688 0.105,-0.3556 0.113,-0.3428 0.1212,-0.3319 0.1316,-0.3237 0.1408,-0.3142 0.1511,-0.3048 0.1639,-0.2976 0.179,-0.2928 0.1938,-0.2893 0.2136,-0.287 1.319,-1.6102 -0.4189,-2.0761 -0.142,-0.568 -0.2065,-0.6307 -0.3048,-0.6901 -0.4396,-0.7209 -0.6047,-0.7066 -0.7709,-0.6166 -2.3451,-1.2166 -1.8326,1.2699 -0.2251,0.1554 -0.2215,0.1494 -0.217,0.1435 -0.2146,0.1339 z m -1.678,14.5167 -0.2412,-0.01 -0.2988,-0.017 -0.3001,-0.019 -0.3001,-0.023 -0.2977,-0.025 -0.299,-0.028 -1.2013,-0.1268 -1.2568,0.5833 -0.6127,0.409 -0.5414,0.5015 -0.4419,0.5586 -0.337,0.5798 -0.2389,0.5643 -0.1627,0.536 -0.7767,3.6829 -0.1546,-0.03 -0.2193,-0.049 -0.2124,-0.053 -0.203,-0.057 -0.1986,-0.061 -0.1881,-0.065 -0.1846,-0.069 -0.1732,-0.073 -0.1662,-0.075 -0.1626,-0.081 -0.1535,-0.084 -0.1443,-0.085 -0.1362,-0.089 -0.1338,-0.094 -0.127,-0.097 -0.1177,-0.099 -0.1143,-0.1042 -0.093,-0.09 -0.172,-0.1921 -0.1535,-0.198 -0.1535,-0.2264 -0.15,-0.2574 -0.1455,-0.2868 -0.1384,-0.3131 -0.1292,-0.3391 -0.1178,-0.364 -0.1062,-0.3842 -0.09,-0.4008 -0.076,-0.4162 -0.06,-0.4315 -0.044,-0.4423 -0.028,-0.4481 -0.01,-0.4542 0.01,-0.5122 0.01,-0.255 0.014,-0.2062 0.022,-0.2158 0.031,-0.2218 0.039,-0.2265 0.049,-0.2311 0.058,-0.2347 0.067,-0.2408 0.076,-0.2419 0.083,-0.2418 0.093,-0.2407 0.1005,-0.2407 0.1084,-0.2408 0.1154,-0.2395 0.1223,-0.2347 0.1305,-0.2312 0.1362,-0.2277 0.1407,-0.2229 0.1466,-0.2134 0.1512,-0.2099 0.157,-0.2027 0.1604,-0.1933 0.1627,-0.1861 0.1651,-0.1767 0.165,-0.166 0.1684,-0.1565 0.1697,-0.1471 0.1685,-0.1351 0.1651,-0.1234 0.05,-0.035 0.1962,-0.018 0.3081,-0.019 0.33,-0.01 h 0.3498 l 0.3635,0.01 0.3739,0.014 0.3786,0.023 0.3842,0.036 0.3867,0.045 0.3819,0.054 0.3751,0.066 0.3682,0.076 0.3542,0.085 0.3763,0.1055 0.4847,0.1411 0.4673,0.1363 0.3982,0.1211 0.3116,0.1054 0.1339,0.053 v 0.1719 l -0.03,0.4328 -0.3739,2.6038 1.7669,1.4667 0.4419,0.3047 z m -45.6494,-3.3282 0.069,0.021 0.429,0.122 0.4265,0.1198 0.4254,0.1174 0.4273,0.115 0.2079,0.056 0.021,0.031 0.083,0.1364 0.097,0.1696 0.1028,0.1968 0.1087,0.2193 0.112,0.2443 0.1179,0.2703 0.1189,0.2893 0.1205,0.306 0.1211,0.3248 0.1229,0.3439 0.1245,0.3604 0.1248,0.3747 0.1242,0.3877 0.1252,0.4019 0.1252,0.4127 0.015,0.052 -0.3396,-0.3901 -0.6694,-0.5407 -0.649,-0.3522 -0.6415,-0.217 -0.5964,-0.1055 -0.3601,-0.019 0.035,-0.1802 0.06,-0.9083 -0.086,-0.9485 -0.2678,-0.9568 -0.2359,-0.4518 z"
         stroke="#231f20"
         stroke-linecap="butt"
         stroke-miterlimit="2.6131"
         stroke-width="0.32931"
         fill="none" />
      <path
         id="path22872"
         stroke-linejoin="miter"
         style="display:inline;fill:#ffffff;fill-opacity:1;stroke-dasharray:none"
         d="m 2685.9378,-2533.0044 c -8.1698,2.1346 -19.4564,4.1836 -21.6464,-7.0002 -0.3365,-1.8786 -0.4208,-3.7571 0.1687,-5.2948 2.6114,-5.4628 4.801,-5.9765 11.4554,-5.3788 2.1051,0.9398 2.2739,3.2446 1.8531,5.9766 0.252,0.5126 1.5156,0.4273 1.7687,-0.2557 0,-2.9877 1.0104,-5.1231 3.2855,-6.4891 0,-1.7921 -1.2636,-2.8172 -2.1063,-3.0729 -1.1792,1.8785 -2.4427,2.3047 -4.2115,1.7922 -5.2217,-2.1344 -10.8658,-3.5856 -16.6777,1.3659 -5.7282,4.8674 -4.7998,17.418 1.5167,21.4311 2.7791,1.2805 5.4749,2.3052 8.002,2.6464 5.6438,0.7687 10.8658,-1.1954 17.8561,-5.4641 0.5064,-0.9395 -0.083,-0.5973 -0.4208,-0.5973 -0.2521,0.085 -0.5895,0.2555 -0.8427,0.341 z m -48.853,6.3182 c 0.083,1.1099 0.5052,1.6223 1.2634,1.7072 3.6208,-3.0731 7.6646,-4.5249 12.381,-3.244 0.7584,-0.2564 0.6741,-0.8541 0.422,-1.6218 -2.275,-1.1104 -2.6958,-2.7324 -2.949,-4.5254 -1.0104,-4.6957 -0.1688,-9.7334 0.084,-14.5149 -0.1677,-1.7934 0.9271,-3.0741 2.4427,-4.2685 -0.252,-0.5125 -0.4208,-1.1103 -1.3468,-1.2808 -3.875,1.366 -7.75,1.1091 -11.4563,0.2557 -0.7584,0.1705 -1.2636,0.5977 -1.0948,1.6229 1.6,0.7682 3.201,1.7069 4.127,3.6707 0.2532,6.2322 3.1167,18.6983 -3.8738,22.1986 z m -15.6679,-11.3562 c -0.5896,0.1704 -0.8428,0.683 -0.926,1.3671 1.1792,0.2557 2.4427,0.4262 3.3687,0.9387 0.6739,0.8537 0.9271,2.0486 0.3376,3.2441 -0.7584,1.4514 -2.2751,1.6223 -3.6231,1.8786 -3.5374,0.3414 -7.0749,-0.1709 -9.2644,-2.4763 -1.7699,-1.7927 -2.6959,-4.9522 -2.5271,-8.1115 0,-3.5855 2.3583,-7.6835 5.3906,-9.3908 1.6844,-0.2569 4.5478,-0.2569 6.9072,0.5113 2.7792,0.7683 4.8854,1.0251 4.1271,5.6357 0.4208,0.4261 1.0104,0.683 1.6843,0.085 0.5052,-2.4763 1.0948,-4.8662 3.0323,-7.0017 -0.252,-1.0238 -0.5052,-1.9637 -1.4323,-2.3899 -1.178,0.8535 -3.0312,2.1343 -5.1374,1.9638 -2.3583,-0.4273 -4.2958,-1.6228 -6.6542,-2.0489 -5.4749,-0.1717 -10.1919,0.085 -13.5611,5.0366 -1.7688,3.3298 -2.274,7.3426 -1.2636,12.1246 1.2636,3.6705 3.5374,6.4882 6.9917,8.1955 1.6,1.4513 3.7062,1.7077 5.9802,1.1954 1.7687,-0.854 4.2957,-1.3659 6.4853,-1.5369 2.6958,-0.2562 4.1281,1.0251 5.8958,3.1588 0.675,0.4272 1.2635,0.2562 1.853,0 -1.9363,-5.3786 -0.252,-8.7082 3.875,-10.8424 0.2532,-1.0251 -0.2519,-1.5377 -1.0947,-1.7934 -3.4531,0.4261 -6.9073,0.5978 -10.4446,0.2557 z m -51.7178,-14.002 c 3.2007,2.3911 7.4963,3.6719 11.9608,4.8674 1.8531,0.7683 3.2008,5.6345 4.5488,10.8433 0.2527,2.6464 0.3368,4.9519 0.3368,7.0865 0.2527,1.1095 0.7581,1.3658 1.2635,1.4517 2.3585,-0.7686 4.8852,-1.2813 10.0234,0.341 0.7572,0.086 1.2636,-0.085 1.0948,-1.1096 -7.7496,-11.782 -7.0755,-16.1368 -8.1705,-22.0273 -0.8422,-2.049 -1.769,-1.9637 -2.6952,-1.9637 -5.8119,0.4261 -11.6239,0.5965 -17.5201,-1.3673 -0.6739,0.5126 -1.1788,1.1104 -0.8421,1.8786 z m 5.4751,11.2701 c -0.8427,2.0489 -4.5487,7.5137 -2.0217,6.6596 0.4214,-0.5118 1.2636,-1.1944 2.1063,-1.8786 0.8417,-0.6819 1.6839,-1.4513 2.5267,-1.707 0.5049,-0.085 0.9262,-0.1716 1.3475,0.085 1.179,0.7682 0.9263,3.1589 0.6736,4.3544 -1.2635,0.7682 -1.7689,1.195 -2.3585,2.3051 -1.2636,2.2199 -1.2636,3.6712 -3.8742,3.6712 -2.1908,-0.085 -3.6225,0.085 -5.2224,0 -1.0109,-0.085 -1.769,-1.1099 -1.8531,-2.5608 -0.2526,-4.1837 4.0429,-7.2573 5.0538,-11.7829 0.2528,-1.3661 0.8427,-1.9638 1.3476,-2.0491 1.0109,-0.2557 3.3694,-0.2557 2.2744,2.9025 z m -31.8392,4.5253 c 0.4208,0.1717 0.9262,-0.085 1.4317,-0.7682 1.3476,-0.085 2.3584,0.5977 3.1165,1.8785 2.864,4.6103 5.3906,10.074 7.4124,16.6487 0.5894,2.8173 0.9267,5.3787 -0.4209,6.8305 -1.2636,1.1099 -2.5271,2.305 -3.7066,2.9882 -0.3369,1.2805 0,1.7927 1.1795,1.7073 1.1789,-0.9391 2.6953,-1.6223 4.4642,-2.1341 3.2847,-0.5982 6.0645,-0.5982 8.9285,-0.4273 2.2739,0.3419 4.5483,0.7683 6.8228,1.7932 1.1789,0.3414 2.1057,-0.4274 1.5158,-1.4513 -2.6958,-2.8178 -6.3174,-3.8419 -7.5805,-7.5988 -2.6112,-10.3314 -7.5809,-21.2598 -11.4554,-28.1752 -0.5055,-2.049 -0.5055,-4.1832 -0.6736,-6.3186 0.1681,-1.8774 -0.1691,-2.732 -2.0216,-2.0491 -1.1796,0.4273 -2.3586,0.2569 -3.5381,0.086 -3.3688,-0.5977 -5.1378,-0.5126 -8.1703,-0.8546 -0.6737,0 -1.5158,1.5376 -0.7582,2.0489 1.2636,0.8547 2.6113,1.7081 3.7907,2.5616 0.9263,1.1103 1.6004,2.3911 1.4317,4.1833 -1.179,1.7933 -2.2739,3.6719 -3.7061,5.1231 -0.4209,0.5126 -0.7581,0.683 -0.8422,1.1955 0,0.683 0.5895,1.366 1.1795,1.8786 0.5054,0.4272 0.8422,0.8535 1.6003,0.8535 z m -34.7874,-2.1342 c 0,0.8535 3.7065,2.9877 4.5487,1.1091 0.4209,-0.5113 0.7581,-1.1091 1.095,-1.7921 0.7581,-1.7934 0.5895,-2.4764 2.948,-1.366 7.9176,3.757 14.1508,28.3455 14.7404,34.9193 0,1.1954 0.9267,1.9641 1.6003,1.2809 2.4431,-2.22 4.8011,-4.4396 7.2441,-6.66 1.0109,-0.6828 1.179,-1.5364 1.3477,-2.3051 -0.8423,-2.1341 -1.769,-4.3545 -2.948,-6.5736 -2.7798,-5.5501 0.4209,-8.4527 0.8421,-13.7465 -0.3367,-1.5368 -2.6953,-3.757 -3.4534,-2.8172 -1.3476,3.7568 -2.6111,3.7568 -3.4533,2.5613 -3.7907,-6.232 -10.1077,-18.8678 -12.6347,-18.7826 -4.3802,0.5113 -7.5808,0.2556 -12.0459,-0.1716 -0.7577,0.086 -1.9372,1.5376 -1.9372,1.9649 3.1166,0.4261 5.307,1.6217 4.9698,5.2924 -0.9264,3.5866 -1.9373,5.5492 -2.864,7.0869 z m -15.7512,30.821 c -0.6741,0.9395 0,2.3054 0.9264,1.9641 3.2007,-2.4764 7.6649,-3.8423 14.0665,-3.0737 1.0104,-0.086 1.0104,-2.1345 0,-2.3909 -0.9267,-0.085 -1.7689,-0.4268 -2.2748,-1.5368 -0.9263,-5.4641 1.2641,-11.8672 5.6436,-19.3805 0.8428,-0.9396 -3.3688,-3.1591 -3.9588,-2.0492 -2.0212,6.3173 -4.2115,12.2088 -6.4855,17.929 -1.9375,3.0742 -3.7905,6.6596 -7.9176,8.5378 z"
         clip-path="none"
         mask="none"
         stroke="#231f20"
         stroke-linecap="butt"
         stroke-miterlimit="2.6131"
         stroke-width="0.329833"
         fill="url(#linearGradient23343)" />
      <path
         id="path22860"
         stroke-linejoin="miter"
         style="stroke-width:0.230083;stroke-miterlimit:2.6131;stroke-dasharray:none"
         d="m 2581.8273,-2516.8908 h 1.0141 l 0.059,0.3761 h 5.7018 l 0.044,-0.3761 h 1.0139 l 0.2089,3.1473 h -0.9725 c -0.066,-0.469 -0.2179,-0.8168 -0.4564,-1.0462 -0.2381,-0.2298 -0.5667,-0.3431 -0.9889,-0.3431 h -0.1793 v 7.7718 h 0.8688 v 1.1525 h -4.7942 v -1.1525 h 0.8692 v -7.7718 h -0.1792 c -0.4171,0 -0.7434,0.1133 -0.9793,0.3409 -0.2358,0.2262 -0.388,0.5744 -0.4542,1.0484 h -0.9839 z m 12.7939,0.2422 v 0.9536 l -0.5403,0.176 v 2.9736 c 0.508,-0.4392 0.98,-0.7668 1.4162,-0.9812 0.4374,-0.2137 0.8413,-0.3199 1.2153,-0.3199 0.6474,0 1.154,0.2016 1.5164,0.6019 0.3658,0.4012 0.5482,0.9611 0.5482,1.6794 v 4.4191 h 0.517 v 0.9376 h -3.6526 v -0.9376 h 0.5112 v -3.9516 c 0,-0.3204 -0.067,-0.5625 -0.1985,-0.7243 -0.1304,-0.1636 -0.3289,-0.2445 -0.592,-0.2445 -0.2054,0 -0.4224,0.053 -0.6451,0.1586 -0.2216,0.1065 -0.435,0.2554 -0.6361,0.4465 v 4.3153 h 0.5103 v 0.9376 h -3.652 v -0.9376 h 0.5177 v -7.5078 l -0.5177,0.1691 v -0.9533 z m 11.619,6.3273 -2.8551,1.1951 c 0.217,0.4387 0.4847,0.769 0.8032,0.9939 0.3197,0.2244 0.6855,0.3353 1.0975,0.3353 0.3336,0 0.6475,-0.063 0.9394,-0.1913 0.292,-0.1289 0.5644,-0.3209 0.8136,-0.5782 l 0.5321,0.5854 c -0.5078,0.6731 -1.0652,1.1749 -1.6757,1.5007 -0.6094,0.3254 -1.2868,0.4863 -2.0358,0.4863 -1.0063,0 -1.8315,-0.3651 -2.472,-1.0968 -0.6428,-0.7311 -0.9648,-1.6643 -0.9648,-2.7967 0,-1.1169 0.352,-2.0577 1.0537,-2.8168 0.7017,-0.7613 1.5464,-1.1421 2.5285,-1.1421 0.5032,0 0.9671,0.098 1.3861,0.2921 0.4223,0.1947 0.7951,0.4844 1.1171,0.8673 0.2677,0.3103 0.4962,0.6659 0.6843,1.0649 0.1893,0.3979 0.2851,0.6731 0.2851,0.8266 0,0.059 -0.1396,0.1243 -0.4178,0.197 -0.277,0.07 -0.5493,0.164 -0.8194,0.2773 z m -1.3791,-0.711 c -0.1615,-0.5223 -0.3612,-0.9204 -0.5931,-1.2001 -0.232,-0.2778 -0.4847,-0.4163 -0.7513,-0.4163 -0.2262,0 -0.4039,0.1006 -0.5286,0.3026 -0.1269,0.2019 -0.1916,0.4816 -0.1916,0.8422 0,0.2221 0.017,0.4387 0.054,0.6502 0.037,0.212 0.089,0.4141 0.1546,0.606 z m 13.806,-0.287 h -1.7103 v -1.1078 h 3.3722 c 0.1915,0 0.3762,-0.015 0.5527,-0.048 0.1789,-0.032 0.3509,-0.08 0.5182,-0.1431 l 0.4016,0.6933 c -0.1304,0.1435 -0.225,0.293 -0.2873,0.447 -0.061,0.1558 -0.092,0.3175 -0.092,0.4912 v 4.7786 h -0.8124 l -0.6624,-1.0867 c -0.4894,0.4288 -1.0145,0.7546 -1.5788,0.9735 -0.562,0.2197 -1.1552,0.3276 -1.7795,0.3276 -1.3284,0 -2.3959,-0.4437 -3.2002,-1.3285 -0.8056,-0.8879 -1.2083,-2.0659 -1.2083,-3.5333 0,-0.7764 0.12,-1.5054 0.3612,-2.1817 0.2377,-0.6781 0.5909,-1.2804 1.0559,-1.8073 0.5067,-0.5904 1.1091,-1.0493 1.8004,-1.3756 0.6924,-0.3244 1.4148,-0.4862 2.1627,-0.4862 0.4743,0 0.9301,0.076 1.3652,0.2299 0.4374,0.1508 0.8436,0.3784 1.2245,0.6782 l 0.5747,-0.3679 0.6036,0.9373 -3.0929,2.0934 -0.5747,-0.8221 c 0.067,-0.073 0.1188,-0.1558 0.1546,-0.2472 0.038,-0.09 0.054,-0.1837 0.054,-0.2775 0,-0.2467 -0.09,-0.4542 -0.2701,-0.6256 -0.1789,-0.1686 -0.4051,-0.2541 -0.6728,-0.2541 -0.5424,0 -0.9786,0.2624 -1.3122,0.7888 -0.3346,0.5274 -0.5008,1.2334 -0.5008,2.1136 0,1.2814 0.2816,2.3557 0.8436,3.2253 0.5655,0.8702 1.2614,1.3038 2.0923,1.3038 0.1339,0 0.2504,-0.012 0.3451,-0.022 0.096,-0.01 0.1869,-0.028 0.2723,-0.058 z m 8.4789,1.1749 c -0.1108,-0.015 -0.1939,-0.028 -0.2539,-0.036 -0.057,-0.01 -0.095,-0.01 -0.112,-0.01 -0.405,0 -0.7224,0.1262 -0.9509,0.3812 -0.2297,0.2518 -0.3451,0.5973 -0.3451,1.0286 0,0.3857 0.068,0.676 0.2089,0.8725 0.1396,0.1964 0.3451,0.2952 0.6174,0.2952 0.2551,0 0.4593,-0.089 0.6128,-0.2624 0.1535,-0.1736 0.2297,-0.4062 0.2297,-0.6914 z m -2.4524,-4.0201 0.7755,0.287 -0.1419,0.4218 c 0.2862,-0.1261 0.5862,-0.2249 0.9001,-0.2907 0.3139,-0.068 0.6359,-0.1001 0.9671,-0.1001 0.7952,0 1.4241,0.2139 1.8846,0.643 0.4593,0.4291 0.6901,1.0137 0.6901,1.7549 v 4.3025 h 0.5182 v 0.9376 h -2.9186 l -0.2008,-0.7082 c -0.337,0.3047 -0.6728,0.5346 -1.011,0.6904 -0.3393,0.1545 -0.6751,0.2322 -1.0121,0.2322 -0.6947,0 -1.259,-0.2189 -1.693,-0.6576 -0.435,-0.4392 -0.6509,-1.0012 -0.6509,-1.6922 0,-0.9107 0.3116,-1.5939 0.9371,-2.0504 0.6267,-0.4562 1.5649,-0.6832 2.8113,-0.6832 0.076,0 0.1593,0 0.2481,0 0.088,0 0.2032,0.012 0.3486,0.027 l 0.01,-0.4012 c 0,-0.2391 -0.083,-0.4314 -0.2528,-0.5777 -0.1673,-0.1435 -0.3923,-0.2165 -0.6751,-0.2165 -0.3012,0 -0.5909,0.08 -0.8713,0.2398 -0.277,0.1582 -0.5297,0.3907 -0.7536,0.696 l -0.8713,-0.3455 z m 9.4321,-1.3673 0.742,0.1695 v 1.8034 h 1.2787 l -0.15,0.8718 c -0.02,0.1495 -0.044,0.2373 -0.074,0.2701 -0.027,0.033 -0.076,0.048 -0.142,0.048 h -0.9129 v 3.8171 c 0,0.3788 0.05,0.6484 0.1443,0.8047 0.096,0.1587 0.2585,0.2368 0.4882,0.2368 0.086,0 0.1777,-0.017 0.2758,-0.052 0.098,-0.033 0.2089,-0.088 0.3266,-0.1614 l 0.3831,0.5777 c -0.3543,0.3729 -0.7339,0.6603 -1.1379,0.8572 -0.4016,0.197 -0.8043,0.2948 -1.2071,0.2948 -0.6694,0 -1.1552,-0.1636 -1.4576,-0.4917 -0.3023,-0.3276 -0.4535,-0.8596 -0.4535,-1.5986 v -4.2841 h -0.6751 v -0.8578 c 0.6497,-0.1965 1.1921,-0.4871 1.6191,-0.8728 0.4305,-0.3835 0.7467,-0.8597 0.9521,-1.4327 z m 6.8343,-1.1168 v 0.9536 l -0.5401,0.176 v 2.9736 c 0.5078,-0.4392 0.9787,-0.7668 1.416,-0.9812 0.4374,-0.2137 0.8413,-0.3199 1.2153,-0.3199 0.6474,0 1.1529,0.2016 1.5164,0.6019 0.3658,0.4012 0.5482,0.9611 0.5482,1.6794 v 4.4191 h 0.517 v 0.9376 h -3.6515 v -0.9376 h 0.5101 v -3.9516 c 0,-0.3204 -0.066,-0.5625 -0.1985,-0.7243 -0.1304,-0.1636 -0.3289,-0.2445 -0.592,-0.2445 -0.2054,0 -0.4224,0.053 -0.6451,0.1586 -0.2216,0.1065 -0.4339,0.2554 -0.6359,0.4465 v 4.3153 h 0.5113 v 0.9376 h -3.6526 v -0.9376 h 0.5181 v -7.5078 l -0.5181,0.1691 v -0.9533 z m 11.6202,6.3273 -2.8551,1.1951 c 0.2158,0.4387 0.4835,0.769 0.802,0.9939 0.3197,0.2244 0.6855,0.3353 1.0975,0.3353 0.3336,0 0.6475,-0.063 0.9406,-0.1913 0.2908,-0.1289 0.5643,-0.3209 0.8124,-0.5782 l 0.5321,0.5854 c -0.5078,0.6731 -1.0652,1.1749 -1.6769,1.5007 -0.6082,0.3254 -1.2856,0.4863 -2.0346,0.4863 -1.0063,0 -1.8303,-0.3651 -2.4708,-1.0968 -0.644,-0.7311 -0.966,-1.6643 -0.966,-2.7967 0,-1.1169 0.352,-2.0577 1.0537,-2.8168 0.7028,-0.7613 1.5464,-1.1421 2.5285,-1.1421 0.5032,0 0.9671,0.098 1.3861,0.2921 0.4223,0.1947 0.7963,0.4844 1.1171,0.8673 0.2677,0.3103 0.4962,0.6659 0.6855,1.0649 0.1881,0.3979 0.2839,0.6731 0.2839,0.8266 0,0.059 -0.1397,0.1243 -0.4166,0.197 -0.277,0.07 -0.5494,0.164 -0.8194,0.2773 z m -1.3803,-0.711 c -0.1615,-0.5223 -0.36,-0.9204 -0.5943,-1.2001 -0.2308,-0.2778 -0.4824,-0.4163 -0.7501,-0.4163 -0.2262,0 -0.4028,0.1006 -0.5286,0.3026 -0.1269,0.2019 -0.1916,0.4816 -0.1916,0.8422 0,0.2221 0.017,0.4387 0.054,0.6502 0.037,0.212 0.089,0.4141 0.1546,0.606 z m 9.1436,-2.8872 0.7825,0.2796 -0.869,2.5267 c -0.2816,-0.1134 -0.5228,-0.197 -0.7167,-0.2522 -0.1939,-0.053 -0.3578,-0.081 -0.4905,-0.081 -0.2931,0 -0.5228,0.1028 -0.6901,0.308 -0.1696,0.2034 -0.2527,0.4836 -0.2527,0.844 v 3.1478 h 0.749 v 0.9376 h -3.8834 v -0.9376 h 0.5112 v -3.798 c 0,-0.197 -0.019,-0.3304 -0.052,-0.399 -0.032,-0.068 -0.096,-0.1334 -0.1858,-0.1915 l -0.2735,0.2299 -0.5321,-0.6078 1.5903,-1.934 c 0.4443,0.2117 0.7975,0.4411 1.0606,0.6856 0.2597,0.2472 0.4455,0.5268 0.5563,0.8422 0.4154,-0.6531 0.727,-1.0712 0.9301,-1.2558 0.2043,-0.1814 0.4178,-0.272 0.644,-0.272 0.1246,0 0.27,0.023 0.4339,0.071 0.1673,0.045 0.3416,0.1138 0.5309,0.2015 z m 4.5228,0.073 h 0.1015 c -0.022,0.3199 -0.041,0.5827 -0.054,0.7865 -0.013,0.2043 -0.017,0.3756 -0.017,0.5146 v 5.3993 h 0.5101 v 0.9376 h -3.6445 v -0.9376 h 0.5101 v -5.0666 l -0.5101,0.088 v -0.8422 z m -1.0202,-2.3511 c 0.3508,0 0.6324,0.084 0.8459,0.2527 0.2135,0.1668 0.3197,0.3807 0.3197,0.643 0,0.3551 -0.1766,0.6581 -0.5274,0.9075 -0.3543,0.2523 -0.7767,0.3789 -1.2718,0.3789 -0.3024,0 -0.5424,-0.079 -0.727,-0.2372 -0.1812,-0.1563 -0.2724,-0.366 -0.2724,-0.6279 0,-0.3409 0.165,-0.6453 0.4962,-0.913 0.3313,-0.2701 0.7086,-0.404 1.1368,-0.404 z m 6.2042,2.3511 h 0.1015 l -0.072,1.3011 c 0.5078,-0.4392 0.9798,-0.7645 1.416,-0.9784 0.4374,-0.2143 0.8413,-0.3227 1.2152,-0.3227 0.6475,0 1.1564,0.2016 1.5246,0.6019 0.3704,0.4012 0.5539,0.9611 0.5539,1.6794 v 4.4191 h 0.5032 v 0.9376 h -3.6376 v -0.9376 h 0.5043 v -3.9516 c 0,-0.3204 -0.067,-0.5625 -0.202,-0.7243 -0.135,-0.1636 -0.3335,-0.2445 -0.5966,-0.2445 -0.2066,0 -0.4224,0.053 -0.6451,0.1586 -0.2216,0.1065 -0.4351,0.2554 -0.6359,0.4465 v 4.3153 h 0.5101 v 0.9376 h -3.6445 v -0.9376 h 0.5101 v -5.0666 l -0.5101,0.088 v -0.8422 z m 8.7754,1.876 c 0,0.7965 0.1524,1.5136 0.4536,2.1483 0.3023,0.6356 0.6336,0.9537 0.9925,0.9537 0.2354,0 0.4189,-0.093 0.5493,-0.2774 0.1327,-0.1842 0.1985,-0.4419 0.1985,-0.7719 0,-0.8124 -0.1523,-1.5208 -0.4536,-2.1285 -0.3023,-0.6046 -0.6508,-0.9076 -1.0513,-0.9076 -0.2158,0 -0.3831,0.085 -0.5055,0.2596 -0.1223,0.1713 -0.1835,0.4135 -0.1835,0.7238 z m 1.1806,5.9764 c -0.1131,0.1617 -0.1985,0.3258 -0.2527,0.4872 -0.057,0.1635 -0.083,0.3276 -0.083,0.4967 0,0.255 0.053,0.4537 0.1639,0.5977 0.1108,0.1434 0.2631,0.2148 0.4535,0.2148 0.1627,0 0.292,-0.053 0.3878,-0.1594 0.097,-0.1062 0.1431,-0.2469 0.1431,-0.4232 0,-0.2679 -0.072,-0.5069 -0.2158,-0.7216 -0.142,-0.2148 -0.3416,-0.3784 -0.5967,-0.4922 z m -3.753,-1.2101 c 0.5424,-0.1238 1.041,-0.2623 1.4945,-0.4136 0.4547,-0.1535 0.8552,-0.3203 1.2003,-0.4967 -0.7802,-0.1713 -1.3988,-0.5095 -1.8558,-1.0117 -0.4535,-0.5018 -0.682,-1.0941 -0.682,-1.7723 0,-0.8376 0.3358,-1.5385 1.0063,-2.1029 0.6728,-0.5631 1.5049,-0.8451 2.5043,-0.8451 0.2528,0 0.4951,0.015 0.7259,0.046 0.2285,0.03 0.4467,0.073 0.6532,0.1329 0.1604,-0.562 0.3312,-0.9331 0.5182,-1.1173 0.187,-0.1814 0.4755,-0.2718 0.869,-0.2718 0.079,0 0.1593,0 0.2493,0.015 0.089,0.011 0.1742,0.026 0.2608,0.043 l -0.2954,1.4272 c -0.1166,-0.068 -0.2147,-0.1151 -0.2932,-0.1435 -0.076,-0.028 -0.1431,-0.04 -0.2019,-0.04 -0.085,0 -0.1535,0.022 -0.2031,0.065 -0.052,0.046 -0.076,0.1032 -0.076,0.179 0,0 0.2181,0.2651 0.6555,0.792 0.4339,0.5297 0.652,1.1219 0.652,1.7776 0,0.8323 -0.3093,1.5236 -0.9301,2.0702 -0.6209,0.5502 -1.5846,0.9894 -2.8944,1.3192 1.2475,0.1619 2.1454,0.4086 2.7005,0.7391 0.5528,0.3303 0.8297,0.7768 0.8297,1.344 0,0.5753 -0.2965,1.0642 -0.8874,1.4627 -0.5932,0.3986 -1.3214,0.5977 -2.1904,0.5977 -0.7513,0 -1.3376,-0.1256 -1.7576,-0.3807 -0.4201,-0.2522 -0.629,-0.6049 -0.629,-1.0596 0,-0.335 0.1177,-0.6225 0.3508,-0.8674 0.2366,-0.2445 0.5828,-0.431 1.0364,-0.5643 -0.2585,-0.041 -0.4686,-0.069 -0.6325,-0.086 -0.1627,-0.017 -0.3116,-0.025 -0.4454,-0.025 -0.1247,0 -0.2574,0.01 -0.3947,0.025 -0.1396,0.018 -0.2943,0.046 -0.4686,0.086 z"
         stroke="#231f20"
         stroke-linecap="butt"
         stroke-miterlimit="2.6131"
         stroke-width="8.3489"
         fill="none" />
      <path
         id="path22862"
         fill-rule="evenodd"
         fill="#ffffff"
         d="m 2581.8658,-2516.9069 h 1.0141 l 0.058,0.3761 h 5.7017 l 0.044,-0.3761 h 1.014 l 0.2088,3.1472 h -0.9724 c -0.066,-0.4689 -0.2181,-0.8166 -0.4566,-1.046 -0.238,-0.2299 -0.5665,-0.3432 -0.9889,-0.3432 h -0.1791 v 7.7719 h 0.8688 v 1.1524 h -4.7943 v -1.1524 h 0.8692 v -7.7719 h -0.1791 c -0.4173,0 -0.7436,0.1133 -0.9793,0.3408 -0.2358,0.2263 -0.3881,0.5746 -0.4542,1.0484 h -0.984 l 0.2085,-3.1472 z m 12.7928,0.2422 v 0.9538 l -0.5401,0.1759 v 2.9734 c 0.5082,-0.439 0.9798,-0.7666 1.4163,-0.981 0.4373,-0.2138 0.8423,-0.3199 1.2155,-0.3199 0.6481,0 1.1534,0.2015 1.5161,0.6018 0.3662,0.4013 0.5475,0.9611 0.5475,1.6794 v 4.419 h 0.5183 v 0.9377 h -3.6526 v -0.9377 h 0.5103 v -3.9515 c 0,-0.3204 -0.066,-0.5625 -0.1987,-0.7243 -0.1297,-0.1635 -0.3286,-0.2445 -0.5918,-0.2445 -0.2055,0 -0.4222,0.052 -0.6451,0.1587 -0.2213,0.1064 -0.4347,0.2553 -0.6358,0.4464 v 4.3152 h 0.5105 v 0.9377 h -3.6522 v -0.9377 h 0.5178 v -7.5077 l -0.5178,0.1691 v -0.9532 z m 11.6201,6.3273 -2.8557,1.1951 c 0.2165,0.4386 0.4844,0.769 0.8026,0.9939 0.3194,0.2243 0.6855,0.3354 1.0985,0.3354 0.3334,0 0.6469,-0.063 0.9394,-0.1914 0.2913,-0.1289 0.5639,-0.3209 0.8131,-0.5782 l 0.5322,0.5854 c -0.5088,0.6732 -1.0657,1.175 -1.6764,1.5007 -0.6083,0.3254 -1.2868,0.4862 -2.0355,0.4862 -1.0061,0 -1.8309,-0.3651 -2.472,-1.0967 -0.6422,-0.7312 -0.964,-1.6643 -0.964,-2.7967 0,-1.1169 0.351,-2.0578 1.0529,-2.8169 0.7019,-0.7613 1.5466,-1.1419 2.5281,-1.1419 0.5031,0 0.9675,0.098 1.3863,0.292 0.4224,0.1947 0.7955,0.4844 1.1173,0.8674 0.2678,0.3103 0.496,0.6657 0.6843,1.0647 0.1895,0.398 0.2854,0.6731 0.2854,0.8268 0,0.058 -0.1403,0.1242 -0.4176,0.1968 -0.2773,0.07 -0.5498,0.1641 -0.8189,0.2774 z m -1.3804,-0.711 c -0.1615,-0.5224 -0.3603,-0.9204 -0.5932,-1.2001 -0.2316,-0.2779 -0.4843,-0.4162 -0.7511,-0.4162 -0.2257,0 -0.4035,0.1004 -0.5287,0.3025 -0.1264,0.202 -0.1907,0.4816 -0.1907,0.8422 0,0.222 0.016,0.4387 0.053,0.6502 0.037,0.2121 0.089,0.414 0.1544,0.606 l 1.8554,-0.7846 z m 13.8064,-0.287 h -1.7104 v -1.1078 h 3.3727 c 0.1907,0 0.3744,-0.015 0.5522,-0.049 0.179,-0.033 0.3509,-0.08 0.5171,-0.1431 l 0.4024,0.6932 c -0.1298,0.1436 -0.2257,0.2929 -0.2878,0.4471 -0.061,0.1558 -0.093,0.3174 -0.093,0.4911 v 4.7786 h -0.8119 l -0.6634,-1.0866 c -0.4878,0.4286 -1.0142,0.7545 -1.5781,0.9734 -0.5615,0.2198 -1.1558,0.3276 -1.7794,0.3276 -1.3278,0 -2.3959,-0.4437 -3.2008,-1.3285 -0.8049,-0.8878 -1.2073,-2.066 -1.2073,-3.5333 0,-0.7765 0.1193,-1.5053 0.3603,-2.1817 0.2387,-0.6781 0.592,-1.2804 1.0552,-1.8073 0.5078,-0.5905 1.1103,-1.0493 1.8016,-1.3755 0.6926,-0.3245 1.4145,-0.4862 2.1632,-0.4862 0.4737,0 0.93,0.077 1.3641,0.2298 0.4375,0.1508 0.8446,0.3783 1.2248,0.6782 l 0.5744,-0.3679 0.6037,0.9373 -3.0921,2.0935 -0.5743,-0.8222 c 0.066,-0.073 0.117,-0.1558 0.1544,-0.2473 0.037,-0.091 0.053,-0.1836 0.053,-0.2773 0,-0.2468 -0.091,-0.4542 -0.2703,-0.6256 -0.179,-0.1687 -0.4048,-0.2541 -0.6727,-0.2541 -0.5417,0 -0.978,0.2623 -1.3126,0.7888 -0.3334,0.5273 -0.5007,1.2334 -0.5007,2.1135 0,1.2813 0.2819,2.3558 0.8435,3.2253 0.5662,0.8702 1.2623,1.3039 2.0917,1.3039 0.1357,0 0.2504,-0.012 0.3463,-0.023 0.096,-0.01 0.1872,-0.028 0.2726,-0.058 v -3.3081 z m 8.478,1.1749 c -0.11,-0.015 -0.1942,-0.028 -0.2538,-0.036 -0.056,-0.01 -0.095,-0.01 -0.1112,-0.01 -0.4059,0 -0.723,0.1262 -0.9511,0.3812 -0.2305,0.2518 -0.3463,0.5973 -0.3463,1.0287 0,0.3857 0.069,0.6758 0.2094,0.8723 0.1393,0.1966 0.3463,0.2953 0.6177,0.2953 0.255,0 0.4598,-0.089 0.6119,-0.2623 0.1544,-0.1736 0.2304,-0.4062 0.2304,-0.6915 l -0.01,-1.5779 z m -2.4521,-4.0201 0.7757,0.2871 -0.1427,0.4217 c 0.2866,-0.1262 0.5873,-0.2249 0.9008,-0.2906 0.3146,-0.067 0.6364,-0.1001 0.9674,-0.1001 0.7955,0 1.4238,0.2139 1.8847,0.6429 0.4586,0.4291 0.6903,1.0137 0.6903,1.7548 v 4.3025 h 0.517 v 0.9377 h -2.9176 l -0.2025,-0.7082 c -0.3357,0.3048 -0.6726,0.5346 -1.0107,0.6904 -0.3381,0.1545 -0.675,0.2321 -1.0108,0.2321 -0.6949,0 -1.2588,-0.2189 -1.694,-0.6575 -0.434,-0.4392 -0.6504,-1.0012 -0.6504,-1.6921 0,-0.9109 0.3124,-1.594 0.9382,-2.0506 0.6259,-0.456 1.563,-0.6832 2.8101,-0.6832 h 0.248 c 0.088,0 0.2035,0.012 0.3486,0.027 l 0.01,-0.4013 c 0,-0.2389 -0.083,-0.4313 -0.2526,-0.5775 -0.1673,-0.1436 -0.3931,-0.2167 -0.675,-0.2167 -0.3018,0 -0.5909,0.081 -0.8716,0.2399 -0.2772,0.1582 -0.5299,0.3907 -0.7534,0.696 l -0.8715,-0.3455 0.9651,-2.512 z m 9.433,-1.3673 0.7417,0.1696 v 1.8032 h 1.2775 l -0.1487,0.872 c -0.02,0.1494 -0.045,0.2371 -0.074,0.27 -0.027,0.033 -0.076,0.049 -0.1427,0.049 h -0.9125 v 3.8172 c 0,0.3788 0.05,0.6485 0.1438,0.8047 0.096,0.1586 0.2586,0.2367 0.489,0.2367 0.085,0 0.1767,-0.017 0.275,-0.052 0.098,-0.033 0.2082,-0.088 0.3263,-0.1613 l 0.3826,0.5776 c -0.3533,0.3729 -0.7335,0.6603 -1.1371,0.8573 -0.4013,0.197 -0.8037,0.2947 -1.2073,0.2947 -0.6692,0 -1.1547,-0.1635 -1.4576,-0.4917 -0.3019,-0.3276 -0.454,-0.8594 -0.454,-1.5985 v -4.2842 h -0.675 v -0.8577 c 0.6504,-0.1966 1.1932,-0.4872 1.6203,-0.8729 0.4293,-0.3833 0.7464,-0.8595 0.9523,-1.4326 z m 6.8331,-1.1168 v 0.9538 l -0.5404,0.1759 v 2.9734 c 0.5089,-0.439 0.9803,-0.7666 1.4167,-0.981 0.4376,-0.2138 0.8423,-0.3199 1.2155,-0.3199 0.6481,0 1.1535,0.2015 1.5161,0.6018 0.3662,0.4013 0.5487,0.9611 0.5487,1.6794 v 4.419 h 0.5171 v 0.9377 h -3.6523 v -0.9377 h 0.5101 v -3.9515 c 0,-0.3204 -0.066,-0.5625 -0.1978,-0.7243 -0.131,-0.1635 -0.3287,-0.2445 -0.592,-0.2445 -0.2059,0 -0.4222,0.052 -0.6457,0.1587 -0.2211,0.1064 -0.434,0.2553 -0.6364,0.4464 v 4.3152 h 0.5112 v 0.9377 h -3.6523 v -0.9377 h 0.5182 v -7.5077 l -0.5182,0.1691 v -0.9532 z m 11.6202,6.3273 -2.8557,1.1951 c 0.2164,0.4386 0.4843,0.769 0.8025,0.9939 0.3194,0.2243 0.6855,0.3354 1.0973,0.3354 0.3346,0 0.6481,-0.063 0.9406,-0.1914 0.2913,-0.1289 0.5651,-0.3209 0.8131,-0.5782 l 0.5323,0.5854 c -0.5078,0.6732 -1.0658,1.175 -1.6764,1.5007 -0.6096,0.3254 -1.2869,0.4862 -2.0345,0.4862 -1.0072,0 -1.832,-0.3651 -2.4719,-1.0967 -0.6434,-0.7312 -0.9652,-1.6643 -0.9652,-2.7967 0,-1.1169 0.351,-2.0578 1.0529,-2.8169 0.7032,-0.7613 1.5466,-1.1419 2.5282,-1.1419 0.503,0 0.9674,0.098 1.3874,0.292 0.4212,0.1947 0.7955,0.4844 1.1161,0.8674 0.2678,0.3103 0.496,0.6657 0.6855,1.0647 0.1883,0.398 0.2843,0.6731 0.2843,0.8268 0,0.058 -0.1392,0.1242 -0.4165,0.1968 -0.2784,0.07 -0.5498,0.1641 -0.82,0.2774 z m -1.3805,-0.711 c -0.1614,-0.5224 -0.3603,-0.9204 -0.5932,-1.2001 -0.2316,-0.2779 -0.4831,-0.4162 -0.751,-0.4162 -0.2258,0 -0.4025,0.1004 -0.5276,0.3025 -0.1276,0.202 -0.1918,0.4816 -0.1918,0.8422 0,0.222 0.018,0.4387 0.054,0.6502 0.037,0.2121 0.088,0.414 0.1545,0.606 l 1.8554,-0.7846 z m 9.1437,-2.8872 0.7826,0.2796 -0.868,2.5267 c -0.2831,-0.1133 -0.5229,-0.197 -0.7171,-0.2523 -0.1942,-0.052 -0.358,-0.081 -0.4913,-0.081 -0.2925,0 -0.523,0.1029 -0.6903,0.308 -0.1696,0.2034 -0.2515,0.4835 -0.2515,0.8441 v 3.1476 h 0.7487 v 0.9377 h -3.884 v -0.9377 h 0.5113 v -3.7979 c 0,-0.197 -0.018,-0.3304 -0.052,-0.3989 -0.033,-0.067 -0.096,-0.1336 -0.186,-0.1916 l -0.2738,0.23 -0.5322,-0.6078 1.5898,-1.934 c 0.4445,0.2116 0.7978,0.441 1.0611,0.6855 0.2597,0.2472 0.4469,0.5269 0.5568,0.8422 0.4153,-0.653 0.7265,-1.0711 0.9301,-1.2558 0.2047,-0.1814 0.4176,-0.2719 0.6434,-0.2719 0.1252,0 0.2703,0.022 0.4352,0.07 0.1673,0.045 0.3405,0.1139 0.53,0.2015 l 0.1567,-0.345 z m 4.5228,0.073 h 0.1017 c -0.023,0.3199 -0.042,0.5827 -0.055,0.7865 -0.011,0.2042 -0.016,0.3756 -0.016,0.5145 v 5.3992 h 0.51 v 0.9377 h -3.6453 v -0.9377 h 0.5112 v -5.0665 l -0.5112,0.088 v -0.8422 l 3.1049,-0.8797 z m -1.0202,-2.3511 c 0.351,0 0.6329,0.083 0.847,0.2527 0.2129,0.1668 0.3182,0.3806 0.3182,0.6429 0,0.355 -0.1754,0.6581 -0.5264,0.9076 -0.3545,0.2522 -0.7768,0.3788 -1.2728,0.3788 -0.3007,0 -0.5417,-0.079 -0.7266,-0.2371 -0.1813,-0.1563 -0.2725,-0.366 -0.2725,-0.6279 0,-0.3411 0.1649,-0.6453 0.4971,-0.9131 0.3312,-0.2701 0.709,-0.4039 1.136,-0.4039 z m 6.2038,2.3511 h 0.1019 l -0.071,1.301 c 0.5078,-0.4391 0.9793,-0.7646 1.4168,-0.9784 0.4363,-0.2144 0.8411,-0.3226 1.2143,-0.3226 0.6481,0 1.157,0.2016 1.5243,0.6018 0.3709,0.4014 0.5545,0.9611 0.5545,1.6794 v 4.419 h 0.5031 v 0.9377 h -3.6371 v -0.9377 h 0.503 v -3.9515 c 0,-0.3204 -0.066,-0.5625 -0.2012,-0.7243 -0.1346,-0.1635 -0.3334,-0.2445 -0.5966,-0.2445 -0.2059,0 -0.4224,0.053 -0.6458,0.1587 -0.2211,0.1064 -0.4341,0.2553 -0.6353,0.4464 v 4.3152 h 0.5101 v 0.9377 h -3.6453 v -0.9377 h 0.5112 v -5.0665 l -0.5112,0.088 v -0.8422 l 3.1048,-0.8797 z m 8.7764,1.876 c 0,0.7964 0.1521,1.5134 0.4528,2.1482 0.303,0.6356 0.6341,0.9537 0.9921,0.9537 0.2363,0 0.4199,-0.094 0.5498,-0.2774 0.1334,-0.1842 0.1989,-0.4418 0.1989,-0.7719 0,-0.8125 -0.1521,-1.5209 -0.4539,-2.1285 -0.3019,-0.6046 -0.6505,-0.9077 -1.0506,-0.9077 -0.2152,0 -0.3826,0.085 -0.5054,0.2597 -0.1228,0.1713 -0.1837,0.4135 -0.1837,0.7239 z m 1.1805,5.9762 c -0.1136,0.1619 -0.1989,0.326 -0.2527,0.4873 -0.056,0.1636 -0.084,0.3275 -0.084,0.4967 0,0.255 0.054,0.4539 0.165,0.5977 0.1111,0.1436 0.2632,0.2148 0.4539,0.2148 0.1626,0 0.2913,-0.053 0.3884,-0.1595 0.096,-0.106 0.1416,-0.2468 0.1416,-0.4232 0,-0.2677 -0.071,-0.5068 -0.2153,-0.7215 -0.1427,-0.2148 -0.3416,-0.3784 -0.5966,-0.4923 z m -3.753,-1.21 c 0.5416,-0.1238 1.0412,-0.2622 1.4939,-0.4135 0.4551,-0.1536 0.8552,-0.3204 1.2015,-0.4968 -0.7815,-0.1713 -1.4004,-0.5095 -1.8566,-1.0117 -0.4539,-0.5018 -0.682,-1.0941 -0.682,-1.7722 0,-0.8377 0.3369,-1.5387 1.0061,-2.103 0.6726,-0.563 1.5056,-0.845 2.5035,-0.845 0.2527,0 0.496,0.015 0.7277,0.046 0.2269,0.03 0.4456,0.073 0.6515,0.133 0.1604,-0.5621 0.3323,-0.9332 0.5183,-1.1174 0.1872,-0.1814 0.4761,-0.2718 0.8692,-0.2718 0.079,0 0.1591,0 0.2504,0.015 0.088,0.011 0.1743,0.025 0.2597,0.043 l -0.2948,1.4271 c -0.117,-0.067 -0.2153,-0.1151 -0.2936,-0.1434 -0.076,-0.028 -0.1428,-0.04 -0.2012,-0.04 -0.087,0 -0.1545,0.023 -0.2036,0.066 -0.052,0.046 -0.076,0.1034 -0.076,0.1793 0,0 0.2176,0.2649 0.6551,0.7918 0.4341,0.5297 0.6528,1.122 0.6528,1.7778 0,0.8321 -0.31,1.5235 -0.9312,2.0701 -0.62,0.5502 -1.584,0.9893 -2.8931,1.3192 1.2471,0.1618 2.1456,0.4085 2.7001,0.739 0.5522,0.3304 0.8294,0.7768 0.8294,1.344 0,0.5753 -0.2959,1.0644 -0.8879,1.4628 -0.5919,0.3985 -1.3208,0.5977 -2.19,0.5977 -0.7511,0 -1.3372,-0.1257 -1.7571,-0.3807 -0.4201,-0.2522 -0.6294,-0.6051 -0.6294,-1.0596 0,-0.3351 0.1181,-0.6226 0.3509,-0.8674 0.2363,-0.2445 0.5826,-0.431 1.0365,-0.5645 -0.2586,-0.04 -0.4679,-0.068 -0.6329,-0.086 -0.1626,-0.018 -0.3112,-0.025 -0.4446,-0.025 -0.1251,0 -0.2573,0.01 -0.3954,0.025 -0.1392,0.018 -0.2948,0.046 -0.4679,0.086 l -0.8692,-0.923"
         style="fill:#000000;fill-opacity:1;stroke-width:0.357549;stroke-miterlimit:2.6131;stroke-dasharray:none" />
    </g>
  </g>
</svg>
