<svg xmlns="http://www.w3.org/2000/svg" width="582.7959" height="169.8719" viewBox="0 0 154.1981 44.9453">
  <g stroke-width=".3451">
    <path fill-rule="evenodd" d="M136.1561 12.5706v-.1773l.0077-.1684.0122-.1621.0168-.154.0214-.1458.0267-.1387.029-.1296.0344-.1198.0947-.1927.1572-.3061.1519-.2774.1456-.2502.1402-.2233.134-.1981.126-.172.1197-.1486.1116-.1278.1064-.1072.0983-.0918.0947-.077.092-.0654.0928-.0585.0975-.053.1027-.0478.1152-.0462.1304-.043.1466-.04.1661-.0363.1867-.0323.2108-.0277.234-.0215.2565-.0154.2796-.0093h.3046l.3297.0077.352.0116.3752.0184.4011.0254.0496.0077.0168.1297.0138.1873.0076.2224-.0076.254-.0168.28-.0283.307-.158 1.3514.9728 1.437.979.58.8532.1917.746-.0115.703-.154.7112-.3205.7182-.5637.7933-1.1579.0206-1.1705.0176-.2819.0282-.2584.039-.234.0466-.209.0534-.1854.0611-.1657.0657-.1495.071-.1323.0756-.1207.084-.1135.0946-.108.1072-.1053.1233-.1054.1439-.1044 1.498-.9365-.0488-1.8962-.055-.4817-.0973-.4655-.1331-.443-.168-.415-.1938-.3854-.2162-.3539-.2377-.3268-.2519-.2953-.2626-.2657-.2725-.2377-.284-.2143-.294-.1891-.3037-.1656-.3198-.1414-2.036-.7033-1.2069 1.8378-.0821.1125-.0642.077v.0077h-.0214l-.091-.0154-.1966-.081-.4012-.1594-.4074-.1576-.4162-.153-.4217-.1477-.427-.1404-.4342-.1343-.4421-.1251-.4485-.1144-.4547-.1044-.4619-.0919-.469-.0792-.4753-.064-.4806-.0484-.4886-.0308-.4959-.0123-.501.0077-.5057.0285-.5092.0515-.5146.0747-.5173.1009-.5172.126-.5181.1513-.52.1801-.519.208-.5164.234-.5145.2648-.511.2917-.5083.3232-.503.3494-.4985.38-.5145.4258-.5253.4908-.5003.55-.4547.5853-.4073.6114-.3636.6375-.3198.6573-.2797.6744-.2403.688-.2019.7013-.1652.7122-.1304.7185-.0947.7257-.0619.7293-.0275.7339.0077.7348.0366.731.0672.7302.1.7267.1322.7212.1644.7123.1966.7031.2305.6925.2644.6796.2992.6624.3332.6454.3725.6253.4092.6032.4494.5748.4886.5444.5316.51.5726.4712.6932.4791.5941.2827.4234.1956.4244.1903.4243.1833.4243.1776.4262.1698.427.1626.4261.1533.4288.146.4324.1358.4333.1258.4341.1144.4369.1041.4394.0907.4414.0777.4405.0631.4725.0531.4699.0393.4699.0261.4708.0108h.4681l.469-.017.469-.03.4672-.0438.4672-.0577.4664-.0708.4663-.0838.4654-.0967.4655-.1093.4653-.1217.4664-.134.4655-.1457.4663-.1568.4663-.1688.4681-.1797.4708-.1907.4708-.2022.4743-.2125.4753-.2226.4798-.2335.4814-.2442.4852-.2542.4895-.2634.494-.2747.4984-.2835.5039-.2938.5092-.3038 1.1962-.7288.5217-1.1915.2234-.9191-.293-1.7114-1.5223-1.0921-1.0819-.047-.4449.0783-.1473.037-.2662.0554-.268.1053-.084.0323-.0832.033-.0839.0324-.084.0323-.1116.0431-.4458.1153-.5825.1459-.5878.1404-.5914.1341-.595.126-.5931.1163-.5923.1045-.5878.0908-.5824.0775-.5718.0608-.5628.0423-.5494.0246-.5324.0077-.5147-.0169-.4949-.037-.4716-.0584-.4485-.08-.4199-.1-.393-.1216-.3663-.1404-.3377-.1594-.3118-.1801-.2885-.2-.269-.2232-.251-.2494-.2376-.281-.2242-.3196-.2117-.3647-.1983-.4169-.1814-.4753-.1626-.5385-.1447-.6339-.0343-.1818-.0329-.2062-.0282-.2027-.0214-.197-.0168-.1946-.01-.1882-.0076-.1819zm-24.3339 15.2045.6351.4512.7031.2821 1.5527.2455 1.106-.9028.2268-.178.2242-.1695.2243-.1607.2233-.1541.2242-.146.2225-.1379.2215-.13.2198-.1214.2216-.115.2188-.106.2189-.0977.218-.0908.2197-.0836.218-.0746.217-.067.2162-.0592.2171-.0516.2198-.0447.2198-.0377.2197-.0284.2225-.0216.2242-.0138.226-.0077h.2269l.2323.01.2368.0184.2384.027.2412.0361.2475.0455.2528.0554 1.0426.2623 1.2453-.4716.7691-.58.5602-.8389.2474-.8655.0267-.7136-.0657-.543-.0965-.4156-.3993-1.343-1.182-.6247-.1223-.0762-.0929-.0685-.071-.0608-.0504-.0516-.039-.0446-.0313-.0447-.0305-.0508-.029-.0585-.0306-.0708-.0305-.0866-.0313-.108-.0313-.1296-.029-.1495-.0283-.1692-.042-.307-.0822-.3972-.0504-.2764-.0435-.2818-.039-.2872-.0335-.2899-.0275-.2935-.0222-.2981-.0168-.3017-.0122-.306-.0076-.309v-.6293l.0076-.3205.0076-.3233.0123-.325.0152-.3305.0176-.333.0206-.335.0237-.3368.026-.3412.0251-.344.0283-.3457.0283-.3476.029-.3512.029-.3529.0305-.354.0283-.3564.0282-.3593.0268-.361.026-.362.0228-.3638.0306-.5069-.0168-.2908V7.307l.0076-.01.0077-.02.0175-.033.0283-.0478.042-.0631.058-.0762.0748-.0883.0939-.1.1108-.1098.1277-.117.1448-.1243 1.7938-1.4659-.9738-2.0285-.0812-.1792-.1635-.3223-.285-.443-.4485-.489-.5994-.425-.6772-.2809-1.1086-.217-.863.2828-.2286.0715-.227.0631-.2286.0593-.227.0531-.226.0493-.226.043-.2287.0386-.2287.0346-.226.0285-.227.0246-.2268.02-.2296.0146-.2297.0116-.2268.0077h-.4628l-.2304-.0077-.2314-.01-.234-.0139-.2341-.0177-.2323-.0215-.235-.0254-.2367-.0293-.2386-.033-.2375-.0362-.2395-.04-.2394-.0432-.2412-.047-.2403-.05-.243-.053-.9308-.218-.9827.3296-.4699.2152-.52.3386-.5216.5069-.4387.6834-.2653.7842-.0804.778.168 1.988 1.507.7645.2082.108.192.1036.1787.1008.1635.099.1483.0955.1358.0954.1197.091.1054.09.0956.0892.0857.09.0769.091.0694.0927.029.407.0459.5393.0511.5502.0527.5627.0573.5726.0573.5817.055.588.0519.5943.048.595.042.5989.0345.595.026.5908.0152.5852.0076.5754-.0099.5627-.023.5484-.0396.5294-.0542.5097-.0688.4843-.0866.4567-.1019.428-.116.3951-.1296.3594-.143.3237-.1527.289-.1634.2553-.1716.2234-.185.1976-.2.1762-.2216.1583-1.8653 1.0615.2662 2.1965.1286.5637.219.5927.3448.5994.4949.5648zm-7.6034-25.4942-.159.0946-.1555.0846-.1509.0755-.1457.0646-.1348.0508-.1286.0408-.1198.0292-.1108.02-.101.01h-.0954l-.0466-.0076-.1295-.0254-.234-.057-.2422-.0685-.251-.0774-.2609-.0883-.2716-.0981-.284-.1063-.2984-.1125-.3127-.1189-.3252-.1224-.342-.1216-.3601-.1225-.3779-.1179-.3948-.1107-.4137-.1-.586-.118-.6075-.0153-.4028-.0093-.4048-.0077h-.812l-.4074.0077-.4073.0147-.4092.0223-.4119.0292-.4109.0385-.411.047-.4135.0608-.4145.0715-.4137.083-.4145.098-.4145.1134-.4154.1297-.4118.1459-.411.1638-.4082.1847-.4047.2043-.3993.2233-.394.2449-.3867.2665-.3788.2891-.3699.3088-.3618.3313-.3493.353-.3394.3728-.328.3935-.3162.415-.3805.5448-.2216.4358-.1429.3007-.1384.3061-.1296.3089-.1234.3133-.1143.3151-.109.3197-.1.3232-.0947.3269-.0858.3313-.0794.334-.071.3368-.0634.3385-.055.3422-.0496.3485-.0397.3466-.0329.3493-.026.3549-.0167.3565-.01.3583v.3602l.0077.3637.0122.3666.0206.3664.0275.371.0359.3736.0428.3755.0504.3755.058.3808.0649.3817.0725.3836.1144.5529.2733.7545.0718.1783-.3278-.5807-.3494-.6429-.318-.6141-.2912-.587-.2653-.561-.2394-.5367-.2162-.5123-.1947-.4934-.1754-.4718-.1571-.4547-.1402-.4366-.1257-.426-.113-.4114-.1005-.4025-.0904-.3935-.0817-.389-.0741-.3863-.0687-.3836-.0634-.3844-.0603-.388-.058-.3935-.0566-.398-.058-.407-.0604-.416-.0633-.4259-.068-.434-.0756-.4483-.1371-.759-.437-.978-.4582-.7364-.5873-.6501-.701-.5024-.7214-.3053-.6232-.1368-.4575-.0447-.4812-.027-.5806.0478-.4084.0316-.4059.0292-.405.027-.4044.0246-.402.0223-.4003.0185-.3996.0169-.3981.0123-.3954.0093-.3944.0076h-.7841l-.3891-.0076-.3887-.0124-.3884-.0169-.3856-.0223-.3832-.0277-.3828-.0331-.3817-.0385-.3804-.0439-.3779-.0508-.3768-.057-.377-.0638-.3758-.0708-.3738-.0762-.3737-.0846-.3724-.0919-.372-.099-.3702-.1071-.3698-.1153-1.672-.5582-1.3208 1.0715-.336.316-.3482.4025-.3414.5222-.2819.669-.1487.7878.0382.8267.3863 1.4054.9897.7176.2823.1945.2869.19.2882.18.292.1757.2946.1693.2976.1638.3002.1585.3028.154.3043.1476.1801.0847-.415.1503-.5583.345-.4616.4186-.3742.4628-.299.4916-.2384.514-.1894.5385-.1302.4917-.0702.2827-.0603.2044-.0718.207-.082.2144-.0925.2187-.1026.2224-.1116.227-.1229.2332-.1322.2395-.1389.2413-.1473.2476-.1546.254-.1608.26-.1644.2639-.1693.2692-.1737.279-.1756.2866-.1748.2925-.1752.3016-.1738.3116-.1713.3242-.166.3331-.1595.3458-.1494.3556-.0946-.225-.3065-.7133-.308-.7032-.3096-.6941-.3101-.6816-.3113-.6717-.311-.659-.311-.6475-.3091-.633-.3078-.6204-.3061-.606-.3042-.5897-.3004-.5754-.2974-.5582-.2938-.543-.103-.1854-.0244-.1198-.0397-.2251-.0344-.2331-.0305-.2423-.0275-.252-.0237-.2603-.0198-.2692-.0168-.2773-.0168-.2899-.0153-.2972-.0153-.3034-.0152-.3124-.0168-.3242-.0176-.3296-.0122-.1855.019-.4726-.0374-.7528-.1932-.9157-.5672-1.0723-1.0748-.8446-1.2056-.2783-1.0005.0883-.7593.2152-.147.0485-.042.0108-.0473.01-.0534.0084-.0619.0077-.0664.0077h-.2528l-.097-.0077-.1057-.0107-.1149-.0123-.1213-.0177-.129-.0193-.1345-.0223-.1557-.0285-.499-.0863-.4872-.0762-.4617-.064-.4413-.0538-.4227-.0446-.4051-.037-.3905-.0315-.3776-.027-.3675-.023-.3597-.0224-.3546-.0208-.3552-.0246-.3595-.0262-.3685-.0292-.381-.0362-.8393-.0892-1.0712.2612-.832.6024-.5277.6194-.387.6708-.2795.804-.1053 1.0553.3451 1.3425.8427.914.4763.2962.1777.1116.176.1117.1754.1134.1751.1144.174.1152.1723.1153.1723.1161.1714.117.1692.118.1696.1188.1696.1207.1685.1207.1665.1206.0963.0716.0412.0554.0435.0654.0375.0623.032.0616.0275.057.0237.0592.0214.0624.0175.0639.0077.02-.0436.0677-.1647.253-.163.2494-.16.243-.1592.237-.1592.2331-.157.2251-.1563.2188-.156.2107-.156.2044-.1542.1963-.154.1863-.1531.1774-.1535.1702-.0796.082-.1047.1062-.1518.1566-.2083.2341-.246.3359-.2472.4484-.1925.5438-.0138.0775-.0336-.0077-.8477.023-.947.3404-.7207.6168-.0404-.0723-.3183-.5646-.3256-.578-.3312-.5907-.3367-.5997-.3413-.606-.344-.6095-.3473-.6105-.3492-.6096-.35-.605-.3504-.5988-.3505-.5897-.3489-.5772-.3476-.5646-.3451-.5483-.3434-.5312-.3409-.5114-.3388-.489-.3378-.4673-.3381-.443-.3403-.4196-.3461-.3953-.3616-.3745-.3905-.3566-.4382-.3367-.5273-.3134-.6676-.2601-.5782-.082-.421-.0216c-2.9267.2575-5.8436.19-8.7732-.081l-.6054.016-.8117.2163-.6934.397-.5077.407-.4192.4178-.3666.4421-.3382.5023-.3407.6988-.6264 3.227 3.0211.4493.2942.0578.2546.0638.2106.0678.1656.0677.1197.0616.0768.0485.0404.033.016.017.0077.0077.0076.013.0146.0362.0206.0802.019.1396.0085.208-.0077.0928-.0527.1953-.1245.4322-.1236.4052-.1224.3781-.1209.353-.1185.3268-.118.3052-.117.2864-.114.2655-.1123.246-.1114.2313-.112.2197-.1106.207-.1093.1946-.1113.1881-.7241 1.1805.3895 1.464-.0504.0223-.8748.9472-.3221 1.0111-.1441.4458-.1449.4443-.1451.4423-.1458.4406-.1478.439-.1464.4368-.1487.4364-.148.4344-.149.4313-.1496.4304-.1509.4302-.1504.4276-.151.426-.1518.4248-.153.4238-.1535.4236-.1531.4209-.1539.42-.1543.4182-.1552.4185-.1554.4158-.156.4161-.157.4146-.157.415-.1574.4126-.1577.4115-.1584.4115-.158.4105-.1596.4093-.1591.4095-.0775.1977-.159.263-.2761.458-.2723.4473-.2714.435-.2718.4208-.275.4048-.2789.3879-.2858.3694-.293.3498-.3012.3282-.3131.3082-.3273.2877-.3444.2687-.364.2479-.389.2297-1.2472.6247-.7004 1.3857-.1815 1.025.0813.966.3057.897.5496.8325.871.7087 1.2148.3756 1.424-.211.7231-.551.1892-.137.1926-.1325.195-.127.1997-.1213.2049-.119.21-.113.2135-.1078.2193-.103.2252-.0996.2315-.0947.2376-.0889.2426-.084.2505-.0792.2582-.0739.2632-.0685.2712-.0623.2811-.0578.2897-.0508.2956-.0446.3053-.0393.3148-.0323.3224-.0254.3323-.0185.3416-.0115h.7128l.3707.0115.3814.0193.3922.027.4013.0361.9223.0998 1.369-.4083.9795-1.057.417-1.0614.1069-.9605-.1009-.9321-.35-.9768-.7548-.9931-1.1076-.5973-.1441-.0215v-.0231l-.0145-.3173-.0077-.324.0077-.3316.0175-.3397.0275-.3461.039-.3535.0496-.3634.0619-.3703.0725-.377.0835-.3852.0952-.394.1068-.4005.118-.4073.1302-.415.1416-.4228.1532-.4297.165-.4376.1763-.4425.1884-.4505.2-.4587.2104-.4632.2223-.47.2342-.4775.2446-.483.2554-.489.267-.4953.2781-.502.2882-.5078.3539-.6075.4195-.8543-.0718-1.3604-.1866-.4217.1172-.054.7475-.6482.3078-.4872.0904-.125.1522-.226.1454-.228.1379-.2313.1322-.235v-.0077l.2562.2286.4051.4277.425.5142.4358.5924.4416.6673.4417.7324.4404.7938.4347.8456.4272.8915.4178.9306.4075.9648.3957.9912.3825 1.013.3685 1.0276.3542 1.0364.3382 1.0394.322 1.0372.3047 1.0285.2864 1.0143.2684.9937.2492.9679.229.9359.2092.8982.1875.8533.166.8037.1435.747.1201.682.096.6102.0717.5259.0527.4874.0687.6035.2622.8133.4368.7538.6384.6643.8796.505 1.104.1967 1.157-.256.7418-.5167.4757-.44.3448-.3197.3454-.3195.3444-.3195.3451-.3202.3452-.3193.3455-.3198.3444-.3201.3454-.3193.3448-.3197.3455-.3198.3448-.3193.3454-.3197.3452-.3204.3454-.3204.2736-.254.3144-.2494.4453-.4585.371-.5033.283-.5153.2003-.493.133-.4462.084-.3763.1853-1.008-.3633-1.0083-.1252-.3367-.1284-.3365-.1323-.3363-.1354-.3347-.139-.336-.1426-.3373-.1455-.3355-.148-.3345-.1517-.336-.155-.3357-.1584-.3364-.161-.3358-.164-.336-.1667-.3351-.154-.306-.1534-.3183-.1163-.2712-.0949-.2531-.0764-.2364-.0588-.2192-.0435-.2089-.032-.2019-.0214-.1928-.01-.1863v-.1886l.0077-.193.0168-.1956.0252-.201.0343-.2123.0436-.2243.0511-.2332.0611-.2414.0695-.2581.0782-.2733.0834-.2843.0897-.297.0942-.3131.0977-.3278.0981-.3418.099-.3567.0974-.3745.0932-.3887.0877-.4045.0801-.4221.0718-.4379.0596-.4537.0137-.1402.5832.0192.679-.1437.2454-.1102.1196.1935.192.3162.1908.3208.19.3256.1884.3303.1863.3331.1846.3387.1836.3418.1818.3468.1804.3514.1787.3553.1769.36.1755.3638.1727.3683.1728.3735.1702.3777.1694.3833.1671.3873.1653.3908.1627.3956.1627.4017.1597.4056.158.4097.1565.4161.1552.42.1529.4252.151.4297.1494.4347.1477.4397.1448.4446.1438.4495.104.3341.0504.2469.0672.3532.0588.3358.0488.318.0382.2962.026.271.0145.245v.2134l-.0076.179-.0146.1383-.016.0984-.0114.0431-.0352.0331-.1693.1603-.1667.1563-.1637.1515-.1626.1481-.161.1432-.1538.1356-.1546.1317-.1532.128-.1469.1189-.1428.1115-.1395.1051-.1354.0978-.1294.0893-.1212.0795-1.0807.6616-.3588 1.6221-.0527.7738.1347.9202.46.9734.788.7693.8818.4093.7976.1375 1.3478-.023.797-.6152.1165-.0849.1225-.0832.126-.081.1337-.0801.1423-.0805.148-.0778.1525-.0762.159-.074.1687-.073.1751-.0724.1815-.0693.1898-.0661.198-.0655.2033-.0623.105-.03.0867-.0147.2076-.033.208-.0308.203-.0285.2006-.027.2025-.0246.2017-.023.1957-.0208.1968-.0177.1972-.0178.1969-.0153.195-.0139.194-.0123.1948-.0116.1932-.0092.1906-.0077.1913-.0077.1936-.0077.193-.0077H56.357l.191-.0003.1932.0003h.5769l.194.0077.193.0077.194.0077.1954.0077.253.0085.171.0261.3025.0493.2984.0508.2942.0539.2928.0577.29.0616.2867.0654.2842.0685.282.0746.28.0795.2793.0845.275.0897.2746.096.2729.102.2711.1083.558.2389.872.1547.8623-.0292.9007-.2568.8903-.57.7258-.9452.3347-1.2043-.1082-1.1722-.4858-1.1583-.805-.799-.4952-.4422-.4868-.398-.4725-.3623-.453-.3324-.4272-.3081-.3974-.288-.3642-.2727-.3267-.2595-.2883-.2483-.2484-.2389-.2111-.2318-.1773-.2275-.1486-.2311-.1278-.245-.0904-.2252-.1465-.5852-.2066-.7805-.2163-.7805-.2261-.7805-.235-.7797-.2439-.7777-.052-.161.0726.0169.5094.0077.2465.0003h.4794l.2391-.0077.2384-.0077.2385-.0077.2387-.0077.2398-.0077.2446-.0077.2505-.0077.2534-.0077.2586-.0077h.8787l.4986-.0161.543-.0647.5444-.1225.5356-.192.5145-.2655.4668-.3323.3996-.3726.3234-.3844.258-.3714.207-.3503.1695-.3225.1431-.2934.129-.2717.123-.2569.122-.2433.119-.2248.1064-.1794.0672-.0971.0412-.0508.0382-.04.0703-.0608.1332-.1004.2102-.1452 1.1797-.7808.269-1.28.0505-.2756.0183-.1214.016.3042.0153.3247.013.3203.0107.3166.0084.3133.0076.3082.0077.3056.0076.3029v.9454l.1996.7738.2132.5563.3065.5512.4117.5079.4938.4168.5143.2884.462.1688.9322.2199.796-.2462.1493-.0447.1469-.043.1449-.04.1423-.0378.141-.0346.1392-.0316.1406-.0292.1386-.027.143-.0238.1459-.0208.1466-.0185.1496-.0154.156-.0123.1588-.0085.1648-.0077h.1714l.1799.0077.186.0077.1934.0131.2034.0177.214.0239.2233.0292.2299.0354.2425.0431.2559.05.2658.0578.2768.0646.2882.0747.3033.0823.3147.0922.5485.1685.6004.0754.636-.0162.7781-.1942.8308-.5025.6468-.8033.3279-.8798.0866-.7776-.061-1.0049.2912.336.4476.4674.4735.4442.4966.4207.52.3956.544.3704.5655.345.3234.1763.1233.1006.3867.2757.4003.2479.411.2166.4215.1875.4306.1576.4352.1276.4367.0972.4396.0708.4404.043.4378.0178.4367-.0077.4325-.027.4288-.0477.427-.0662.7075-.1407.5127-.2589.1806-.0822.1974-.0805.2144-.0795.2278-.0762.2421-.0732.2545-.07.2627-.0646.2698-.06.2796-.0563.2814-.0508.285-.0454.2868-.0408.2858-.0361.2868-.03.2502-.024.2295-.01.1662.0078.1385.0146.1143.0216.1019.0284.0983.0362.1.0462.1054.0592.118.0785.1357.1026.1492.1278.1653.1536.1804.1827.1966.2105.2108.239.5386.6295.7692.4253.5807.199.5735.0936h.528l.4654-.0593.3957-.0939.328-.1047 2.5996-.98-.9648-2.7901-.0894-.2888-.0748-.2716-.0603-.2599-.0497-.2461-.0359-.2305-.0252-.2155-.0145-.2033-.0076-.1882.0076-.1748.0115-.1618.0183-.1517.0252-.1423.0305-.1319.0367-.1256.0428-.121.0488-.1157.0543-.1133.0603-.1103.0702-.1112.0786-.1115.0884-.1122.0983-.1132.1099-.115.1223-.1154.1359-.1175.1483-.1182.1626-.1189.176-.1175.192-.1181.2054-.1182 1.3579-.7185.3252-1.7882-.0076-.8005-.1947-.8338-.3967-.7662-.5252-.5942-.5548-.4124-.5298-.2702-.9201-.333-.8112.0935-.2358.0262-.2349.0254-.2359.0246-.2358.0231-.234.0216-.2333.0207-.233.0193-.236.0184-.1428.01 1.0478-.7446.2662-1.373.065-.3116.0671-.3025.0718-.2927.0756-.2836.0804-.2746.0866-.2638.092-.2557.101-.2485.1072-.2423.1153-.234.125-.2297.1367-.225.1483-.2224.1635-.2207 1.0067-1.2398-.3198-1.5973-.108-.4376-.1582-.4853-.2323-.5313-.3358-.5546-.4619-.5447-.5887-.4736-1.7912-.9365-1.399.977-.1714.1197-.169.1153-.1661.1098-.1643.1036zm-1.281 11.1728-.1841-.0085-.2286-.013-.2287-.0147-.2296-.017-.2279-.0191-.2277-.0216-.9175-.0972-.9585.4484-.469.315-.4136.3865-.3369.4294-.2573.4457-.1822.4349-.125.4124-.5924 2.8344-.1179-.023-.1679-.037-.1617-.0416-.1563-.043-.151-.047-.1439-.0508-.1402-.0539-.133-.0554-.126-.0577-.1242-.0631-.118-.0647-.1099-.0654-.1044-.0685-.102-.0731-.0964-.0747-.0902-.0754-.0876-.0801-.0703-.0693-.1321-.1485-.117-.1522-.1171-.1737-.1152-.199-.1108-.2198-.1054-.2413-.0992-.2611-.0893-.28-.0813-.2962-.0687-.308-.058-.3205-.0466-.3322-.0329-.3404-.0206-.3448-.0076-.3502.0076-.3936.0076-.1963.0107-.1593.0176-.1648.023-.171.0305-.1747.0381-.1774.0436-.1819.0519-.1846.058-.1854.0634-.1865.0695-.1854.0768-.1855.083-.1854.0885-.1838.0939-.181.0982-.1782.1045-.1747.1081-.171.1117-.1658.1152-.1611.1197-.1558.1224-.1495.1242-.1431.126-.135.126-.128.1285-.1205.1305-.1135.1277-.1036.1269-.0954.0381-.0262.1492-.0138.2359-.0154.2519-.0077h.2672l.2777.0077.2859.0107.2886.0177.2939.027.2947.0346.2913.0431.2868.0493.2805.0585.2716.0654.2867.081.3699.109.3573.1053.3037.0927.2386.081.1018.0409v.1324l-.0245.3331-.285 2.0034 1.349 1.129.3377.2351zm-34.859-2.5625.0527.0154.3277.0946.3255.0918.325.09.3262.0901.1589.0424.0152.0238.0634.1045.074.1306.0785.1512.0831.1702.0855.1882.09.207.0908.2234.0921.235.0924.2503.094.2647.0949.2773.0952.2881.095.299.0955.3088.0957.3178.0115.04-.2593-.3007-.5112-.4168-.4955-.2702-.49-.1674-.4553-.082-.275-.0139.0266-.1386.0459-.6997-.0657-.7301-.2045-.7357-.18-.3484"/>
    <path fill="none" stroke="#231f20" stroke-miterlimit="2.6131" stroke-width=".3293" d="M2667.2198-2542.457v-.2311l.01-.2194.016-.2087.023-.2016.028-.1885.035-.1803.039-.1683.044-.1565.1235-.2502.2066-.3973.1985-.3604.1916-.3248.1835-.2905.1742-.2573.1662-.2242.1558-.1932.1466-.1648.1385-.1399.1304-.1186.1234-.1.1201-.085.1223-.077.1269-.067.1351-.063.1511-.059.1708-.056.1916-.052.217-.048.2447-.041.2769-.036.3059-.028.3358-.02.3658-.01h.3994l.4315.01.4606.015.4916.023.525.033.065.01.023.1684.017.2443.01.288-.01.3297-.021.364-.037.3984-.2078 1.756 1.2742 1.8675 1.2821.7529 1.1172.2501.9774-.015.9198-.2004.9313-.4162.9417-.7315 1.0387-1.5059.026-1.52.023-.3664.038-.3356.05-.3047.061-.2715.07-.2407.079-.2146.088-.1944.093-.1719.099-.1566.1108-.1482.1234-.1399.1397-.1375.1616-.1364.1892-.1364 1.9619-1.2164-.065-2.4639-.073-.6261-.1258-.6035-.1754-.5751-.2193-.5394-.255-.5016-.2827-.4589-.3105-.4244-.3312-.3854-.3428-.3438-.3577-.3095-.3717-.2787-.3842-.2454-.3982-.2158-.419-.1838-2.6658-.913-1.5799 2.3881-.1085.1458-.084.1-.01.01h-.028l-.1189-.021-.2574-.1042-.5262-.2087-.5332-.2039-.5447-.1993-.5527-.1908-.5586-.1826-.569-.1744-.5781-.1636-.5886-.1482-.5955-.1364-.6048-.1185-.6139-.1032-.622-.083-.6302-.063-.6393-.04-.6497-.017-.6567.01-.6612.038-.6671.067-.6728.097-.6774.1317-.6787.1624-.6785.198-.6809.2324-.6797.2704-.6752.3058-.6751.3427-.6694.3795-.6646.4196-.659.4542-.652.4932-.6741.5537-.6878.6368-.6555.7161-.5955.7601-.5332.7944-.4765.8276-.4189.8536-.3659.8775-.3139.894-.2655.9106-.2157.9249-.1708.9343-.1247.9426-.081.9473-.037.9533v.9546l.049.9496.088.9498.1316.9438.1731.9367.2146.926.2574.9142.3024.8992.3461.883.3925.8604.4362.8386.487.8125.5366.7838.5886.7466.6405.7075.6947.6626.7514.6123.907.6224.7779.3675.5539.254.5562.2473.5552.2381.5562.2307.5574.2208.5597.211.5586.1994.562.1896.5655.1764.5667.1636.5689.1484.5713.1354.577.1178.5782.101.5758.082.6186.069.6163.05.6151.034.6162.014h.614l.6128-.022.6139-.039.6129-.058.6116-.075.6106-.092.6105-.1088.6092-.1257.6094-.142.6105-.1582.6105-.174.6093-.1893.6105-.2038.6105-.2194.6128-.2334.6174-.2477.6163-.2627.6209-.2761.622-.2893.6278-.3034.6313-.3172.6359-.3303.6405-.3423.6474-.3569.652-.3685.6602-.3815.6659-.3948 1.5683-.9469.6821-1.5482.292-1.1941-.3832-2.2236-1.9931-1.4189-1.4171-.061-.5828.102-.1928.048-.3485.072-.3508.1376-.1097.041-.1096.043-.1097.043-.1095.043-.1466.056-.584.1494-.7628.1897-.7697.1826-.7744.1742-.7778.1649-.7779.15-.7755.1362-.7698.1179-.7628.1-.749.079-.7362.055-.7202.032-.6971.01-.6739-.021-.6486-.048-.6174-.077-.5875-.1038-.5504-.1302-.5136-.1577-.4789-.1824-.4431-.2076-.4086-.2335-.3774-.2597-.352-.2905-.33-.3236-.3093-.3652-.2943-.4162-.277-.4731-.2596-.5419-.2377-.6166-.2124-.7007-.1904-.8228-.044-.2372-.044-.2679-.036-.2621-.029-.2573-.021-.2526-.014-.2442-.01-.236zm-31.8674 19.755.8321.5862.921.3665 2.0323.319 1.4495-1.173.2966-.2313.2942-.2202.2931-.2089.2932-.2001.2931-.1897.2909-.1791.2896-.1691.2885-.1577.2897-.1494.2873-.1375.2862-.1271.2862-.1179.2875-.1087.2849-.097.284-.087.2838-.078.284-.067.2884-.058.2875-.049.2873-.038.292-.028.2931-.018.2966-.01h.2966l.3035.013.3115.024.3117.035.3162.047.3243.059.3312.072 1.3652.3408 1.6295-.6128 1.0075-.7536.7341-1.0898.3242-1.1247.035-.9272-.087-.7056-.1269-.5397-.5216-1.7452-1.5488-.8116-.1604-.099-.1212-.089-.094-.079-.067-.067-.05-.059-.041-.057-.04-.066-.038-.076-.039-.092-.04-.1129-.04-.1393-.041-.169-.038-.1943-.036-.2203-.055-.399-.1085-.5155-.066-.3593-.058-.3664-.051-.3723-.044-.377-.035-.3806-.03-.3878-.022-.3924-.016-.3984-.01-.4007v-.817l.01-.4162.011-.421.016-.422.02-.4292.024-.4328.026-.4352.03-.4374.034-.4447.034-.4458.037-.4494.038-.4517.038-.4566.038-.4576.04-.4601.038-.4636.036-.4659.036-.4696.034-.4707.031-.4731.038-.6581-.02-.3782v-.045l.01-.026.021-.043.036-.062.055-.083.076-.098.099-.1163.1224-.1291.1442-.1424.1674-.1529.1903-.1612 2.3486-1.9042-1.2753-2.6359-.1072-.2335-.2136-.4186-.3728-.575-.5873-.6356-.7848-.5513-.8875-.3652-1.4518-.2822-1.1298.3675-.2989.092-.2977.083-.2989.077-.2978.068-.2965.063-.2955.057-.2989.05-.3001.044-.2966.038-.2965.032-.2966.026-.3001.019-.3013.015-.2977.01h-.6059l-.3023-.01-.3023-.012-.3059-.019-.307-.023-.3046-.028-.307-.033-.3104-.038-.3128-.043-.3116-.048-.3127-.052-.3139-.057-.3152-.061-.315-.066-.3185-.068-1.2187-.2822-1.2868.4281-.6162.2797-.6798.44-.6831.658-.5747.8881-.3474 1.0185-.1051 1.0114.2193 2.5824 1.9746.9936.2723.1399.2505.1352.2342.1305.2147.1292.1939.1245.1777.1233.1569.1186.1385.1174.1247.115.1119.1174.1005.1173.091.1209.038.5289.059.7007.067.7149.07.7305.074.7446.075.7565.071.7635.069.7707.063.7743.055.7778.045.7731.034.7683.02.76v.747l-.013.7316-.03.7126-.052.6877-.07.6622-.091.6293-.1131.5935-.1327.5562-.1535.5132-.1697.467-.1858.4205-.2007.3756-.2136.3317-.225.2902-.2424.2568-.2619.229-.2897.2057-2.4432 1.379.3486 2.8539.1685.7326.2874.7701.45.7785.6486.7341zm-9.9561-33.1243-.2089.1234-.203.1102-.1974.097-.1916.084-.1766.067-.1685.053-.1558.039-.1453.025-.1328.013h-.1246l-.06-.01-.1708-.033-.3059-.074-.3173-.088-.3289-.1019-.3416-.1151-.3567-.1269-.3704-.1375-.3912-.147-.4098-.1541-.4258-.1577-.4477-.1589-.4721-.159-.4951-.1529-.517-.1435-.5412-.1303-.7663-.1531-.7963-.021-.5286-.01-.5297-.01h-.5297l-.5332.01-.5343.01-.5332.019-.5354.028-.539.038-.5378.05-.5389.062-.5413.077-.5435.093-.5413.1091-.5435.1268-.5424.1471-.5436.1683-.5401.1897-.5378.2135-.5343.2395-.5298.2644-.5227.2916-.5159.3179-.5066.3462-.4962.3746-.4847.402-.4732.4304-.4581.4576-.4444.485-.4293.5122-.4143.5384-.4986.7078-.2896.5668-.1869.3913-.1812.3959-.1697.4032-.1615.4067-.1501.4091-.1431.4162-.1304.4185-.1235.4256-.1131.4305-.1038.4327-.093.4388-.083.4398-.073.4447-.064.4517-.052.4506-.043.4541-.034.4612-.023.4636-.013.4648v.4695l.01.4708.018.4766.026.4766.035.4814.048.4861.056.4874.065.4885.075.4944.085.4968.096.498.1488.7186.3578.9802.095.2311-.4304-.7549-.457-.8358-.4166-.7968-.382-.7624-.3463-.7293-.3139-.6971-.2827-.6664-.2562-.6402-.2285-.6131-.2066-.5904-.1835-.568-.1639-.5526-.1488-.5359-.1316-.5216-.1177-.5111-.1073-.5063-.097-.5015-.089-.4992-.084-.4992-.079-.5051-.076-.5098-.074-.5182-.076-.5276-.079-.5419-.083-.5525-.089-.5644-.099-.5822-.1795-.9864-.5722-1.2699-.6-.958-.769-.8431-.9181-.6533-.9446-.396-.8161-.1791-.5992-.058-.6301-.035-.7605.062-.5346.04-.5316.039-.5305.035-.5296.032-.5265.03-.5242.025-.5232.02-.5214.017-.5177.012-.5165.01h-.515l-.5118-.01-.5095-.01-.5091-.017-.5085-.022-.5051-.028-.5018-.036-.5013-.044-.4999-.05-.4981-.057-.4949-.066-.4936-.075-.4935-.081-.4922-.092-.4894-.1008-.4894-.109-.4876-.1198-.4872-.1293-.4848-.1387-.4844-.1493-2.1894-.7257-1.7297 1.3931-.44.4091-.4561.5229-.447.6795-.3692.869-.1947 1.0233.05 1.0742.506 1.826 1.296.9331.3697.2526.3756.2466.3775.2336.3824.2288.3857.2205.3899.2123.3931.2063.3966.1992.3985.1921.2358.1102-.5433.1957-.7312.447-.6047.5442-.4899.6012-.3915.6391-.3123.6675-.2481.6995-.1704.6392-.092.3675-.079.2644-.094.2704-.1073.2786-.1212.2846-.1344.2881-.1462.294-.1608.3035-.1733.3108-.1818.3141-.1929.3226-.2023.3296-.2107.3378-.2153.3428-.2216.3497-.2276.3629-.2299.3723-.2289.3794-.2294.3924-.2276.4044-.2243.4209-.2175.4334-.2089.4496-.1956.4611-.1238-.2921-.4013-.9263-.4035-.9142-.4053-.9011-.4063-.8857-.4076-.8727-.4072-.856-.4071-.8419-.4049-.8217-.4031-.8063-.4008-.7873-.3984-.7671-.3935-.747-.3894-.7257-.3848-.7054-.1347-.2407-.032-.1553-.051-.293-.045-.3022-.04-.3154-.036-.3273-.031-.3391-.026-.3486-.022-.3604-.021-.3771-.02-.3853-.02-.3949-.02-.4067-.021-.4197-.023-.4293-.016-.2406.025-.6142-.049-.9782-.2531-1.1893-.7426-1.3932-1.4075-1.0979-1.5789-.3616-1.3102.1149-.9945.2799-.1923.063-.055.014-.062.013-.07.012-.08.01-.087.01-.098.01h-.1119l-.1211-.01-.127-.01-.1385-.013-.1504-.017-.159-.023-.1687-.026-.1763-.028-.2037-.037-.6536-.1127-.638-.099-.6046-.083-.5781-.071-.5534-.058-.5304-.048-.5114-.041-.4945-.035-.4813-.031-.471-.028-.4643-.028-.4653-.031-.4706-.035-.4826-.039-.499-.046-1.0991-.1162-1.4029.339-1.0894.7839-.6911.805-.5067.8715-.3661 1.0446-.138 1.3706.4519 1.7442 1.1036 1.1869.6238.3854.2327.1458.2303.1446.2299.147.2293.1495.2276.1481.2258.1506.2258.1506.2244.1518.2215.1529.2222.1554.222.1565.2208.1564.218.1577.1262.093.054.072.057.084.049.081.042.08.036.075.031.076.028.081.023.083.01.025-.057.089-.2157.3285-.2134.3237-.2098.3154-.2084.3083-.2083.3024-.2057.2928-.2047.2834-.2043.275-.2043.2644-.2019.255-.2015.243-.2007.2301-.2011.2205-.1041.1067-.1371.1375-.1988.204-.2728.3047-.3223.4363-.3235.5822-.2521.7066-.018.1008-.044-.01-1.11.031-1.2402.4423-.9437.8015-.053-.094-.4169-.7327-.4263-.7517-.4337-.7672-.441-.779-.447-.7885-.4505-.7909-.4547-.7944-.4574-.7908-.4584-.7861-.4588-.779-.4588-.7659-.457-.7506-.4552-.7327-.452-.7126-.4496-.6902-.4465-.6639-.4437-.6356-.4423-.6071-.4429-.5762-.4455-.5442-.4533-.5146-.4735-.4861-.5113-.4624-.574-.4376-.6905-.409-.8742-.338-.7573-.1055-.5511-.028c-3.8327.3355-7.6526.2478-11.4891-.1056l-.7928.021-1.0629.2811-.9081.5157-.6649.5288-.5488.5431-.4803.575-.4428.6522-.446.9082-.8204 4.1926 3.9562.5833.3852.076.3336.083.2756.086.2171.088.1567.08.1005.064.053.043.022.022.01.01.01.017.019.046.027.1044.025.1813.011.2704-.01.1197-.069.2549-.1631.5608-.1617.5265-.1605.4921-.1581.4576-.1554.4246-.1545.3959-.153.3736-.1495.345-.1471.319-.1457.3011-.1468.2846-.1448.2691-.1431.2525-.1458.2455-.9482 1.5343.51 1.9007-.066.03-1.1456 1.2307-.4218 1.3137-.1887.5791-.1897.5776-.1901.5744-.191.5726-.1932.5704-.192.5674-.1947.5672-.1937.5643-.1952.5602-.1961.5595-.1973.5589-.197.5556-.1979.5535-.1987.552-.2003.5507-.201.5502-.2006.5469-.2015.5456-.2021.5435-.2033.5438-.2033.5402-.2043.5405-.2056.5388-.2057.5392-.2061.5361-.2065.5346-.2075.5348-.207.5331-.2089.5321-.2083.5319-.1015.2568-.2084.3419-.3614.5949-.3565.5812-.3556.5654-.3559.5465-.36.526-.3652.5041-.3743.4798-.3839.4546-.3944.4264-.4099.4004-.4286.3738-.4511.3492-.4766.3221-.5096.2985-1.6332.8115-.9171 1.8005-.2377 1.3316.1065 1.2554.4003 1.1653.7197 1.0817 1.1406.9207 1.5908.4881 1.8649-.2742.947-.7161.2476-.1777.2523-.1723.2553-.1649.2614-.1577.2684-.1545.2751-.1467.2797-.1403.287-.1338.2952-.1295.3029-.1228.3112-.1157.3177-.1092.3281-.1028.3381-.096.3446-.089.3551-.081.3683-.075.3793-.067.3871-.059.3998-.051.4122-.042.4223-.033.435-.024.4474-.015.4593-.01h.4743l.4853.015.4995.025.5136.035.5256.047 1.2077.1297 1.7927-.5304 1.2828-1.3733.5461-1.3792.1399-1.2479-.1321-1.2111-.4584-1.269-.9884-1.2905-1.4504-.776-.1888-.028v-.03l-.019-.4121-.01-.4209.01-.4309.023-.4415.035-.4497.052-.4592.065-.4721.081-.4811.095-.49.1093-.5004.1248-.5117.1397-.5205.1545-.5292.1705-.5392.1854-.5494.2008-.5584.2161-.5684.2307-.575.2469-.5853.2618-.596.2755-.6019.2911-.6105.3067-.6206.3204-.6273.3344-.6358.3496-.6433.3642-.6521.3774-.6599.4634-.7893.5494-1.11-.094-1.7676-.2445-.5479.1535-.07.9789-.8422.4031-.6334.1183-.1622.1993-.2928.1905-.2976.1805-.3001.1732-.3058v-.01l.3355.2976.5304.5549.5567.6677.5708.7704.578.8668.5786.9516.5768 1.0313.5694 1.0987.5592 1.1583.547 1.2092.5337 1.2536.5184 1.2878.5008 1.316.4825 1.3354.4638 1.3467.4429 1.3503.4218 1.3477.3989 1.3362.3752 1.3179.3514 1.2909.3264 1.2577.2997 1.2161.2742 1.1671.2454 1.1085.2175 1.0443.1879.9706.1571.886.1257.7929.094.6832.069.6335.09.7842.3431 1.0565.5721.9792.8359.8633 1.152.6562 1.4459.2555 1.5149-.3327.9715-.6713.6228-.5717.4516-.4154.4524-.415.451-.4153.452-.4158.452-.415.4524-.4154.451-.4158.4524-.415.4515-.4153.4524-.4155.4515-.4149.4524-.4155.4521-.4163.4524-.4163.3582-.3299.4118-.324.5831-.5959.4857-.6539.3706-.6695.2623-.6406.1742-.5795.11-.489.2427-1.3097-.4756-1.3102-.1642-.4373-.1681-.4374-.1732-.4368-.1773-.435-.1819-.4365-.1869-.4382-.1905-.436-.1939-.4345-.1987-.4365-.203-.4365-.2073-.4367-.2108-.4365-.2147-.4365-.2185-.4354-.2015-.3976-.2011-.4136-.1521-.3522-.1243-.3291-.1-.3071-.076-.2847-.058-.2715-.042-.2622-.028-.2505-.013-.2422v-.245l.01-.2509.021-.2541.033-.2608.045-.276.057-.2916.067-.3029.08-.3135.091-.3355.1024-.3551.1093-.3693.1173-.3861.1235-.4067.1278-.4259.1285-.4442.1298-.4633.1274-.4868.1221-.5049.1148-.5255.105-.5485.094-.5688.078-.5895.018-.1824.7637.025.8892-.1869.3213-.143.1567.2513.2514.4109.25.4167.2485.4233.2468.429.244.4328.2418.44.2404.4442.2381.4505.2362.4566.234.4615.2317.468.2299.4725.2262.4785.2262.4853.2229.4908.2217.4981.2189.5031.2165.5077.2131.5141.2129.522.2094.5268.2069.5324.2047.5406.2034.5456.2001.5525.1979.5584.1956.565.1933.5711.1897.5777.1883.584.1361.434.067.321.088.4586.077.4365.064.4132.05.3847.034.3524.018.318v.2774l-.01.2327-.018.1795-.021.128-.015.056-.046.043-.2216.2083-.2184.2029-.2143.1971-.213.1924-.2107.1859-.2015.1765-.2025.1708-.2006.1664-.1924.1545-.1868.1447-.1828.1368-.1775.127-.1695.116-.1585.1034-1.4153.8596-.4698 2.1075-.069 1.0054.1765 1.1955.6023 1.2649 1.0318.9994 1.1547.5319 1.0447.1786 1.7649-.03 1.0437-.7993.1528-.1101.1604-.1084.1649-.1051.1751-.1042.1863-.1046.1938-.101.1998-.099.2083-.096.2208-.095.2294-.094.2376-.09.2486-.086.259-.085.2665-.081.1376-.039.1133-.019.2719-.043.2724-.04.2659-.037.2627-.036.2652-.032.2641-.03.2563-.027.2578-.023.2582-.023.2577-.02.2555-.018.254-.016.255-.015.2532-.012.2495-.01.2505-.01.2535-.01.2528-.01H2562.7226l.2499-.0004.2533.0004H2563.9811l.2541.01.2527.01.254.01.256.01.3313.011.2239.034.3963.064.3907.066.3852.07.3833.075.3799.08.3755.085.3721.089.3691.097.367.1033.3657.1097.36.1165.3597.1247.3573.1325.3552.1407.7305.3103 1.1421.2011 1.1293-.038 1.1794-.3337 1.1657-.7408.9506-1.2279.4382-1.5646-.1416-1.5232-.6361-1.5048-1.0543-1.0382-.6485-.5745-.6375-.5173-.6187-.4707-.5932-.4318-.5594-.4004-.5205-.3743-.477-.354-.4277-.3373-.3775-.3227-.3253-.3103-.2765-.3011-.2322-.2956-.1948-.3002-.1671-.3186-.1183-.2925-.1921-.7604-.2705-1.014-.2833-1.0141-.2961-1.014-.3076-1.0131-.3194-1.0104-.068-.2093.095.022.6672.01.3226.0005h.628l.3129-.01.3121-.01.3126-.01.3126-.01.3139-.01.3204-.01.3281-.01.3318-.01.3386-.01h1.1507l.653-.021.7111-.084.7128-.159.7015-.2495.6736-.345.6115-.4319.5232-.4838.4236-.4996.3377-.4826.271-.4552.2221-.419.1874-.3811.169-.3533.1609-.3335.1599-.3163.1559-.292.1393-.233.088-.1262.054-.065.05-.052.092-.079.1746-.1302.2751-.1887 1.5451-1.0145.3523-1.663.066-.3582.024-.1577.021.3953.019.4217.017.4164.014.4112.011.4072.01.4004.01.3971.01.3934v1.2284l.2613 1.0053.2793.7231.4011.716.5393.6598.6466.5416.6737.3748.6049.2193 1.2206.2856 1.0425-.3199.1956-.058.1923-.055.1898-.052.1863-.049.1847-.045.1823-.041.1842-.038.1814-.035.1873-.031.191-.027.1919-.024.1961-.019.2043-.016.2079-.011.2158-.01h.2243l.2357.01.2437.01.2532.017.2664.023.2802.031.2923.037.3011.046.3178.056.3349.066.3481.075.3624.084.3773.097.397.1069.4131.1198.7179.2189.7858.098.8333-.022 1.0191-.2522 1.0882-.6532.8471-1.0436.4281-1.143.1143-1.0103-.08-1.3056.3809.4363.5863.6075.6208.5771.651.5466.6808.5141.7121.4811.7397.4484.4236.2289.1615.1307.5066.3583.524.3222.5389.2814.5516.2436.5644.2048.5689.1658.5725.1262.5747.092.577.056.5735.023.5713-.01.5667-.036.562-.062.5597-.086.9256-.1828.6717-.3364.2365-.107.2586-.1045.2804-.1032.2989-.099.3161-.095.3336-.091.3451-.084.3531-.078.3658-.073.3682-.066.3728-.059.3762-.053.375-.047.3751-.039.3278-.031.3-.013.2181.01.1801.019.1511.028.1339.037.1269.047.1316.06.1385.077.1546.1021.1767.1333.1961.166.2158.1997.2366.2371.2573.2738.277.3103.7051.8179 1.0064.5526.7605.2586.7513.1216h.6924l.6094-.077.5181-.1222.4293-.136 3.4033-1.2732-1.2625-3.6253-.1177-.3751-.098-.3528-.08-.3377-.064-.3198-.048-.2994-.032-.2802-.019-.2641-.01-.2445v-.2272l.015-.2101.024-.1971.034-.1849.04-.1715.048-.1631.056-.1572.063-.1504.073-.1471.08-.1435.092-.1444.1026-.1448.1143-.1458.1304-.1471.1443-.1494.1592-.1499.1777-.1528.195-.1535.2124-.1544.2308-.1526.2504-.1536.2701-.1536 1.7784-.9331.4247-2.3243v-1.0387l-.2551-1.0848-.5182-.9949-.6889-.7718-.7259-.536-.6936-.351-1.2049-.4328-1.0629.121-.3081.035-.3081.032-.3093.032-.3082.031-.3069.027-.3058.028-.3047.025-.3092.023-.187.014 1.3721-.9675.3485-1.7845.085-.4043.089-.3924.094-.3818.099-.3688.105-.3556.113-.3428.1212-.3319.1316-.3237.1408-.3142.1511-.3048.1639-.2976.179-.2928.1938-.2893.2136-.287 1.319-1.6102-.4189-2.0761-.142-.568-.2065-.6307-.3048-.6901-.4396-.7209-.6047-.7066-.7709-.6166-2.3451-1.2166-1.8326 1.2699-.2251.1554-.2215.1494-.217.1435-.2146.1339zm-1.678 14.5167-.2412-.01-.2988-.017-.3001-.019-.3001-.023-.2977-.025-.299-.028-1.2013-.1268-1.2568.5833-.6127.409-.5414.5015-.4419.5586-.337.5798-.2389.5643-.1627.536-.7767 3.6829-.1546-.03-.2193-.049-.2124-.053-.203-.057-.1986-.061-.1881-.065-.1846-.069-.1732-.073-.1662-.075-.1626-.081-.1535-.084-.1443-.085-.1362-.089-.1338-.094-.127-.097-.1177-.099-.1143-.1042-.093-.09-.172-.1921-.1535-.198-.1535-.2264-.15-.2574-.1455-.2868-.1384-.3131-.1292-.3391-.1178-.364-.1062-.3842-.09-.4008-.076-.4162-.06-.4315-.044-.4423-.028-.4481-.01-.4542.01-.5122.01-.255.014-.2062.022-.2158.031-.2218.039-.2265.049-.2311.058-.2347.067-.2408.076-.2419.083-.2418.093-.2407.1005-.2407.1084-.2408.1154-.2395.1223-.2347.1305-.2312.1362-.2277.1407-.2229.1466-.2134.1512-.2099.157-.2027.1604-.1933.1627-.1861.1651-.1767.165-.166.1684-.1565.1697-.1471.1685-.1351.1651-.1234.05-.035.1962-.018.3081-.019.33-.01h.3498l.3635.01.3739.014.3786.023.3842.036.3867.045.3819.054.3751.066.3682.076.3542.085.3763.1055.4847.1411.4673.1363.3982.1211.3116.1054.1339.053v.1719l-.03.4328-.3739 2.6038 1.7669 1.4667.4419.3047zm-45.6494-3.3282.069.021.429.122.4265.1198.4254.1174.4273.115.2079.056.021.031.083.1364.097.1696.1028.1968.1087.2193.112.2443.1179.2703.1189.2893.1205.306.1211.3248.1229.3439.1245.3604.1248.3747.1242.3877.1252.4019.1252.4127.015.052-.3396-.3901-.6694-.5407-.649-.3522-.6415-.217-.5964-.1055-.3601-.019.035-.1802.06-.9083-.086-.9485-.2678-.9568-.2359-.4518z" transform="matrix(.76362 0 0 .76965 -1900.5922 1969.3796)"/>
    <path fill="#fff" stroke="#231f20" stroke-miterlimit="2.6131" stroke-width=".3298" d="M2685.9378-2533.0044c-8.1698 2.1346-19.4564 4.1836-21.6464-7.0002-.3365-1.8786-.4208-3.7571.1687-5.2948 2.6114-5.4628 4.801-5.9765 11.4554-5.3788 2.1051.9398 2.2739 3.2446 1.8531 5.9766.252.5126 1.5156.4273 1.7687-.2557 0-2.9877 1.0104-5.1231 3.2855-6.4891 0-1.7921-1.2636-2.8172-2.1063-3.0729-1.1792 1.8785-2.4427 2.3047-4.2115 1.7922-5.2217-2.1344-10.8658-3.5856-16.6777 1.3659-5.7282 4.8674-4.7998 17.418 1.5167 21.4311 2.7791 1.2805 5.4749 2.3052 8.002 2.6464 5.6438.7687 10.8658-1.1954 17.8561-5.4641.5064-.9395-.083-.5973-.4208-.5973-.2521.085-.5895.2555-.8427.341zm-48.853 6.3182c.083 1.1099.5052 1.6223 1.2634 1.7072 3.6208-3.0731 7.6646-4.5249 12.381-3.244.7584-.2564.6741-.8541.422-1.6218-2.275-1.1104-2.6958-2.7324-2.949-4.5254-1.0104-4.6957-.1688-9.7334.084-14.5149-.1677-1.7934.9271-3.0741 2.4427-4.2685-.252-.5125-.4208-1.1103-1.3468-1.2808-3.875 1.366-7.75 1.1091-11.4563.2557-.7584.1705-1.2636.5977-1.0948 1.6229 1.6.7682 3.201 1.7069 4.127 3.6707.2532 6.2322 3.1167 18.6983-3.8738 22.1986zm-15.6679-11.3562c-.5896.1704-.8428.683-.926 1.3671 1.1792.2557 2.4427.4262 3.3687.9387.6739.8537.9271 2.0486.3376 3.2441-.7584 1.4514-2.2751 1.6223-3.6231 1.8786-3.5374.3414-7.0749-.1709-9.2644-2.4763-1.7699-1.7927-2.6959-4.9522-2.5271-8.1115 0-3.5855 2.3583-7.6835 5.3906-9.3908 1.6844-.2569 4.5478-.2569 6.9072.5113 2.7792.7683 4.8854 1.0251 4.1271 5.6357.4208.4261 1.0104.683 1.6843.085.5052-2.4763 1.0948-4.8662 3.0323-7.0017-.252-1.0238-.5052-1.9637-1.4323-2.3899-1.178.8535-3.0312 2.1343-5.1374 1.9638-2.3583-.4273-4.2958-1.6228-6.6542-2.0489-5.4749-.1717-10.1919.085-13.5611 5.0366-1.7688 3.3298-2.274 7.3426-1.2636 12.1246 1.2636 3.6705 3.5374 6.4882 6.9917 8.1955 1.6 1.4513 3.7062 1.7077 5.9802 1.1954 1.7687-.854 4.2957-1.3659 6.4853-1.5369 2.6958-.2562 4.1281 1.0251 5.8958 3.1588.675.4272 1.2635.2562 1.853 0-1.9363-5.3786-.252-8.7082 3.875-10.8424.2532-1.0251-.2519-1.5377-1.0947-1.7934-3.4531.4261-6.9073.5978-10.4446.2557zm-51.7178-14.002c3.2007 2.3911 7.4963 3.6719 11.9608 4.8674 1.8531.7683 3.2008 5.6345 4.5488 10.8433.2527 2.6464.3368 4.9519.3368 7.0865.2527 1.1095.7581 1.3658 1.2635 1.4517 2.3585-.7686 4.8852-1.2813 10.0234.341.7572.086 1.2636-.085 1.0948-1.1096-7.7496-11.782-7.0755-16.1368-8.1705-22.0273-.8422-2.049-1.769-1.9637-2.6952-1.9637-5.8119.4261-11.6239.5965-17.5201-1.3673-.6739.5126-1.1788 1.1104-.8421 1.8786zm5.4751 11.2701c-.8427 2.0489-4.5487 7.5137-2.0217 6.6596.4214-.5118 1.2636-1.1944 2.1063-1.8786.8417-.6819 1.6839-1.4513 2.5267-1.707.5049-.085.9262-.1716 1.3475.085 1.179.7682.9263 3.1589.6736 4.3544-1.2635.7682-1.7689 1.195-2.3585 2.3051-1.2636 2.2199-1.2636 3.6712-3.8742 3.6712-2.1908-.085-3.6225.085-5.2224 0-1.0109-.085-1.769-1.1099-1.8531-2.5608-.2526-4.1837 4.0429-7.2573 5.0538-11.7829.2528-1.3661.8427-1.9638 1.3476-2.0491 1.0109-.2557 3.3694-.2557 2.2744 2.9025zm-31.8392 4.5253c.4208.1717.9262-.085 1.4317-.7682 1.3476-.085 2.3584.5977 3.1165 1.8785 2.864 4.6103 5.3906 10.074 7.4124 16.6487.5894 2.8173.9267 5.3787-.4209 6.8305-1.2636 1.1099-2.5271 2.305-3.7066 2.9882-.3369 1.2805 0 1.7927 1.1795 1.7073 1.1789-.9391 2.6953-1.6223 4.4642-2.1341 3.2847-.5982 6.0645-.5982 8.9285-.4273 2.2739.3419 4.5483.7683 6.8228 1.7932 1.1789.3414 2.1057-.4274 1.5158-1.4513-2.6958-2.8178-6.3174-3.8419-7.5805-7.5988-2.6112-10.3314-7.5809-21.2598-11.4554-28.1752-.5055-2.049-.5055-4.1832-.6736-6.3186.1681-1.8774-.1691-2.732-2.0216-2.0491-1.1796.4273-2.3586.2569-3.5381.086-3.3688-.5977-5.1378-.5126-8.1703-.8546-.6737 0-1.5158 1.5376-.7582 2.0489 1.2636.8547 2.6113 1.7081 3.7907 2.5616.9263 1.1103 1.6004 2.3911 1.4317 4.1833-1.179 1.7933-2.2739 3.6719-3.7061 5.1231-.4209.5126-.7581.683-.8422 1.1955 0 .683.5895 1.366 1.1795 1.8786.5054.4272.8422.8535 1.6003.8535zm-34.7874-2.1342c0 .8535 3.7065 2.9877 4.5487 1.1091.4209-.5113.7581-1.1091 1.095-1.7921.7581-1.7934.5895-2.4764 2.948-1.366 7.9176 3.757 14.1508 28.3455 14.7404 34.9193 0 1.1954.9267 1.9641 1.6003 1.2809 2.4431-2.22 4.8011-4.4396 7.2441-6.66 1.0109-.6828 1.179-1.5364 1.3477-2.3051-.8423-2.1341-1.769-4.3545-2.948-6.5736-2.7798-5.5501.4209-8.4527.8421-13.7465-.3367-1.5368-2.6953-3.757-3.4534-2.8172-1.3476 3.7568-2.6111 3.7568-3.4533 2.5613-3.7907-6.232-10.1077-18.8678-12.6347-18.7826-4.3802.5113-7.5808.2556-12.0459-.1716-.7577.086-1.9372 1.5376-1.9372 1.9649 3.1166.4261 5.307 1.6217 4.9698 5.2924-.9264 3.5866-1.9373 5.5492-2.864 7.0869zm-15.7512 30.821c-.6741.9395 0 2.3054.9264 1.9641 3.2007-2.4764 7.6649-3.8423 14.0665-3.0737 1.0104-.086 1.0104-2.1345 0-2.3909-.9267-.085-1.7689-.4268-2.2748-1.5368-.9263-5.4641 1.2641-11.8672 5.6436-19.3805.8428-.9396-3.3688-3.1591-3.9588-2.0492-2.0212 6.3173-4.2115 12.2088-6.4855 17.929-1.9375 3.0742-3.7905 6.6596-7.9176 8.5378z" transform="matrix(.76362 0 0 .76965 -1900.5922 1969.3796)"/>
    <path fill="none" stroke="#231f20" stroke-miterlimit="2.6131" stroke-width=".2301" d="M2581.8273-2516.8908h1.0141l.059.3761h5.7018l.044-.3761h1.0139l.2089 3.1473h-.9725c-.066-.469-.2179-.8168-.4564-1.0462-.2381-.2298-.5667-.3431-.9889-.3431h-.1793v7.7718h.8688v1.1525h-4.7942v-1.1525h.8692v-7.7718h-.1792c-.4171 0-.7434.1133-.9793.3409-.2358.2262-.388.5744-.4542 1.0484h-.9839zm12.7939.2422v.9536l-.5403.176v2.9736c.508-.4392.98-.7668 1.4162-.9812.4374-.2137.8413-.3199 1.2153-.3199.6474 0 1.154.2016 1.5164.6019.3658.4012.5482.9611.5482 1.6794v4.4191h.517v.9376h-3.6526v-.9376h.5112v-3.9516c0-.3204-.067-.5625-.1985-.7243-.1304-.1636-.3289-.2445-.592-.2445-.2054 0-.4224.053-.6451.1586-.2216.1065-.435.2554-.6361.4465v4.3153h.5103v.9376h-3.652v-.9376h.5177v-7.5078l-.5177.1691v-.9533zm11.619 6.3273-2.8551 1.1951c.217.4387.4847.769.8032.9939.3197.2244.6855.3353 1.0975.3353.3336 0 .6475-.063.9394-.1913.292-.1289.5644-.3209.8136-.5782l.5321.5854c-.5078.6731-1.0652 1.1749-1.6757 1.5007-.6094.3254-1.2868.4863-2.0358.4863-1.0063 0-1.8315-.3651-2.472-1.0968-.6428-.7311-.9648-1.6643-.9648-2.7967 0-1.1169.352-2.0577 1.0537-2.8168.7017-.7613 1.5464-1.1421 2.5285-1.1421.5032 0 .9671.098 1.3861.2921.4223.1947.7951.4844 1.1171.8673.2677.3103.4962.6659.6843 1.0649.1893.3979.2851.6731.2851.8266 0 .059-.1396.1243-.4178.197-.277.07-.5493.164-.8194.2773zm-1.3791-.711c-.1615-.5223-.3612-.9204-.5931-1.2001-.232-.2778-.4847-.4163-.7513-.4163-.2262 0-.4039.1006-.5286.3026-.1269.2019-.1916.4816-.1916.8422 0 .2221.017.4387.054.6502.037.212.089.4141.1546.606zm13.806-.287h-1.7103v-1.1078h3.3722c.1915 0 .3762-.015.5527-.048.1789-.032.3509-.08.5182-.1431l.4016.6933c-.1304.1435-.225.293-.2873.447a1.3278 1.3278 0 0 0-.092.4912v4.7786h-.8124l-.6624-1.0867c-.4894.4288-1.0145.7546-1.5788.9735-.562.2197-1.1552.3276-1.7795.3276-1.3284 0-2.3959-.4437-3.2002-1.3285-.8056-.8879-1.2083-2.0659-1.2083-3.5333 0-.7764.12-1.5054.3612-2.1817.2377-.6781.5909-1.2804 1.0559-1.8073.5067-.5904 1.1091-1.0493 1.8004-1.3756.6924-.3244 1.4148-.4862 2.1627-.4862.4743 0 .9301.076 1.3652.2299.4374.1508.8436.3784 1.2245.6782l.5747-.3679.6036.9373-3.0929 2.0934-.5747-.8221a.7894.7894 0 0 0 .1546-.2472.7077.7077 0 0 0 .054-.2775c0-.2467-.09-.4542-.2701-.6256-.1789-.1686-.4051-.2541-.6728-.2541-.5424 0-.9786.2624-1.3122.7888-.3346.5274-.5008 1.2334-.5008 2.1136 0 1.2814.2816 2.3557.8436 3.2253.5655.8702 1.2614 1.3038 2.0923 1.3038.1339 0 .2504-.012.3451-.022.096-.01.1869-.028.2723-.058zm8.4789 1.1749c-.1108-.015-.1939-.028-.2539-.036-.057-.01-.095-.01-.112-.01-.405 0-.7224.1262-.9509.3812-.2297.2518-.3451.5973-.3451 1.0286 0 .3857.068.676.2089.8725.1396.1964.3451.2952.6174.2952.2551 0 .4593-.089.6128-.2624.1535-.1736.2297-.4062.2297-.6914zm-2.4524-4.0201.7755.287-.1419.4218a4.538 4.538 0 0 1 .9001-.2907c.3139-.068.6359-.1001.9671-.1001.7952 0 1.4241.2139 1.8846.643.4593.4291.6901 1.0137.6901 1.7549v4.3025h.5182v.9376h-2.9186l-.2008-.7082c-.337.3047-.6728.5346-1.011.6904-.3393.1545-.6751.2322-1.0121.2322-.6947 0-1.259-.2189-1.693-.6576-.435-.4392-.6509-1.0012-.6509-1.6922 0-.9107.3116-1.5939.9371-2.0504.6267-.4562 1.5649-.6832 2.8113-.6832h.2481c.088 0 .2032.012.3486.027l.01-.4012c0-.2391-.083-.4314-.2528-.5777-.1673-.1435-.3923-.2165-.6751-.2165-.3012 0-.5909.08-.8713.2398-.277.1582-.5297.3907-.7536.696l-.8713-.3455zm9.4321-1.3673.742.1695v1.8034h1.2787l-.15.8718c-.02.1495-.044.2373-.074.2701-.027.033-.076.048-.142.048h-.9129v3.8171c0 .3788.05.6484.1443.8047.096.1587.2585.2368.4882.2368.086 0 .1777-.017.2758-.052.098-.033.2089-.088.3266-.1614l.3831.5777c-.3543.3729-.7339.6603-1.1379.8572-.4016.197-.8043.2948-1.2071.2948-.6694 0-1.1552-.1636-1.4576-.4917-.3023-.3276-.4535-.8596-.4535-1.5986v-4.2841h-.6751v-.8578c.6497-.1965 1.1921-.4871 1.6191-.8728.4305-.3835.7467-.8597.9521-1.4327zm6.8343-1.1168v.9536l-.5401.176v2.9736c.5078-.4392.9787-.7668 1.416-.9812.4374-.2137.8413-.3199 1.2153-.3199.6474 0 1.1529.2016 1.5164.6019.3658.4012.5482.9611.5482 1.6794v4.4191h.517v.9376h-3.6515v-.9376h.5101v-3.9516c0-.3204-.066-.5625-.1985-.7243-.1304-.1636-.3289-.2445-.592-.2445-.2054 0-.4224.053-.6451.1586-.2216.1065-.4339.2554-.6359.4465v4.3153h.5113v.9376h-3.6526v-.9376h.5181v-7.5078l-.5181.1691v-.9533zm11.6202 6.3273-2.8551 1.1951c.2158.4387.4835.769.802.9939.3197.2244.6855.3353 1.0975.3353.3336 0 .6475-.063.9406-.1913.2908-.1289.5643-.3209.8124-.5782l.5321.5854c-.5078.6731-1.0652 1.1749-1.6769 1.5007-.6082.3254-1.2856.4863-2.0346.4863-1.0063 0-1.8303-.3651-2.4708-1.0968-.644-.7311-.966-1.6643-.966-2.7967 0-1.1169.352-2.0577 1.0537-2.8168.7028-.7613 1.5464-1.1421 2.5285-1.1421.5032 0 .9671.098 1.3861.2921.4223.1947.7963.4844 1.1171.8673.2677.3103.4962.6659.6855 1.0649.1881.3979.2839.6731.2839.8266 0 .059-.1397.1243-.4166.197-.277.07-.5494.164-.8194.2773zm-1.3803-.711c-.1615-.5223-.36-.9204-.5943-1.2001-.2308-.2778-.4824-.4163-.7501-.4163-.2262 0-.4028.1006-.5286.3026-.1269.2019-.1916.4816-.1916.8422 0 .2221.017.4387.054.6502.037.212.089.4141.1546.606zm9.1436-2.8872.7825.2796-.869 2.5267c-.2816-.1134-.5228-.197-.7167-.2522-.1939-.053-.3578-.081-.4905-.081-.2931 0-.5228.1028-.6901.308-.1696.2034-.2527.4836-.2527.844v3.1478h.749v.9376h-3.8834v-.9376h.5112v-3.798c0-.197-.019-.3304-.052-.399-.032-.068-.096-.1334-.1858-.1915l-.2735.2299-.5321-.6078 1.5903-1.934c.4443.2117.7975.4411 1.0606.6856.2597.2472.4455.5268.5563.8422.4154-.6531.727-1.0712.9301-1.2558.2043-.1814.4178-.272.644-.272.1246 0 .27.023.4339.071.1673.045.3416.1138.5309.2015zm4.5228.073h.1015c-.022.3199-.041.5827-.054.7865a8.0817 8.0817 0 0 0-.017.5146v5.3993h.5101v.9376h-3.6445v-.9376h.5101v-5.0666l-.5101.088v-.8422zm-1.0202-2.3511c.3508 0 .6324.084.8459.2527.2135.1668.3197.3807.3197.643 0 .3551-.1766.6581-.5274.9075-.3543.2523-.7767.3789-1.2718.3789-.3024 0-.5424-.079-.727-.2372-.1812-.1563-.2724-.366-.2724-.6279 0-.3409.165-.6453.4962-.913.3313-.2701.7086-.404 1.1368-.404zm6.2042 2.3511h.1015l-.072 1.3011c.5078-.4392.9798-.7645 1.416-.9784.4374-.2143.8413-.3227 1.2152-.3227.6475 0 1.1564.2016 1.5246.6019.3704.4012.5539.9611.5539 1.6794v4.4191h.5032v.9376h-3.6376v-.9376h.5043v-3.9516c0-.3204-.067-.5625-.202-.7243-.135-.1636-.3335-.2445-.5966-.2445-.2066 0-.4224.053-.6451.1586-.2216.1065-.4351.2554-.6359.4465v4.3153h.5101v.9376h-3.6445v-.9376h.5101v-5.0666l-.5101.088v-.8422zm8.7754 1.876c0 .7965.1524 1.5136.4536 2.1483.3023.6356.6336.9537.9925.9537.2354 0 .4189-.093.5493-.2774.1327-.1842.1985-.4419.1985-.7719 0-.8124-.1523-1.5208-.4536-2.1285-.3023-.6046-.6508-.9076-1.0513-.9076-.2158 0-.3831.085-.5055.2596-.1223.1713-.1835.4135-.1835.7238zm1.1806 5.9764c-.1131.1617-.1985.3258-.2527.4872a1.49 1.49 0 0 0-.083.4967c0 .255.053.4537.1639.5977.1108.1434.2631.2148.4535.2148.1627 0 .292-.053.3878-.1594.097-.1062.1431-.2469.1431-.4232 0-.2679-.072-.5069-.2158-.7216-.142-.2148-.3416-.3784-.5967-.4922zm-3.753-1.2101c.5424-.1238 1.041-.2623 1.4945-.4136.4547-.1535.8552-.3203 1.2003-.4967-.7802-.1713-1.3988-.5095-1.8558-1.0117-.4535-.5018-.682-1.0941-.682-1.7723 0-.8376.3358-1.5385 1.0063-2.1029.6728-.5631 1.5049-.8451 2.5043-.8451.2528 0 .4951.015.7259.046.2285.03.4467.073.6532.1329.1604-.562.3312-.9331.5182-1.1173.187-.1814.4755-.2718.869-.2718.079 0 .1593 0 .2493.015.089.011.1742.026.2608.043l-.2954 1.4272c-.1166-.068-.2147-.1151-.2932-.1435-.076-.028-.1431-.04-.2019-.04-.085 0-.1535.022-.2031.065-.052.046-.076.1032-.076.179 0 0 .2181.2651.6555.792.4339.5297.652 1.1219.652 1.7776 0 .8323-.3093 1.5236-.9301 2.0702-.6209.5502-1.5846.9894-2.8944 1.3192 1.2475.1619 2.1454.4086 2.7005.7391.5528.3303.8297.7768.8297 1.344 0 .5753-.2965 1.0642-.8874 1.4627-.5932.3986-1.3214.5977-2.1904.5977-.7513 0-1.3376-.1256-1.7576-.3807-.4201-.2522-.629-.6049-.629-1.0596 0-.335.1177-.6225.3508-.8674.2366-.2445.5828-.431 1.0364-.5643-.2585-.041-.4686-.069-.6325-.086a4.3125 4.3125 0 0 0-.4454-.025c-.1247 0-.2574.01-.3947.025a4.9063 4.9063 0 0 0-.4686.086z" transform="matrix(.76362 0 0 .76965 -1900.5922 1969.3796)"/>
    <path fill-rule="evenodd" d="M70.978 32.2353h.7743l.0443.2895h4.354l.0335-.2895h.7744l.1594 2.4223h-.7425c-.0504-.361-.1666-.6285-.3487-.8051-.1818-.177-.4326-.2641-.7552-.2641h-.1367V39.57h.6634v.887h-3.661v-.887h.6637v-5.9816h-.1368c-.3186 0-.5678.0872-.7478.2623-.18.1741-.2963.4422-.3468.8069h-.7514l.1592-2.4223zm9.7688.1864v.7341l-.4125.1354v2.2885c.3881-.3379.7482-.59 1.0816-.755.3339-.1646.6432-.2463.9282-.2463.4949 0 .8807.1551 1.1577.4632.2796.3089.418.7397.418 1.2926v3.401h.3958v.7218h-2.7892v-.7217h.3897V36.694c0-.2466-.0504-.433-.1517-.5575-.099-.1258-.251-.1882-.452-.1882-.1569 0-.3223.04-.4925.1222-.169.0819-.332.1965-.4856.3436v3.3212h.3899v.7217h-2.789v-.7217h.3955v-5.7784l-.3954.1302v-.7336zm8.8733 4.8698-2.1806.9199c.1653.3375.3699.5918.6129.765.2439.1725.5234.258.8388.258.2546 0 .494-.0484.7173-.1473.2225-.0992.4306-.247.621-.445l.4063.4506c-.3885.5181-.8137.9043-1.28 1.155-.4646.2504-.9827.3742-1.5544.3742-.7683 0-1.3982-.281-1.8877-.844-.4904-.5628-.7362-1.281-.7362-2.1526 0-.8596.268-1.5838.804-2.168.536-.586 1.181-.8789 1.9306-.8789.3842 0 .7388.0755 1.0586.2248.3225.1498.6074.3728.8532.6676.2045.2388.3787.5123.5225.8194.1447.3063.218.518.218.6364 0 .0446-.1072.0956-.319.1514a4.3427 4.3427 0 0 0-.6253.2135zm-1.054-.5472c-.1234-.402-.2752-.7084-.453-.9236-.1769-.214-.3699-.3204-.5736-.3204-.1723 0-.3081.0773-.4037.2328-.0965.1555-.1456.3707-.1456.6482 0 .171.0122.3377.0404.5005.0283.1632.068.3186.118.4664l1.4168-.6039zm10.5428-.2209h-1.306v-.8526h2.5754c.1456 0 .2859-.0115.4217-.0377a2.2506 2.2506 0 0 0 .3948-.1101l.3073.5335c-.0991.1105-.1723.2254-.2198.344-.0465.12-.071.2444-.071.378v3.678h-.62l-.5065-.8364c-.3725.3299-.7745.5807-1.2051.7492-.4288.1692-.8826.2521-1.3588.2521-1.014 0-1.8296-.3415-2.4442-1.0224-.6147-.6833-.922-1.5901-.922-2.7195 0-.5976.0912-1.1585.2752-1.6791.1823-.522.452-.9855.8058-1.391.3877-.4545.8478-.8076 1.3757-1.0587.5289-.2497 1.0802-.3742 1.6519-.3742.3617 0 .7102.0593 1.0416.1769.3341.116.645.2912.9353.522l.4386-.2832.461.7214-2.3611 1.6113-.4386-.6328a.646.646 0 0 0 .118-.1904.564.564 0 0 0 .0404-.2134c0-.19-.0695-.3496-.2064-.4815-.1367-.1298-.3091-.1955-.5137-.1955-.4137 0-.7468.2018-1.0023.607-.2546.4059-.3824.9493-.3824 1.6267 0 .9862.2153 1.8132.6441 2.4824.4324.6697.964 1.0035 1.5973 1.0035a2.221 2.221 0 0 0 .2644-.0177.905.905 0 0 0 .2082-.0446v-2.5461zm6.474.9043c-.084-.0116-.1483-.0216-.1938-.0277-.0428-.0077-.0725-.0077-.085-.0077-.3099 0-.552.0971-.7262.2934-.176.1938-.2644.4597-.2644.7917 0 .2969.0527.5202.1599.6714.1063.1513.2644.2273.4717.2273.1947 0 .351-.0685.4672-.202.118-.1335.176-.3125.176-.5321l-.0077-1.2145zm-1.8725-3.094.5924.2209-.109.3245a3.4537 3.4537 0 0 1 .6879-.2236c.2402-.0516.486-.077.7387-.077.6075 0 1.0872.1646 1.4392.4947.3502.3303.5271.7802.5271 1.3506v3.3115h.3948v.7217h-2.228l-.1546-.5451c-.2563.2346-.5136.4115-.7717.5314-.2582.1189-.5155.1786-.772.1786-.5306 0-.9612-.1685-1.2935-.506-.3314-.338-.4967-.7706-.4967-1.3024 0-.701.2386-1.2268.7165-1.5782.478-.351 1.1935-.5258 2.1458-.5258h.1894c.0672 0 .1554.0092.2662.0207l.0076-.3088c0-.1839-.0633-.332-.1928-.4445-.1278-.1105-.3002-.1668-.5155-.1668-.2305 0-.4512.0624-.6656.1847-.2116.1217-.4046.3007-.5753.5356l-.6655-.2659.737-1.9334zm7.2033-1.0524.5664.1305v1.3878h.9755l-.1136.6712c-.0152.115-.0343.1825-.0565.2078-.0206.0254-.058.0377-.109.0377h-.6967v2.938c0 .2915.0381.499.1098.6192.0733.1221.1974.1822.3734.1822.0649 0 .1349-.013.21-.04.0748-.0254.159-.0677.2491-.1241l.2922.4445c-.2698.287-.5601.5082-.8683.6598-.3065.1517-.6137.2268-.922.2268-.511 0-.8817-.1258-1.113-.3784-.2305-.2521-.3467-.6614-.3467-1.2303v-3.2973h-.5154v-.6602c.4966-.1513.9111-.375 1.2373-.6718.3278-.295.57-.6615.7272-1.1026zm5.2179-.8596v.7341l-.4127.1354v2.2885c.3886-.3379.7486-.59 1.0818-.755.3342-.1646.6432-.2463.9282-.2463.495 0 .8809.1551 1.1578.4632.2796.3089.419.7397.419 1.2926v3.401h.3948v.7218h-2.789v-.7217h.3896V36.694c0-.2466-.0504-.433-.151-.5575-.1001-.1258-.251-.1882-.4521-.1882-.1573 0-.3224.04-.4931.1222-.1688.0819-.3314.1965-.486.3436v3.3212h.3904v.7217h-2.789v-.7217h.3957v-5.7784l-.3957.1302v-.7336zm8.8734 4.8698-2.1806.9199c.1652.3375.3698.5918.6128.765.2439.1725.5234.258.8379.258.2555 0 .4949-.0484.7182-.1473.2225-.0992.4316-.247.621-.445l.4064.4506c-.3877.5181-.8138.9043-1.2801 1.155-.4655.2504-.9827.3742-1.5536.3742-.7691 0-1.399-.281-1.8876-.844-.4913-.5628-.737-1.281-.737-2.1526 0-.8596.268-1.5838.804-2.168.537-.586 1.181-.8789 1.9306-.8789.384 0 .7387.0755 1.0594.2248.3216.1498.6075.3728.8523.6676.2045.2388.3787.5123.5235.8194.1437.3063.217.518.217.6364 0 .0446-.1062.0956-.318.1514-.2126.054-.4198.1263-.6262.2135zm-1.0542-.5472c-.1232-.402-.275-.7084-.453-.9236-.1768-.214-.3688-.3204-.5734-.3204-.1724 0-.3074.0773-.4029.2328-.0974.1555-.1465.3707-.1465.6482a3 3 0 0 0 .0413.5005 3.014 3.014 0 0 0 .118.4664l1.4168-.6039zm6.9824-2.2221.5976.2152-.6628 1.9447c-.2162-.0873-.3993-.1517-.5476-.1942-.1483-.04-.2734-.0624-.3752-.0624-.2234 0-.3994.0792-.5271.237-.1295.1566-.192.3722-.192.6497v2.4226h.5717v.7217h-2.966v-.7217h.3905v-2.923c0-.1517-.0138-.2544-.0397-.307-.0252-.0516-.0733-.1029-.142-.1475l-.2091.177-.4064-.4678 1.214-1.4885c.3394.1628.6092.3394.8102.5276.1984.1902.3413.4055.4252.6482.3172-.5026.5548-.8244.7103-.9666.1563-.1396.3189-.2092.4913-.2092.0956 0 .2064.017.3323.0538.1278.0347.26.0877.4047.1551l.1197-.2655zm3.4537.0562h.0777c-.0176.2462-.0321.4484-.042.6053a7.5737 7.5737 0 0 0-.0123.396v4.1555h.3895v.7217h-2.7836v-.7217h.3903v-3.8995l-.3903.0678v-.6482l2.371-.6771zm-.779-1.8096c.268 0 .4832.064.6467.1945.1626.1284.243.293.243.4948 0 .2733-.134.5065-.402.6986-.2707.194-.5931.2915-.9719.2915-.2296 0-.4136-.0608-.5548-.1825-.1385-.1203-.2081-.2817-.2081-.4832 0-.2626.1259-.4967.3796-.7028.2529-.2079.5414-.3109.8674-.3109zm4.7373 1.8096h.0778l-.0542 1.0013c.3878-.338.7478-.5885 1.0819-.753.3332-.165.6423-.2483.9273-.2483.4949 0 .8835.1551 1.164.4631.2832.309.4234.7397.4234 1.2926v3.401h.3842v.7218h-2.7774v-.7217h.384v-3.0413c0-.2466-.0503-.433-.1535-.5575-.1028-.1258-.2546-.1881-.4556-.1881-.1573 0-.3226.0408-.4932.1221-.1688.0819-.3315.1965-.4851.3436v3.3212h.3895v.7217h-2.7836v-.7217h.3904v-3.8995l-.3904.0678v-.6482l2.3709-.6771zm6.7019 1.4438c0 .613.1161 1.1648.3457 1.6534.2314.4892.4842.734.7576.734.1805 0 .3207-.0723.4199-.2135.1018-.1418.1518-.34.1518-.594 0-.6254-.1161-1.1706-.3466-1.6383-.2305-.4653-.4967-.6986-.8022-.6986-.1644 0-.2922.0654-.386.1999-.0937.1318-.1402.3182-.1402.5571zm.9014 4.5996c-.0867.1246-.1519.251-.193.375a1.1759 1.1759 0 0 0-.0641.3824c0 .1962.0412.3493.126.46.0848.1105.201.1653.3466.1653.1242 0 .2225-.0408.2966-.1228.0733-.0815.1081-.1899.1081-.3257 0-.206-.0542-.39-.1644-.5553-.109-.1653-.2608-.2912-.4556-.3789zm-2.8659-.9313c.4136-.0952.7951-.2018 1.1408-.3182.3475-.1182.653-.2466.9175-.3824-.5968-.1318-1.0694-.3921-1.4177-.7786-.3466-.3862-.5208-.8421-.5208-1.364 0-.6447.2572-1.1843.7683-1.6186.5136-.4333 1.1497-.6503 1.9117-.6503.193 0 .3787.0115.5557.0354.1732.023.3402.0561.4975.1023.1225-.4326.2537-.7182.3958-.86.143-.1396.3635-.2092.6637-.2092.0603 0 .1215 0 .1912.0116.0672.0084.1331.0192.1983.033l-.225 1.0984c-.0894-.0515-.1645-.0886-.2243-.1103-.058-.0216-.109-.0308-.1536-.0308-.0665 0-.118.0177-.1555.0508-.0397.0354-.058.0796-.058.138 0 0 .1661.2039.5002.6094.3315.4077.4985.8635.4985 1.3683 0 .6404-.2367 1.1725-.711 1.5932-.4735.4235-1.2097.7615-2.2093 1.0154.9523.1245 1.6384.3144 2.0618.5687.4217.2543.6334.5979.6334 1.0344 0 .4428-.226.8193-.678 1.1259-.452.3067-1.0086.46-1.6724.46-.5735 0-1.021-.0967-1.3417-.293-.3208-.1941-.4807-.4657-.4807-.8155 0-.258.0902-.4792.268-.6676.1804-.1882.4449-.3317.7915-.4345a11.0671 11.0671 0 0 0-.4833-.0662 3.0609 3.0609 0 0 0-.3395-.0192c-.0955 0-.1965.0077-.302.0192a3.6777 3.6777 0 0 0-.3572.0662l-.6638-.7104"/>
  </g>
</svg>
